<svg width="88" height="100" viewBox="0 0 88 100" fill="none" xmlns="http://www.w3.org/2000/svg">
<path d="M64.3405 27.0642V21.5596C64.3405 21.055 63.9209 20.6422 63.408 20.6422H18.6494C18.1366 20.6422 17.7169 21.055 17.7169 21.5596V27.0642C17.7169 27.5688 18.1366 27.9817 18.6494 27.9817H63.408C63.9209 27.9817 64.3405 27.5688 64.3405 27.0642ZM18.6494 37.156C18.1366 37.156 17.7169 37.5688 17.7169 38.0734V43.578C17.7169 44.0826 18.1366 44.4954 18.6494 44.4954H40.0962C40.6091 44.4954 41.0287 44.0826 41.0287 43.578V38.0734C41.0287 37.5688 40.6091 37.156 40.0962 37.156H18.6494ZM35.4339 88.9908H8.39223V8.25688H73.6652V47.7064C73.6652 48.211 74.0848 48.6239 74.5976 48.6239H81.1249C81.6378 48.6239 82.0574 48.211 82.0574 47.7064V3.66972C82.0574 1.63991 80.3906 0 78.3275 0H3.72988C1.66679 0 0 1.63991 0 3.66972V93.578C0 95.6078 1.66679 97.2477 3.72988 97.2477H35.4339C35.9467 97.2477 36.3664 96.8349 36.3664 96.3303V89.9083C36.3664 89.4037 35.9467 88.9908 35.4339 88.9908ZM87.3841 94.8968L76.5092 84.1973C79.1085 80.8142 80.6587 76.594 80.6587 72.0183C80.6587 60.8716 71.4739 51.8349 60.1444 51.8349C48.8148 51.8349 39.63 60.8716 39.63 72.0183C39.63 83.1651 48.8148 92.2018 60.1444 92.2018C64.3172 92.2018 68.1869 90.9748 71.4272 88.8761L82.4654 99.7362C82.6519 99.9197 82.885 100 83.1181 100C83.3512 100 83.596 99.9083 83.7708 99.7362L87.3841 96.1812C87.4701 96.097 87.5384 95.9969 87.5849 95.8867C87.6315 95.7765 87.6555 95.6583 87.6555 95.539C87.6555 95.4196 87.6315 95.3015 87.5849 95.1913C87.5384 95.081 87.4701 94.981 87.3841 94.8968ZM60.1444 84.8624C52.9294 84.8624 47.0898 79.117 47.0898 72.0183C47.0898 64.9197 52.9294 59.1743 60.1444 59.1743C67.3593 59.1743 73.1989 64.9197 73.1989 72.0183C73.1989 79.117 67.3593 84.8624 60.1444 84.8624Z" fill="#54A8A2"/>
</svg>
