<svg width="80" height="71" viewBox="0 0 80 71" fill="none" xmlns="http://www.w3.org/2000/svg">
<path d="M51.0748 11.1375C51.0748 8.18365 49.9014 5.35079 47.8127 3.2621C45.724 1.17341 42.8912 0 39.9373 0C36.9835 0 34.1506 1.17341 32.0619 3.2621C29.9732 5.35079 28.7998 8.18365 28.7998 11.1375C28.7998 14.0914 29.9732 16.9242 32.0619 19.0129C34.1506 21.1016 36.9835 22.275 39.9373 22.275C42.8912 22.275 45.724 21.1016 47.8127 19.0129C49.9014 16.9242 51.0748 14.0914 51.0748 11.1375Z" fill="#54A8A2"/>
<path d="M2.58008 45.0522H17.5251V30.1222L17.5651 29.2222C17.6951 27.7372 18.1551 26.3472 18.8651 25.1222H5.08008L4.49508 25.1572C3.27882 25.3005 2.15745 25.8852 1.34365 26.8003C0.529858 27.7155 0.0802397 28.8975 0.0800781 30.1222V42.5522C0.0800781 43.2152 0.34347 43.8511 0.812311 44.32C1.28115 44.7888 1.91704 45.0522 2.58008 45.0522Z" fill="#54A8A2"/>
<path d="M79.9503 42.5522C79.9503 43.2152 79.6869 43.8511 79.218 44.32C78.7492 44.7888 78.1133 45.0522 77.4503 45.0522H62.3703V30.1222L62.3403 29.3772C62.2311 27.878 61.7832 26.4232 61.0303 25.1222H74.9503C76.1757 25.1225 77.3584 25.5728 78.2736 26.3876C79.1889 27.2025 79.7731 28.325 79.9153 29.5422L79.9503 30.1222V42.5522Z" fill="#54A8A2"/>
<path d="M57.3344 29.5422C57.1922 28.3242 56.6073 27.2009 55.6909 26.386C54.7746 25.571 53.5907 25.1213 52.3644 25.1222H27.5244L26.9394 25.1572C25.7232 25.3005 24.6018 25.8852 23.788 26.8003C22.9742 27.7155 22.5246 28.8975 22.5244 30.1222V45.0522H57.3644V30.1222L57.3344 29.5422Z" fill="#54A8A2"/>
<path d="M64.8751 3.13721C67.4126 3.13721 69.8461 4.14521 71.6404 5.93946C73.4346 7.73372 74.4426 10.1672 74.4426 12.7047C74.4426 15.2422 73.4346 17.6757 71.6404 19.4699C69.8461 21.2642 67.4126 22.2722 64.8751 22.2722C62.3377 22.2722 59.9041 21.2642 58.1099 19.4699C56.3156 17.6757 55.3076 15.2422 55.3076 12.7047C55.3076 10.1672 56.3156 7.73372 58.1099 5.93946C59.9041 4.14521 62.3377 3.13721 64.8751 3.13721Z" fill="#54A8A2"/>
<path d="M24.6496 12.7023C24.6496 10.1648 23.6416 7.73128 21.8474 5.93702C20.0531 4.14277 17.6196 3.13477 15.0821 3.13477C12.5447 3.13477 10.1112 4.14277 8.3169 5.93702C6.52265 7.73128 5.51465 10.1648 5.51465 12.7023C5.51465 15.2391 6.52239 17.672 8.31617 19.4657C10.11 21.2595 12.5429 22.2673 15.0796 22.2673C17.6164 22.2673 20.0493 21.2595 21.8431 19.4657C23.6369 17.672 24.6446 15.2391 24.6446 12.7023H24.6496Z" fill="#54A8A2"/>
<path d="M2.5 50.0525C1.83696 50.0525 1.20107 50.3159 0.732234 50.7847C0.263393 51.2536 0 51.8894 0 52.5525V57.5525C0 60.8677 1.31696 64.0471 3.66117 66.3913C6.00537 68.7355 9.18479 70.0525 12.5 70.0525H67.5C70.8152 70.0525 73.9946 68.7355 76.3388 66.3913C78.683 64.0471 80 60.8677 80 57.5525V52.5525C80 51.8894 79.7366 51.2536 79.2678 50.7847C78.7989 50.3159 78.163 50.0525 77.5 50.0525H2.5Z" fill="#54A8A2"/>
</svg>
