<svg width="89" height="88" viewBox="0 0 89 88" fill="none" xmlns="http://www.w3.org/2000/svg">
<path fill-rule="evenodd" clip-rule="evenodd" d="M79.4059 70.5824C77.8882 70.5824 76.4765 70.9882 75.2294 71.6529L56.0588 52.4118C57.2765 50.7059 58.1412 48.7471 58.5412 46.6118H65.2059C65.8144 48.3279 66.9423 49.8119 68.4329 50.8576C69.9235 51.9033 71.7027 52.4589 73.5235 52.4471C78.4 52.4471 82.3471 48.6118 82.3471 43.8706C82.3471 39.1294 78.4 35.2941 73.5235 35.2941C71.6641 35.2828 69.8492 35.8631 68.3413 36.9512C66.8333 38.0393 65.7106 39.5788 65.1353 41.3471H58.5529C58.2063 39.3394 57.4407 37.4273 56.3059 35.7353L75.6588 16.3118C76.8 16.8353 78.0588 17.1529 79.4059 17.1529C84.2823 17.1529 88.2294 13.3176 88.2294 8.57647C88.2294 3.83529 84.2823 0 79.4059 0C74.5353 0 70.5941 3.83529 70.5941 8.57647C70.5941 10.1118 71.0353 11.5353 71.7647 12.7824L52.6118 32.0118C50.8635 30.7699 48.8632 29.9284 46.7529 29.5471V22.6C50.3235 21.5059 52.9353 18.3 52.9353 14.4588C52.9353 9.71765 48.9882 5.88235 44.1118 5.88235C39.2412 5.88235 35.3 9.71765 35.3 14.4588C35.3 18.3118 37.9176 21.5353 41.5235 22.6176V29.5412C39.3824 29.9176 37.4059 30.7471 35.6941 31.9412L16.5176 12.7C17.2118 11.4706 17.6412 10.0824 17.6412 8.58235C17.6412 3.84118 13.6941 0.00588193 8.81765 0.00588193C3.94706 0.00588193 0.00588193 3.84118 0.00588193 8.58235C0.00588193 13.3235 3.94706 17.1588 8.81765 17.1588C10.1941 17.1588 11.4941 16.8235 12.6529 16.2765L31.9765 35.6706C30.8235 37.3471 30.0353 39.2765 29.6647 41.3588H23.0882C22.5126 39.5896 21.389 38.0494 19.8799 36.9612C18.3708 35.873 16.5546 35.2933 14.6941 35.3059C9.82353 35.3059 5.88235 39.1412 5.88235 43.8824C5.88235 48.6235 9.82353 52.4588 14.6941 52.4588C18.5765 52.4588 21.8412 50.0118 23.0118 46.6235H29.6765C30.0765 48.7941 30.9765 50.7824 32.2294 52.5059L13.0882 71.7177C11.7784 70.9947 10.3079 70.6124 8.81176 70.6059C3.94118 70.6059 0 74.4412 0 79.1824C0 83.9235 3.94118 87.7588 8.81176 87.7588C13.6882 87.7588 17.6353 83.9235 17.6353 79.1824C17.6353 77.8529 17.3 76.6118 16.7529 75.5L36.0176 56.1529C37.6471 57.2353 39.5118 57.9706 41.5176 58.3235V65.1412C37.9176 66.2235 35.2941 69.4412 35.2941 73.3C35.2941 78.0412 39.2353 81.8765 44.1059 81.8765C48.9823 81.8765 52.9294 78.0412 52.9294 73.3C52.9294 69.4647 50.3235 66.2529 46.7471 65.1588V58.3176C48.7706 57.9529 50.6471 57.2 52.2882 56.1L71.5176 75.4C70.9116 76.569 70.593 77.8656 70.5882 79.1824C70.5882 83.9235 74.5294 87.7588 79.4 87.7588C84.2765 87.7588 88.2235 83.9235 88.2235 79.1824C88.2235 74.4412 84.2823 70.5824 79.4059 70.5824Z" fill="#54A8A2"/>
</svg>
