<svg width="79" height="79" viewBox="0 0 79 79" fill="none" xmlns="http://www.w3.org/2000/svg">
<path d="M0 28.5714V50H23.2143V28.5714H0ZM0 55.3571V65.1786C0 68.7306 1.41103 72.1371 3.92268 74.6488C6.43432 77.1604 9.84085 78.5714 13.3929 78.5714H23.2143V55.3571H0ZM28.5714 78.5714H50V55.3571H28.5714V78.5714ZM55.3571 78.5714H65.1786C68.7306 78.5714 72.1371 77.1604 74.6488 74.6488C77.1604 72.1371 78.5714 68.7306 78.5714 65.1786V55.3571H55.3571V78.5714ZM78.5714 50V28.5714H55.3571V50H78.5714ZM78.5714 23.2143V13.3929C78.5714 9.84085 77.1604 6.43432 74.6488 3.92268C72.1371 1.41103 68.7306 0 65.1786 0H55.3571V23.2143H78.5714ZM50 0H28.5714V23.2143H50V0ZM50 28.5714V50H28.5714V28.5714H50Z" fill="#54A8A2"/>
</svg>
