<svg width="150" height="150" viewBox="0 0 150 150" fill="none" xmlns="http://www.w3.org/2000/svg">
<path d="M141.75 9H124.5V1.5C124.5 0.675 123.825 0 123 0H27C26.175 0 25.5 0.675 25.5 1.5V9H8.25C6.06196 9 3.96354 9.86919 2.41637 11.4164C0.869193 12.9635 0 15.062 0 17.25V45C0 60.3187 11.25 73.05 25.9125 75.375C28.8187 97.1625 46.3125 114.319 68.25 116.719V136.444H31.5C28.1812 136.444 25.5 139.125 25.5 142.444V148.5C25.5 149.325 26.175 150 27 150H123C123.825 150 124.5 149.325 124.5 148.5V142.444C124.5 139.125 121.819 136.444 118.5 136.444H81.75V116.719C103.688 114.319 121.181 97.1625 124.087 75.375C138.75 73.05 150 60.3187 150 45V17.25C150 15.062 149.131 12.9635 147.584 11.4164C146.036 9.86919 143.938 9 141.75 9ZM13.5 45V22.5H25.5V61.425C22.0171 60.3125 18.9779 58.122 16.821 55.1698C14.6641 52.2175 13.5011 48.6562 13.5 45ZM111 69C111 78.2063 107.419 86.8875 100.894 93.3937C94.3687 99.9187 85.7063 103.5 76.5 103.5H73.5C64.2937 103.5 55.6125 99.9187 49.1062 93.3937C42.5812 86.8687 39 78.2063 39 69V13.5H111V69ZM136.5 45C136.5 52.6875 131.456 59.2125 124.5 61.425V22.5H136.5V45Z" fill="#EEF1F3"/>
</svg>
