<svg width="145" height="210" viewBox="0 0 145 210" fill="none" xmlns="http://www.w3.org/2000/svg">
<g clip-path="url(#clip0_2936_610)">
<path d="M-18.3289 161.316C-18.3289 161.316 -17.7369 162.119 -16.5502 161.719L9.57379 152.901C9.57379 152.901 10.7605 152.501 10.1698 151.697L-2.85554 134.011C-2.85554 134.011 -3.44754 133.208 -4.63421 133.608L-30.7582 142.426C-30.7582 142.426 -31.9449 142.827 -31.3542 143.63L-18.3289 161.316Z" fill="#686FAF" fill-opacity="0.3"/>
<path d="M40.3864 39.9103C40.3864 39.9103 41.4811 39.5474 40.3864 39.1837L16.2984 31.1932C16.2984 31.1932 15.2024 30.8295 14.1077 31.1932L-9.98028 39.1837C-9.98028 39.1837 -11.0749 39.5474 -9.98028 39.9103L14.1077 47.9007C14.1077 47.9007 15.2024 48.2645 16.2984 47.9007L40.3864 39.9103Z" fill="#686FAF" fill-opacity="0.5"/>
<path d="M40.3864 39.9103C40.3864 39.9103 41.4811 39.5474 40.3864 39.1837L16.2984 31.1932C16.2984 31.1932 15.2024 30.8295 14.1077 31.1932L-9.98028 39.1837C-9.98028 39.1837 -11.0749 39.5474 -9.98028 39.9103L14.1077 47.9007C14.1077 47.9007 15.2024 48.2645 16.2984 47.9007L40.3864 39.9103Z" stroke="#686FAF" stroke-opacity="0.5" stroke-width="1.33333" stroke-miterlimit="10"/>
<path d="M48.7358 37.6428C48.7358 37.6428 48.1438 38.4462 46.9571 38.0454L20.8331 29.2282C20.8331 29.2282 19.6464 28.8274 20.2371 28.024L33.2624 10.3381C33.2624 10.3381 33.8544 9.53472 35.0411 9.9346L61.1651 18.7527C61.1651 18.7527 62.3518 19.1535 61.7611 19.9569L48.7358 37.6428Z" fill="#686FAF" fill-opacity="0.7"/>
<path d="M-18.3289 41.2562C-18.3289 41.2562 -17.7369 40.4528 -16.5502 40.8536L9.57379 49.6709C9.57379 49.6709 10.7605 50.0717 10.1698 50.875L-2.85554 68.561C-2.85554 68.561 -3.44754 69.3643 -4.63421 68.9645L-30.7582 60.1463C-30.7582 60.1463 -31.9449 59.7455 -31.3542 58.9422L-18.3289 41.2562Z" fill="#686FAF" fill-opacity="0.7"/>
<path d="M-18.3289 37.6428C-18.3289 37.6428 -17.7369 38.4462 -16.5502 38.0454L9.57379 29.2282C9.57379 29.2282 10.7605 28.8274 10.1698 28.024L-2.85554 10.3381C-2.85554 10.3381 -3.44754 9.53472 -4.63421 9.9346L-30.7582 18.7527C-30.7582 18.7527 -31.9449 19.1535 -31.3542 19.9569L-18.3289 37.6428Z" fill="#686FAF" fill-opacity="0.5"/>
<path d="M48.7358 41.2562C48.7358 41.2562 48.1438 40.4528 46.9571 40.8536L20.8331 49.6709C20.8331 49.6709 19.6464 50.0717 20.2371 50.875L33.2624 68.561C33.2624 68.561 33.8544 69.3643 35.0411 68.9645L61.1651 60.1463C61.1651 60.1463 62.3518 59.7455 61.7611 58.9422L48.7358 41.2562Z" fill="#686FAF" fill-opacity="0.5"/>
<path d="M40.3864 101.747C40.3864 101.747 41.4811 101.384 40.3864 101.02L16.2984 93.0299C16.2984 93.0299 15.2024 92.6661 14.1077 93.0299L-9.98028 101.02C-9.98028 101.02 -11.0749 101.384 -9.98028 101.747L14.1077 109.737C14.1077 109.737 15.2024 110.101 16.2984 109.737L40.3864 101.747Z" fill="#686FAF" fill-opacity="0.8"/>
<path d="M40.3864 101.747C40.3864 101.747 41.4811 101.384 40.3864 101.02L16.2984 93.0299C16.2984 93.0299 15.2024 92.6661 14.1077 93.0299L-9.98028 101.02C-9.98028 101.02 -11.0749 101.384 -9.98028 101.747L14.1077 109.737C14.1077 109.737 15.2024 110.101 16.2984 109.737L40.3864 101.747Z" stroke="#686FAF" stroke-opacity="0.5" stroke-width="1.33333" stroke-miterlimit="10"/>
<path d="M48.7358 99.4795C48.7358 99.4795 48.1438 100.283 46.9571 99.882L20.8331 91.0648C20.8331 91.0648 19.6464 90.664 20.2371 89.8606L33.2624 72.1747C33.2624 72.1747 33.8544 71.3713 35.0411 71.7712L61.1651 80.5894C61.1651 80.5894 62.3518 80.9901 61.7611 81.7935L48.7358 99.4795Z" fill="#686FAF" fill-opacity="0.8"/>
<path d="M-18.3289 103.093C-18.3289 103.093 -17.7369 102.289 -16.5502 102.69L9.57379 111.507C9.57379 111.507 10.7605 111.908 10.1698 112.712L-2.85554 130.398C-2.85554 130.398 -3.44754 131.201 -4.63421 130.801L-30.7582 121.983C-30.7582 121.983 -31.9449 121.582 -31.3542 120.779L-18.3289 103.093Z" fill="#686FAF" fill-opacity="0.8"/>
<path d="M91.9777 70.8285C91.9777 70.8285 93.0724 70.4656 91.9777 70.1019L67.8897 62.1115C67.8897 62.1115 66.7937 61.7477 65.699 62.1115L41.611 70.1019C41.611 70.1019 40.5164 70.4656 41.611 70.8285L65.699 78.8189C65.699 78.8189 66.7937 79.1827 67.8897 78.8189L91.9777 70.8285Z" fill="#686FAF" fill-opacity="0.8"/>
<path d="M91.9777 70.8285C91.9777 70.8285 93.0724 70.4656 91.9777 70.1019L67.8897 62.1115C67.8897 62.1115 66.7937 61.7477 65.699 62.1115L41.611 70.1019C41.611 70.1019 40.5164 70.4656 41.611 70.8285L65.699 78.8189C65.699 78.8189 66.7937 79.1827 67.8897 78.8189L91.9777 70.8285Z" stroke="#686FAF" stroke-opacity="0.5" stroke-width="1.33333" stroke-miterlimit="10"/>
<path d="M143.569 39.9103C143.569 39.9103 144.663 39.5474 143.569 39.1836L119.481 31.1932C119.481 31.1932 118.385 30.8295 117.29 31.1932L93.202 39.1836C93.202 39.1836 92.1073 39.5474 93.202 39.9103L117.29 47.9007C117.29 47.9007 118.385 48.2645 119.481 47.9007L143.569 39.9103ZM84.854 37.6428C84.854 37.6428 85.4447 38.4462 86.6327 38.0454L112.755 29.2281C112.755 29.2281 113.943 28.8273 113.351 28.024L100.327 10.338C100.327 10.338 99.7353 9.53466 98.5473 9.93454L72.4247 18.7527C72.4247 18.7527 71.2367 19.1535 71.8287 19.9568L84.854 37.6428ZM84.854 41.2562C84.854 41.2562 85.4447 40.4528 86.6327 40.8536L112.755 49.6708C112.755 49.6708 113.943 50.0716 113.351 50.875L100.327 68.5609C100.327 68.5609 99.7353 69.3643 98.5473 68.9644L72.4247 60.1462C72.4247 60.1462 71.2367 59.7455 71.8287 58.9421L84.854 41.2562ZM143.569 101.747C143.569 101.747 144.663 101.384 143.569 101.021L119.481 93.0295C119.481 93.0295 118.385 92.6666 117.29 93.0295L93.202 101.021C93.202 101.021 92.1073 101.384 93.202 101.747L117.29 109.738C117.29 109.738 118.385 110.101 119.481 109.738L143.569 101.747ZM84.854 99.479C84.854 99.479 85.4447 100.283 86.6327 99.8825L112.755 91.0653C112.755 91.0653 113.943 90.6645 113.351 89.8602L100.327 72.1752C100.327 72.1752 99.7353 71.3709 98.5473 71.7717L72.4247 80.5889C72.4247 80.5889 71.2367 80.9897 71.8287 81.794L84.854 99.479ZM84.854 103.092C84.854 103.092 85.4447 102.289 86.6327 102.69L112.755 111.507C112.755 111.507 113.943 111.908 113.351 112.712L100.327 130.397C100.327 130.397 99.7353 131.201 98.5473 130.801L72.4247 121.982C72.4247 121.982 71.2367 121.583 71.8287 120.778L84.854 103.092ZM100.327 195.848C100.327 195.848 99.7353 195.044 98.5473 195.445L72.4247 204.262C72.4247 204.262 71.2367 204.663 71.8287 205.467L84.854 223.152C84.854 223.152 85.4447 223.956 86.6327 223.556L112.755 214.738C112.755 214.738 113.943 214.337 113.351 213.534L100.327 195.848ZM-2.85533 195.848C-2.85533 195.848 -3.44732 195.044 -4.63532 195.445L-30.758 204.262C-30.758 204.262 -31.9447 204.663 -31.354 205.467L-18.3286 223.152C-18.3286 223.152 -17.7367 223.956 -16.55 223.556L9.57403 214.738C9.57403 214.738 10.7607 214.337 10.1687 213.534L-2.85533 195.848ZM-106.038 195.848C-106.038 195.848 -106.63 195.044 -107.817 195.445L-133.941 204.262C-133.941 204.262 -135.127 204.663 -134.535 205.467L-121.511 223.152C-121.511 223.152 -120.919 223.956 -119.731 223.556L-93.6086 214.738C-93.6086 214.738 -92.4207 214.337 -93.0127 213.534L-106.038 195.848ZM143.569 163.584C143.569 163.584 144.663 163.22 143.569 162.857L119.481 154.867C119.481 154.867 118.385 154.503 117.29 154.867L93.202 162.857C93.202 162.857 92.1073 163.22 93.202 163.584L117.29 171.574C117.29 171.574 118.385 171.938 119.481 171.574L143.569 163.584ZM84.854 161.316C84.854 161.316 85.4447 162.12 86.6327 161.719L112.755 152.902C112.755 152.902 113.943 152.501 113.351 151.696L100.327 134.011C100.327 134.011 99.7353 133.207 98.5473 133.608L72.4247 142.426C72.4247 142.426 71.2367 142.827 71.8287 143.63L84.854 161.316ZM84.854 164.93C84.854 164.93 85.4447 164.126 86.6327 164.527L112.755 173.344C112.755 173.344 113.943 173.745 113.351 174.548L100.327 192.234C100.327 192.234 99.7353 193.038 98.5473 192.637L72.4247 183.82C72.4247 183.82 71.2367 183.419 71.8287 182.615L84.854 164.93ZM-121.511 37.6428C-121.511 37.6428 -120.919 38.4462 -119.731 38.0454L-93.6086 29.2281C-93.6086 29.2281 -92.4207 28.8273 -93.0127 28.024L-106.038 10.338C-106.038 10.338 -106.63 9.53466 -107.817 9.93454L-133.941 18.7527C-133.941 18.7527 -135.127 19.1535 -134.535 19.9568L-121.511 37.6428ZM-54.446 41.2562C-54.446 41.2562 -55.038 40.4528 -56.226 40.8536L-82.3487 49.6708C-82.3487 49.6708 -83.5366 50.0716 -82.9446 50.875L-69.9193 68.5609C-69.9193 68.5609 -69.3286 69.3643 -68.1406 68.9644L-42.018 60.1462C-42.018 60.1462 -40.83 59.7455 -41.422 58.9421L-54.446 41.2562ZM-18.3286 99.479C-18.3286 99.479 -17.7367 100.283 -16.55 99.8825L9.57403 91.0653C9.57403 91.0653 10.7607 90.6645 10.1687 89.8602L-2.85533 72.1752C-2.85533 72.1752 -3.44732 71.3709 -4.63532 71.7717L-30.758 80.5889C-30.758 80.5889 -31.9447 80.9897 -31.354 81.794L-18.3286 99.479ZM48.7354 103.092C48.7354 103.092 48.1433 102.289 46.9567 102.69L20.8327 111.507C20.8327 111.507 19.646 111.908 20.238 112.712L33.262 130.397C33.262 130.397 33.854 131.201 35.042 130.801L61.1647 121.982C61.1647 121.982 62.3527 121.583 61.7607 120.778L48.7354 103.092ZM91.978 132.666C91.978 132.666 93.0727 132.302 91.978 131.939L67.8887 123.948C67.8887 123.948 66.794 123.585 65.6994 123.948L41.6113 131.939C41.6113 131.939 40.5167 132.302 41.6113 132.665L65.6994 140.656C65.6994 140.656 66.794 141.019 67.8887 140.656L91.978 132.666ZM33.262 134.011C33.262 134.011 33.854 133.207 35.042 133.608L61.1647 142.425C61.1647 142.425 62.3527 142.826 61.7607 143.63L48.7354 161.315C48.7354 161.315 48.1433 162.12 46.9567 161.719L20.8327 152.902C20.8327 152.902 19.646 152.501 20.238 151.696L33.262 134.011ZM91.978 194.502C91.978 194.502 93.0727 194.139 91.978 193.775L67.8887 185.785C67.8887 185.785 66.794 185.421 65.6994 185.785L41.6113 193.775C41.6113 193.775 40.5167 194.139 41.6113 194.502L65.6994 202.492C65.6994 202.492 66.794 202.856 67.8887 202.492L91.978 194.502ZM-11.2047 194.502C-11.2047 194.502 -10.11 194.139 -11.2047 193.775L-35.2926 185.785C-35.2926 185.785 -36.3887 185.421 -37.4833 185.785L-61.5713 193.775C-61.5713 193.775 -62.666 194.139 -61.5713 194.502L-37.4833 202.492C-37.4833 202.492 -36.3886 202.856 -35.2926 202.492L-11.2047 194.502ZM33.262 192.234C33.262 192.234 33.854 193.038 35.042 192.637L61.1647 183.82C61.1647 183.82 62.3527 183.419 61.7607 182.616L48.7354 164.93C48.7354 164.93 48.1433 164.126 46.9567 164.526L20.8327 173.344C20.8327 173.344 19.646 173.745 20.238 174.548L33.262 192.234ZM33.262 195.848C33.262 195.848 33.854 195.044 35.042 195.445L61.1647 204.262C61.1647 204.262 62.3527 204.663 61.7607 205.467L48.7354 223.152C48.7354 223.152 48.1433 223.956 46.9567 223.556L20.8327 214.738C20.8327 214.738 19.646 214.337 20.238 213.534L33.262 195.848ZM-69.9193 195.848C-69.9193 195.848 -69.3286 195.044 -68.1406 195.445L-42.018 204.262C-42.018 204.262 -40.83 204.663 -41.422 205.467L-54.446 223.152C-54.446 223.152 -55.038 223.956 -56.226 223.556L-82.3487 214.738C-82.3487 214.738 -83.5366 214.337 -82.9446 213.534L-69.9193 195.848ZM40.386 163.584C40.386 163.584 41.482 163.22 40.386 162.857L16.298 154.867C16.298 154.867 15.2034 154.503 14.1074 154.867L-9.98065 162.857C-9.98065 162.857 -11.0753 163.22 -9.98065 163.584L14.1074 171.574C14.1074 171.574 15.2034 171.938 16.298 171.574L40.386 163.584ZM-18.3286 164.93C-18.3286 164.93 -17.7367 164.126 -16.55 164.527L9.57403 173.344C9.57403 173.344 10.7607 173.745 10.1687 174.548L-2.85533 192.234C-2.85533 192.234 -3.44732 193.038 -4.63532 192.637L-30.758 183.82C-30.758 183.82 -31.9447 183.419 -31.354 182.615L-18.3286 164.93ZM-69.9193 192.234C-69.9193 192.234 -69.3286 193.038 -68.1406 192.637L-42.018 183.82C-42.018 183.82 -40.83 183.419 -41.422 182.616L-54.446 164.93C-54.446 164.93 -55.038 164.126 -56.226 164.526L-82.3487 173.344C-82.3487 173.344 -83.5366 173.745 -82.9446 174.548L-69.9193 192.234ZM-121.511 161.316C-121.511 161.316 -120.919 162.12 -119.731 161.719L-93.6086 152.902C-93.6086 152.902 -92.4207 152.501 -93.0127 151.696L-106.038 134.011C-106.038 134.011 -106.63 133.207 -107.817 133.608L-133.941 142.426C-133.941 142.426 -135.127 142.827 -134.535 143.63L-121.511 161.316ZM100.327 257.685C100.327 257.685 99.7353 256.881 98.5473 257.281L72.4247 266.099C72.4247 266.099 71.2367 266.499 71.8287 267.304L84.854 284.989C84.854 284.989 85.4447 285.793 86.6327 285.392L112.755 276.574C112.755 276.574 113.943 276.174 113.351 275.37L100.327 257.685ZM-2.85533 257.685C-2.85533 257.685 -3.44732 256.881 -4.63532 257.281L-30.758 266.099C-30.758 266.099 -31.9447 266.499 -31.354 267.304L-18.3286 284.989C-18.3286 284.989 -17.7367 285.793 -16.55 285.392L9.57403 276.574C9.57403 276.574 10.7607 276.174 10.1687 275.37L-2.85533 257.685ZM-106.038 257.685C-106.038 257.685 -106.63 256.881 -107.817 257.281L-133.941 266.099C-133.941 266.099 -135.127 266.499 -134.535 267.304L-121.511 284.989C-121.511 284.989 -120.919 285.793 -119.731 285.392L-93.6086 276.574C-93.6086 276.574 -92.4207 276.174 -93.0127 275.37L-106.038 257.685ZM84.854 226.766C84.854 226.766 85.4447 225.962 86.6327 226.363L112.755 235.18C112.755 235.18 113.943 235.581 113.351 236.386L100.327 254.071C100.327 254.071 99.7353 254.875 98.5473 254.474L72.4247 245.656C72.4247 245.656 71.2367 245.256 71.8287 244.452L84.854 226.766ZM91.978 256.338C91.978 256.338 93.0727 255.975 91.978 255.611L67.8887 247.621C67.8887 247.621 66.794 247.258 65.6994 247.621L41.6113 255.612C41.6113 255.612 40.5167 255.975 41.6113 256.338L65.6994 264.329C65.6994 264.329 66.794 264.692 67.8887 264.329L91.978 256.338ZM-11.2047 256.338C-11.2047 256.338 -10.11 255.975 -11.2047 255.611L-35.2926 247.621C-35.2926 247.621 -36.3887 247.258 -37.4833 247.621L-61.5713 255.612C-61.5713 255.612 -62.666 255.975 -61.5713 256.338L-37.4833 264.329C-37.4833 264.329 -36.3886 264.692 -35.2926 264.329L-11.2047 256.338ZM33.262 254.071C33.262 254.071 33.854 254.875 35.042 254.474L61.1647 245.657C61.1647 245.657 62.3527 245.256 61.7607 244.452L48.7354 226.767C48.7354 226.767 48.1433 225.962 46.9567 226.363L20.8327 235.18C20.8327 235.18 19.646 235.581 20.238 236.386L33.262 254.071ZM33.262 257.685C33.262 257.685 33.854 256.881 35.042 257.281L61.1647 266.099C61.1647 266.099 62.3527 266.499 61.7607 267.304L48.7354 284.989C48.7354 284.989 48.1433 285.793 46.9567 285.392L20.8327 276.574C20.8327 276.574 19.646 276.174 20.238 275.37L33.262 257.685ZM-69.9193 257.685C-69.9193 257.685 -69.3286 256.881 -68.1406 257.281L-42.018 266.099C-42.018 266.099 -40.83 266.499 -41.422 267.304L-54.446 284.989C-54.446 284.989 -55.038 285.793 -56.226 285.392L-82.3487 276.574C-82.3487 276.574 -83.5366 276.174 -82.9446 275.37L-69.9193 257.685ZM-18.3286 226.766C-18.3286 226.766 -17.7367 225.962 -16.55 226.363L9.57403 235.18C9.57403 235.18 10.7607 235.581 10.1687 236.386L-2.85533 254.071C-2.85533 254.071 -3.44732 254.875 -4.63532 254.474L-30.758 245.656C-30.758 245.656 -31.9447 245.256 -31.354 244.452L-18.3286 226.766ZM-69.9193 254.071C-69.9193 254.071 -69.3286 254.875 -68.1406 254.474L-42.018 245.657C-42.018 245.657 -40.83 245.256 -41.422 244.452L-54.446 226.767C-54.446 226.767 -55.038 225.962 -56.226 226.363L-82.3487 235.18C-82.3487 235.18 -83.5366 235.581 -82.9446 236.386L-69.9193 254.071ZM-121.511 226.766C-121.511 226.766 -120.919 225.962 -119.731 226.363L-93.6086 235.18C-93.6086 235.18 -92.4207 235.581 -93.0127 236.386L-106.038 254.071C-106.038 254.071 -106.63 254.875 -107.817 254.474L-133.941 245.656C-133.941 245.656 -135.127 245.256 -134.535 244.452L-121.511 226.766ZM143.569 225.42C143.569 225.42 144.663 225.057 143.569 224.693L119.481 216.703C119.481 216.703 118.385 216.339 117.29 216.703L93.202 224.693C93.202 224.693 92.1073 225.057 93.202 225.42L117.29 233.411C117.29 233.411 118.385 233.774 119.481 233.411L143.569 225.42ZM40.386 225.42C40.386 225.42 41.482 225.057 40.386 224.693L16.298 216.703C16.298 216.703 15.2034 216.339 14.1074 216.703L-9.98065 224.693C-9.98065 224.693 -11.0753 225.057 -9.98065 225.42L14.1074 233.411C14.1074 233.411 15.2034 233.774 16.298 233.411L40.386 225.42ZM-62.7953 225.42C-62.7953 225.42 -61.7006 225.057 -62.7953 224.693L-86.8846 216.703C-86.8846 216.703 -87.9793 216.339 -89.074 216.703L-113.162 224.693C-113.162 224.693 -114.257 225.057 -113.162 225.42L-89.074 233.411C-89.074 233.411 -87.9793 233.774 -86.8846 233.411L-62.7953 225.42ZM143.569 287.257C143.569 287.257 144.663 286.893 143.569 286.53L119.481 278.539C119.481 278.539 118.385 278.176 117.29 278.539L93.202 286.53C93.202 286.53 92.1073 286.893 93.202 287.257L117.29 295.247C117.29 295.247 118.385 295.61 119.481 295.247L143.569 287.257ZM84.854 288.603C84.854 288.603 85.4447 287.799 86.6327 288.199L112.755 297.017C112.755 297.017 113.943 297.418 113.351 298.222L100.327 315.908C100.327 315.908 99.7353 316.711 98.5473 316.31L72.4247 307.493C72.4247 307.493 71.2367 307.092 71.8287 306.288L84.854 288.603ZM143.569 349.093C143.569 349.093 144.663 348.73 143.569 348.367L119.481 340.376C119.481 340.376 118.385 340.013 117.29 340.376L93.202 348.367C93.202 348.367 92.1073 348.73 93.202 349.093L117.29 357.085C117.29 357.085 118.385 357.448 119.481 357.085L143.569 349.093ZM84.854 346.826C84.854 346.826 85.4447 347.63 86.6327 347.228L112.755 338.411C112.755 338.411 113.943 338.01 113.351 337.207L100.327 319.521C100.327 319.521 99.7353 318.718 98.5473 319.119L72.4247 327.936C72.4247 327.936 71.2367 328.337 71.8287 329.14L84.854 346.826ZM84.854 350.439C84.854 350.439 85.4447 349.636 86.6327 350.037L112.755 358.854C112.755 358.854 113.943 359.255 113.351 360.058L100.327 377.744C100.327 377.744 99.7353 378.548 98.5473 378.147L72.4247 369.329C72.4247 369.329 71.2367 368.929 71.8287 368.125L84.854 350.439ZM143.569 410.931C143.569 410.931 144.663 410.567 143.569 410.204L119.481 402.213C119.481 402.213 118.385 401.85 117.29 402.213L93.202 410.204C93.202 410.204 92.1073 410.567 93.202 410.93L117.29 418.921C117.29 418.921 118.385 419.284 119.481 418.921L143.569 410.931ZM84.854 408.662C84.854 408.662 85.4447 409.466 86.6327 409.066L112.755 400.248C112.755 400.248 113.943 399.848 113.351 399.043L100.327 381.358C100.327 381.358 99.7353 380.554 98.5473 380.955L72.4247 389.772C72.4247 389.772 71.2367 390.173 71.8287 390.977L84.854 408.662ZM40.386 287.257C40.386 287.257 41.482 286.893 40.386 286.53L16.298 278.539C16.298 278.539 15.2034 278.176 14.1074 278.539L-9.98065 286.53C-9.98065 286.53 -11.0753 286.893 -9.98065 287.257L14.1074 295.247C14.1074 295.247 15.2034 295.61 16.298 295.247L40.386 287.257ZM-18.3286 288.603C-18.3286 288.603 -17.7367 287.799 -16.55 288.199L9.57403 297.017C9.57403 297.017 10.7607 297.418 10.1687 298.222L-2.85533 315.908C-2.85533 315.908 -3.44732 316.711 -4.63532 316.31L-30.758 307.493C-30.758 307.493 -31.9447 307.092 -31.354 306.288L-18.3286 288.603ZM48.7354 288.603C48.7354 288.603 48.1433 287.799 46.9567 288.199L20.8327 297.017C20.8327 297.017 19.646 297.418 20.238 298.222L33.262 315.908C33.262 315.908 33.854 316.711 35.042 316.31L61.1647 307.493C61.1647 307.493 62.3527 307.092 61.7607 306.288L48.7354 288.603ZM-62.7953 287.257C-62.7953 287.257 -61.7006 286.893 -62.7953 286.53L-86.8846 278.539C-86.8846 278.539 -87.9793 278.176 -89.074 278.539L-113.162 286.53C-113.162 286.53 -114.257 286.893 -113.162 287.257L-89.074 295.247C-89.074 295.247 -87.9793 295.61 -86.8846 295.247L-62.7953 287.257ZM-121.511 288.603C-121.511 288.603 -120.919 287.799 -119.731 288.199L-93.6086 297.017C-93.6086 297.017 -92.4207 297.418 -93.0127 298.222L-106.038 315.908C-106.038 315.908 -106.63 316.711 -107.817 316.31L-133.941 307.493C-133.941 307.493 -135.127 307.092 -134.535 306.288L-121.511 288.603ZM-54.446 288.603C-54.446 288.603 -55.038 287.799 -56.226 288.199L-82.3487 297.017C-82.3487 297.017 -83.5366 297.418 -82.9446 298.222L-69.9193 315.908C-69.9193 315.908 -69.3286 316.711 -68.1406 316.31L-42.018 307.493C-42.018 307.493 -40.83 307.092 -41.422 306.288L-54.446 288.603ZM40.386 349.093C40.386 349.093 41.482 348.73 40.386 348.367L16.298 340.376C16.298 340.376 15.2034 340.013 14.1074 340.376L-9.98065 348.367C-9.98065 348.367 -11.0753 348.73 -9.98065 349.093L14.1074 357.085C14.1074 357.085 15.2034 357.448 16.298 357.085L40.386 349.093ZM-18.3286 346.826C-18.3286 346.826 -17.7367 347.63 -16.55 347.228L9.57403 338.411C9.57403 338.411 10.7607 338.01 10.1687 337.207L-2.85533 319.521C-2.85533 319.521 -3.44732 318.718 -4.63532 319.119L-30.758 327.936C-30.758 327.936 -31.9447 328.337 -31.354 329.14L-18.3286 346.826ZM48.7354 346.826C48.7354 346.826 48.1433 347.63 46.9567 347.228L20.8327 338.411C20.8327 338.411 19.646 338.01 20.238 337.207L33.262 319.521C33.262 319.521 33.854 318.718 35.042 319.119L61.1647 327.936C61.1647 327.936 62.3527 328.337 61.7607 329.14L48.7354 346.826ZM-18.3286 350.439C-18.3286 350.439 -17.7367 349.636 -16.55 350.037L9.57403 358.854C9.57403 358.854 10.7607 359.255 10.1687 360.058L-2.85533 377.744C-2.85533 377.744 -3.44732 378.548 -4.63532 378.147L-30.758 369.329C-30.758 369.329 -31.9447 368.929 -31.354 368.125L-18.3286 350.439ZM48.7354 350.439C48.7354 350.439 48.1433 349.636 46.9567 350.037L20.8327 358.854C20.8327 358.854 19.646 359.255 20.238 360.058L33.262 377.744C33.262 377.744 33.854 378.548 35.042 378.147L61.1647 369.329C61.1647 369.329 62.3527 368.929 61.7607 368.125L48.7354 350.439ZM-11.2047 318.175C-11.2047 318.175 -10.11 317.811 -11.2047 317.449L-35.2926 309.458C-35.2926 309.458 -36.3887 309.094 -37.4833 309.458L-61.5713 317.449C-61.5713 317.449 -62.666 317.811 -61.5713 318.175L-37.4833 326.166C-37.4833 326.166 -36.3886 326.529 -35.2926 326.166L-11.2047 318.175ZM-69.9193 319.521C-69.9193 319.521 -69.3286 318.717 -68.1406 319.119L-42.018 327.936C-42.018 327.936 -40.83 328.337 -41.422 329.14L-54.446 346.826C-54.446 346.826 -55.038 347.629 -56.226 347.228L-82.3487 338.411C-82.3487 338.411 -83.5366 338.01 -82.9446 337.206L-69.9193 319.521ZM91.978 318.175C91.978 318.175 93.0727 317.811 91.978 317.449L67.8887 309.458C67.8887 309.458 66.794 309.094 65.6994 309.458L41.6113 317.449C41.6113 317.449 40.5167 317.811 41.6113 318.175L65.6994 326.166C65.6994 326.166 66.794 326.529 67.8887 326.166L91.978 318.175ZM91.978 380.011C91.978 380.011 93.0727 379.649 91.978 379.285L67.8887 371.294C67.8887 371.294 66.794 370.932 65.6994 371.294L41.6113 379.286C41.6113 379.286 40.5167 379.649 41.6113 380.011L65.6994 388.002C65.6994 388.002 66.794 388.366 67.8887 388.002L91.978 380.011ZM-11.2047 380.011C-11.2047 380.011 -10.11 379.649 -11.2047 379.285L-35.2926 371.294C-35.2926 371.294 -36.3887 370.932 -37.4833 371.294L-61.5713 379.286C-61.5713 379.286 -62.666 379.649 -61.5713 380.011L-37.4833 388.002C-37.4833 388.002 -36.3886 388.366 -35.2926 388.002L-11.2047 380.011ZM-62.7953 349.093C-62.7953 349.093 -61.7006 348.73 -62.7953 348.367L-86.8846 340.376C-86.8846 340.376 -87.9793 340.013 -89.074 340.376L-113.162 348.367C-113.162 348.367 -114.257 348.73 -113.162 349.093L-89.074 357.085C-89.074 357.085 -87.9793 357.448 -86.8846 357.085L-62.7953 349.093ZM-165.978 349.093C-165.978 349.093 -164.883 348.73 -165.978 348.367L-190.067 340.376C-190.067 340.376 -191.162 340.013 -192.257 340.376L-216.345 348.367C-216.345 348.367 -217.439 348.73 -216.345 349.093L-192.257 357.085C-192.257 357.085 -191.162 357.448 -190.067 357.085L-165.978 349.093ZM-269.161 349.093C-269.161 349.093 -268.066 348.73 -269.161 348.367L-293.249 340.376C-293.249 340.376 -294.345 340.013 -295.439 340.376L-319.527 348.367C-319.527 348.367 -320.622 348.73 -319.527 349.093L-295.439 357.085C-295.439 357.085 -294.345 357.448 -293.249 357.085L-269.161 349.093ZM-165.978 225.42C-165.978 225.42 -164.883 225.057 -165.978 224.693L-190.067 216.703C-190.067 216.703 -191.162 216.339 -192.257 216.703L-216.345 224.694C-216.345 224.694 -217.439 225.057 -216.345 225.42L-192.257 233.411C-192.257 233.411 -191.162 233.774 -190.067 233.411L-165.978 225.42ZM-269.161 225.42C-269.161 225.42 -268.066 225.057 -269.161 224.693L-293.249 216.703C-293.249 216.703 -294.345 216.339 -295.439 216.703L-319.527 224.694C-319.527 224.694 -320.622 225.057 -319.527 225.42L-295.439 233.411C-295.439 233.411 -294.345 233.774 -293.249 233.411L-269.161 225.42ZM-121.511 346.826C-121.511 346.826 -120.919 347.63 -119.731 347.228L-93.6086 338.411C-93.6086 338.411 -92.4207 338.01 -93.0127 337.207L-106.038 319.521C-106.038 319.521 -106.63 318.718 -107.817 319.119L-133.941 327.936C-133.941 327.936 -135.127 328.337 -134.535 329.14L-121.511 346.826ZM-121.511 350.439C-121.511 350.439 -120.919 349.636 -119.731 350.037L-93.6086 358.854C-93.6086 358.854 -92.4207 359.255 -93.0127 360.058L-106.038 377.744C-106.038 377.744 -106.63 378.548 -107.817 378.147L-133.941 369.329C-133.941 369.329 -135.127 368.929 -134.535 368.125L-121.511 350.439ZM-54.446 350.439C-54.446 350.439 -55.038 349.636 -56.226 350.037L-82.3487 358.854C-82.3487 358.854 -83.5366 359.255 -82.9446 360.058L-69.9193 377.744C-69.9193 377.744 -69.3286 378.548 -68.1406 378.147L-42.018 369.329C-42.018 369.329 -40.83 368.929 -41.422 368.125L-54.446 350.439ZM33.262 381.357C33.262 381.357 33.854 380.554 35.042 380.955L61.1647 389.772C61.1647 389.772 62.3527 390.173 61.7607 390.977L48.7354 408.662C48.7354 408.662 48.1433 409.466 46.9567 409.066L20.8327 400.247C20.8327 400.247 19.646 399.847 20.238 399.043L33.262 381.357ZM40.386 410.931C40.386 410.931 41.482 410.567 40.386 410.204L16.298 402.213C16.298 402.213 15.2034 401.85 14.1074 402.213L-9.98065 410.204C-9.98065 410.204 -11.0753 410.567 -9.98065 410.93L14.1074 418.921C14.1074 418.921 15.2034 419.284 16.298 418.921L40.386 410.931ZM-18.3286 408.662C-18.3286 408.662 -17.7367 409.466 -16.55 409.066L9.57403 400.248C9.57403 400.248 10.7607 399.848 10.1687 399.043L-2.85533 381.358C-2.85533 381.358 -3.44732 380.554 -4.63532 380.955L-30.758 389.772C-30.758 389.772 -31.9447 390.173 -31.354 390.977L-18.3286 408.662ZM-69.9193 381.357C-69.9193 381.357 -69.3286 380.554 -68.1406 380.955L-42.018 389.772C-42.018 389.772 -40.83 390.173 -41.422 390.977L-54.446 408.662C-54.446 408.662 -55.038 409.466 -56.226 409.066L-82.3487 400.247C-82.3487 400.247 -83.5366 399.847 -82.9446 399.043L-69.9193 381.357ZM-62.7953 410.931C-62.7953 410.931 -61.7006 410.567 -62.7953 410.204L-86.8846 402.213C-86.8846 402.213 -87.9793 401.85 -89.074 402.213L-113.162 410.204C-113.162 410.204 -114.257 410.567 -113.162 410.93L-89.074 418.921C-89.074 418.921 -87.9793 419.284 -86.8846 418.921L-62.7953 410.931ZM-121.511 408.662C-121.511 408.662 -120.919 409.466 -119.731 409.066L-93.6086 400.248C-93.6086 400.248 -92.4207 399.848 -93.0127 399.043L-106.038 381.358C-106.038 381.358 -106.63 380.554 -107.817 380.955L-133.941 389.772C-133.941 389.772 -135.127 390.173 -134.535 390.977L-121.511 408.662ZM-114.387 8.99124C-114.387 8.99124 -113.293 8.62838 -114.387 8.26551L-138.475 0.274207C-138.475 0.274207 -139.57 -0.0886653 -140.666 0.274207L-164.754 8.26551C-164.754 8.26551 -165.849 8.62837 -164.754 8.99124L-140.666 16.9825C-140.666 16.9825 -139.57 17.3454 -138.475 16.9825L-114.387 8.99124ZM-217.57 8.99124C-217.57 8.99124 -216.474 8.62838 -217.57 8.26551L-241.658 0.274207C-241.658 0.274207 -242.753 -0.0886653 -243.847 0.274207L-267.935 8.26551C-267.935 8.26551 -269.03 8.62837 -267.935 8.99124L-243.847 16.9825C-243.847 16.9825 -242.753 17.3454 -241.658 16.9825L-217.57 8.99124ZM-173.102 10.3371C-173.102 10.3371 -172.51 9.53375 -171.323 9.93454L-145.199 18.7518C-145.199 18.7518 -144.013 19.1526 -144.605 19.9568L-157.629 37.6419C-157.629 37.6419 -158.221 38.4462 -159.409 38.0454L-185.531 29.2272C-185.531 29.2272 -186.719 28.8273 -186.127 28.0231L-173.102 10.3371ZM-209.221 72.1743C-209.221 72.1743 -209.811 71.37 -210.999 71.7717L-237.122 80.5889C-237.122 80.5889 -238.31 80.9888 -237.718 81.7931L-224.694 99.479C-224.694 99.479 -224.102 100.282 -222.914 99.8816L-196.791 91.0644C-196.791 91.0644 -195.603 90.6636 -196.195 89.8593L-209.221 72.1743ZM-312.402 72.1743C-312.402 72.1743 -312.994 71.37 -314.182 71.7717L-340.305 80.5889C-340.305 80.5889 -341.493 80.9888 -340.901 81.7931L-327.875 99.479C-327.875 99.479 -327.283 100.282 -326.097 99.8816L-299.973 91.0644C-299.973 91.0644 -298.786 90.6636 -299.378 89.8593L-312.402 72.1743ZM-276.285 10.3371C-276.285 10.3371 -275.693 9.53375 -274.505 9.93454L-248.382 18.7518C-248.382 18.7518 -247.195 19.1526 -247.786 19.9568L-260.811 37.6419C-260.811 37.6419 -261.403 38.4462 -262.59 38.0454L-288.714 29.2272C-288.714 29.2272 -289.901 28.8273 -289.309 28.0231L-276.285 10.3371ZM-276.285 68.5609C-276.285 68.5609 -275.693 69.3643 -274.505 68.9635L-248.382 60.1462C-248.382 60.1462 -247.195 59.7455 -247.786 58.9412L-260.811 41.2562C-260.811 41.2562 -261.403 40.4519 -262.59 40.8527L-288.714 49.6708C-288.714 49.6708 -289.901 50.0707 -289.309 50.875L-276.285 68.5609ZM-269.161 39.9103C-269.161 39.9103 -268.066 39.5465 -269.161 39.1836L-293.249 31.1923C-293.249 31.1923 -294.345 30.8294 -295.439 31.1923L-319.527 39.1836C-319.527 39.1836 -320.622 39.5465 -319.527 39.9094L-295.439 47.9007C-295.439 47.9007 -294.345 48.2636 -293.249 47.9007L-269.161 39.9103ZM-327.875 37.6419C-327.875 37.6419 -327.283 38.4462 -326.097 38.0454L-299.973 29.2281C-299.973 29.2281 -298.786 28.8273 -299.378 28.0231L-312.402 10.338C-312.402 10.338 -312.994 9.53375 -314.182 9.93454L-340.305 18.7518C-340.305 18.7518 -341.493 19.1526 -340.901 19.9568L-327.875 37.6419ZM-327.875 41.2562C-327.875 41.2562 -327.283 40.4519 -326.097 40.8527L-299.973 49.6699C-299.973 49.6699 -298.786 50.0707 -299.378 50.875L-312.402 68.56C-312.402 68.56 -312.994 69.3643 -314.182 68.9635L-340.305 60.1462C-340.305 60.1462 -341.493 59.7455 -340.901 58.9412L-327.875 41.2562ZM-320.751 8.99124C-320.751 8.99124 -319.657 8.62838 -320.751 8.26551L-344.841 0.274207C-344.841 0.274207 -345.935 -0.0886653 -347.03 0.274207L-371.118 8.26551C-371.118 8.26551 -372.213 8.62837 -371.118 8.99124L-347.03 16.9825C-347.03 16.9825 -345.935 17.3454 -344.841 16.9825L-320.751 8.99124ZM-320.751 70.8284C-320.751 70.8284 -319.657 70.4646 -320.751 70.1018L-344.841 62.1105C-344.841 62.1105 -345.935 61.7476 -347.03 62.1105L-371.118 70.1018C-371.118 70.1018 -372.213 70.4646 -371.118 70.8284L-347.03 78.8188C-347.03 78.8188 -345.935 79.1817 -344.841 78.8188L-320.751 70.8284ZM-173.102 130.398C-173.102 130.398 -172.51 131.201 -171.323 130.801L-145.199 121.983C-145.199 121.983 -144.013 121.583 -144.605 120.778L-157.629 103.093C-157.629 103.093 -158.221 102.289 -159.409 102.69L-185.531 111.508C-185.531 111.508 -186.719 111.908 -186.127 112.712L-173.102 130.398ZM-276.285 130.398C-276.285 130.398 -275.693 131.201 -274.505 130.801L-248.382 121.983C-248.382 121.983 -247.195 121.583 -247.786 120.778L-260.811 103.093C-260.811 103.093 -261.403 102.289 -262.59 102.69L-288.714 111.508C-288.714 111.508 -289.901 111.908 -289.309 112.712L-276.285 130.398ZM-327.875 103.092C-327.875 103.092 -327.283 102.289 -326.097 102.69L-299.973 111.507C-299.973 111.507 -298.786 111.908 -299.378 112.712L-312.402 130.397C-312.402 130.397 -312.994 131.201 -314.182 130.801L-340.305 121.982C-340.305 121.982 -341.493 121.583 -340.901 120.778L-327.875 103.092ZM-173.102 254.071C-173.102 254.071 -172.51 254.875 -171.323 254.474L-145.199 245.657C-145.199 245.657 -144.013 245.256 -144.605 244.452L-157.629 226.767C-157.629 226.767 -158.221 225.962 -159.409 226.363L-185.531 235.18C-185.531 235.18 -186.719 235.581 -186.127 236.386L-173.102 254.071ZM-224.694 226.766C-224.694 226.766 -224.102 225.962 -222.914 226.363L-196.791 235.18C-196.791 235.18 -195.603 235.581 -196.195 236.386L-209.221 254.071C-209.221 254.071 -209.811 254.875 -210.999 254.474L-237.122 245.656C-237.122 245.656 -238.31 245.256 -237.718 244.452L-224.694 226.766ZM-276.285 254.071C-276.285 254.071 -275.693 254.875 -274.505 254.474L-248.382 245.657C-248.382 245.657 -247.195 245.256 -247.786 244.452L-260.811 226.767C-260.811 226.767 -261.403 225.962 -262.59 226.363L-288.714 235.18C-288.714 235.18 -289.901 235.581 -289.309 236.386L-276.285 254.071ZM-327.875 226.766C-327.875 226.766 -327.283 225.962 -326.097 226.363L-299.973 235.18C-299.973 235.18 -298.786 235.581 -299.378 236.386L-312.402 254.071C-312.402 254.071 -312.994 254.875 -314.182 254.474L-340.305 245.656C-340.305 245.656 -341.493 245.256 -340.901 244.452L-327.875 226.766ZM-173.102 377.744C-173.102 377.744 -172.51 378.548 -171.323 378.147L-145.199 369.33C-145.199 369.33 -144.013 368.929 -144.605 368.125L-157.629 350.439C-157.629 350.439 -158.221 349.636 -159.409 350.037L-185.531 358.854C-185.531 358.854 -186.719 359.255 -186.127 360.059L-173.102 377.744ZM-224.694 350.439C-224.694 350.439 -224.102 349.636 -222.914 350.037L-196.791 358.854C-196.791 358.854 -195.603 359.255 -196.195 360.058L-209.221 377.744C-209.221 377.744 -209.811 378.548 -210.999 378.147L-237.122 369.329C-237.122 369.329 -238.31 368.929 -237.718 368.125L-224.694 350.439ZM-276.285 377.744C-276.285 377.744 -275.693 378.548 -274.505 378.147L-248.382 369.33C-248.382 369.33 -247.195 368.929 -247.786 368.125L-260.811 350.439C-260.811 350.439 -261.403 349.636 -262.59 350.037L-288.714 358.854C-288.714 358.854 -289.901 359.255 -289.309 360.059L-276.285 377.744ZM-327.875 350.439C-327.875 350.439 -327.283 349.636 -326.097 350.037L-299.973 358.854C-299.973 358.854 -298.786 359.255 -299.378 360.058L-312.402 377.744C-312.402 377.744 -312.994 378.548 -314.182 378.147L-340.305 369.329C-340.305 369.329 -341.493 368.929 -340.901 368.125L-327.875 350.439ZM-173.102 134.011C-173.102 134.011 -172.51 133.207 -171.323 133.608L-145.199 142.425C-145.199 142.425 -144.013 142.826 -144.605 143.63L-157.629 161.315C-157.629 161.315 -158.221 162.12 -159.409 161.719L-185.531 152.902C-185.531 152.902 -186.719 152.501 -186.127 151.696L-173.102 134.011ZM-217.57 194.502C-217.57 194.502 -216.474 194.138 -217.57 193.775L-241.658 185.785C-241.658 185.785 -242.753 185.421 -243.847 185.785L-267.935 193.775C-267.935 193.775 -269.03 194.138 -267.935 194.502L-243.847 202.492C-243.847 202.492 -242.753 202.856 -241.658 202.492L-217.57 194.502ZM-173.102 192.234C-173.102 192.234 -172.51 193.038 -171.323 192.637L-145.199 183.82C-145.199 183.82 -144.013 183.419 -144.605 182.616L-157.629 164.93C-157.629 164.93 -158.221 164.125 -159.409 164.526L-185.531 173.344C-185.531 173.344 -186.719 173.745 -186.127 174.548L-173.102 192.234ZM-173.102 195.848C-173.102 195.848 -172.51 195.044 -171.323 195.445L-145.199 204.262C-145.199 204.262 -144.013 204.663 -144.605 205.467L-157.629 223.152C-157.629 223.152 -158.221 223.956 -159.409 223.555L-185.531 214.738C-185.531 214.738 -186.719 214.337 -186.127 213.533L-173.102 195.848ZM-276.285 195.848C-276.285 195.848 -275.693 195.044 -274.505 195.445L-248.382 204.262C-248.382 204.262 -247.195 204.663 -247.786 205.467L-260.811 223.152C-260.811 223.152 -261.403 223.956 -262.59 223.555L-288.714 214.738C-288.714 214.738 -289.901 214.337 -289.309 213.533L-276.285 195.848ZM-209.221 195.848C-209.221 195.848 -209.811 195.044 -210.999 195.445L-237.122 204.262C-237.122 204.262 -238.31 204.663 -237.718 205.467L-224.694 223.152C-224.694 223.152 -224.102 223.956 -222.914 223.555L-196.791 214.738C-196.791 214.738 -195.603 214.337 -196.195 213.533L-209.221 195.848ZM-312.402 195.848C-312.402 195.848 -312.994 195.044 -314.182 195.445L-340.305 204.262C-340.305 204.262 -341.493 204.663 -340.901 205.467L-327.875 223.152C-327.875 223.152 -327.283 223.956 -326.097 223.555L-299.973 214.738C-299.973 214.738 -298.786 214.337 -299.378 213.533L-312.402 195.848ZM-165.978 163.584C-165.978 163.584 -164.883 163.22 -165.978 162.857L-190.067 154.866C-190.067 154.866 -191.162 154.503 -192.257 154.866L-216.345 162.857C-216.345 162.857 -217.439 163.22 -216.345 163.584L-192.257 171.574C-192.257 171.574 -191.162 171.937 -190.067 171.574L-165.978 163.584ZM-224.694 161.316C-224.694 161.316 -224.102 162.12 -222.914 161.719L-196.791 152.902C-196.791 152.902 -195.603 152.501 -196.195 151.696L-209.221 134.011C-209.221 134.011 -209.811 133.207 -210.999 133.608L-237.122 142.426C-237.122 142.426 -238.31 142.826 -237.718 143.63L-224.694 161.316ZM-224.694 164.93C-224.694 164.93 -224.102 164.125 -222.914 164.526L-196.791 173.344C-196.791 173.344 -195.603 173.744 -196.195 174.548L-209.221 192.234C-209.221 192.234 -209.811 193.038 -210.999 192.637L-237.122 183.82C-237.122 183.82 -238.31 183.419 -237.718 182.615L-224.694 164.93ZM-276.285 134.011C-276.285 134.011 -275.693 133.207 -274.505 133.608L-248.382 142.425C-248.382 142.425 -247.195 142.826 -247.786 143.63L-260.811 161.315C-260.811 161.315 -261.403 162.12 -262.59 161.719L-288.714 152.902C-288.714 152.902 -289.901 152.501 -289.309 151.696L-276.285 134.011ZM-276.285 192.234C-276.285 192.234 -275.693 193.038 -274.505 192.637L-248.382 183.82C-248.382 183.82 -247.195 183.419 -247.786 182.616L-260.811 164.93C-260.811 164.93 -261.403 164.125 -262.59 164.526L-288.714 173.344C-288.714 173.344 -289.901 173.745 -289.309 174.548L-276.285 192.234ZM-269.161 163.584C-269.161 163.584 -268.066 163.22 -269.161 162.857L-293.249 154.866C-293.249 154.866 -294.345 154.503 -295.439 154.866L-319.527 162.857C-319.527 162.857 -320.622 163.22 -319.527 163.584L-295.439 171.574C-295.439 171.574 -294.345 171.937 -293.249 171.574L-269.161 163.584ZM-327.875 161.316C-327.875 161.316 -327.283 162.12 -326.097 161.719L-299.973 152.902C-299.973 152.902 -298.786 152.501 -299.378 151.696L-312.402 134.011C-312.402 134.011 -312.994 133.207 -314.182 133.608L-340.305 142.426C-340.305 142.426 -341.493 142.826 -340.901 143.63L-327.875 161.316ZM-327.875 164.93C-327.875 164.93 -327.283 164.125 -326.097 164.526L-299.973 173.344C-299.973 173.344 -298.786 173.744 -299.378 174.548L-312.402 192.234C-312.402 192.234 -312.994 193.038 -314.182 192.637L-340.305 183.82C-340.305 183.82 -341.493 183.419 -340.901 182.615L-327.875 164.93ZM-320.751 132.665C-320.751 132.665 -319.657 132.302 -320.751 131.939L-344.841 123.948C-344.841 123.948 -345.935 123.585 -347.03 123.948L-371.118 131.939C-371.118 131.939 -372.213 132.302 -371.118 132.665L-347.03 140.656C-347.03 140.656 -345.935 141.019 -344.841 140.656L-320.751 132.665ZM-320.751 194.502C-320.751 194.502 -319.657 194.138 -320.751 193.775L-344.841 185.785C-344.841 185.785 -345.935 185.421 -347.03 185.785L-371.118 193.775C-371.118 193.775 -372.213 194.138 -371.118 194.502L-347.03 202.492C-347.03 202.492 -345.935 202.856 -344.841 202.492L-320.751 194.502ZM-114.387 256.338C-114.387 256.338 -113.293 255.975 -114.387 255.611L-138.475 247.621C-138.475 247.621 -139.57 247.258 -140.666 247.621L-164.754 255.612C-164.754 255.612 -165.849 255.975 -164.754 256.338L-140.666 264.329C-140.666 264.329 -139.57 264.692 -138.475 264.329L-114.387 256.338ZM-217.57 256.338C-217.57 256.338 -216.474 255.975 -217.57 255.611L-241.658 247.621C-241.658 247.621 -242.753 247.258 -243.847 247.621L-267.935 255.612C-267.935 255.612 -269.03 255.975 -267.935 256.338L-243.847 264.329C-243.847 264.329 -242.753 264.692 -241.658 264.329L-217.57 256.338ZM-173.102 257.685C-173.102 257.685 -172.51 256.881 -171.323 257.281L-145.199 266.099C-145.199 266.099 -144.013 266.499 -144.605 267.304L-157.629 284.989C-157.629 284.989 -158.221 285.793 -159.409 285.392L-185.531 276.574C-185.531 276.574 -186.719 276.174 -186.127 275.37L-173.102 257.685ZM-114.387 318.175C-114.387 318.175 -113.293 317.811 -114.387 317.449L-138.475 309.458C-138.475 309.458 -139.57 309.094 -140.666 309.458L-164.754 317.449C-164.754 317.449 -165.849 317.811 -164.754 318.175L-140.666 326.166C-140.666 326.166 -139.57 326.529 -138.475 326.166L-114.387 318.175ZM-217.57 318.175C-217.57 318.175 -216.474 317.811 -217.57 317.449L-241.658 309.458C-241.658 309.458 -242.753 309.094 -243.847 309.458L-267.935 317.449C-267.935 317.449 -269.03 317.811 -267.935 318.175L-243.847 326.166C-243.847 326.166 -242.753 326.529 -241.658 326.166L-217.57 318.175ZM-173.102 315.908C-173.102 315.908 -172.51 316.711 -171.323 316.31L-145.199 307.493C-145.199 307.493 -144.013 307.092 -144.605 306.288L-157.629 288.603C-157.629 288.603 -158.221 287.799 -159.409 288.199L-185.531 297.018C-185.531 297.018 -186.719 297.418 -186.127 298.222L-173.102 315.908ZM-173.102 319.521C-173.102 319.521 -172.51 318.717 -171.323 319.119L-145.199 327.936C-145.199 327.936 -144.013 328.337 -144.605 329.14L-157.629 346.826C-157.629 346.826 -158.221 347.629 -159.409 347.228L-185.531 338.411C-185.531 338.411 -186.719 338.01 -186.127 337.206L-173.102 319.521ZM-276.285 319.521C-276.285 319.521 -275.693 318.717 -274.505 319.119L-248.382 327.936C-248.382 327.936 -247.195 328.337 -247.786 329.14L-260.811 346.826C-260.811 346.826 -261.403 347.629 -262.59 347.228L-288.714 338.411C-288.714 338.411 -289.901 338.01 -289.309 337.206L-276.285 319.521ZM-209.221 319.521C-209.221 319.521 -209.811 318.717 -210.999 319.119L-237.122 327.936C-237.122 327.936 -238.31 328.337 -237.718 329.14L-224.694 346.826C-224.694 346.826 -224.102 347.629 -222.914 347.228L-196.791 338.411C-196.791 338.411 -195.603 338.01 -196.195 337.206L-209.221 319.521ZM-312.402 319.521C-312.402 319.521 -312.994 318.717 -314.182 319.119L-340.305 327.936C-340.305 327.936 -341.493 328.337 -340.901 329.14L-327.875 346.826C-327.875 346.826 -327.283 347.629 -326.097 347.228L-299.973 338.411C-299.973 338.411 -298.786 338.01 -299.378 337.206L-312.402 319.521ZM-165.978 287.257C-165.978 287.257 -164.883 286.893 -165.978 286.53L-190.067 278.539C-190.067 278.539 -191.162 278.176 -192.257 278.539L-216.345 286.53C-216.345 286.53 -217.439 286.893 -216.345 287.257L-192.257 295.247C-192.257 295.247 -191.162 295.61 -190.067 295.247L-165.978 287.257ZM-224.694 284.99C-224.694 284.99 -224.102 285.793 -222.914 285.392L-196.791 276.575C-196.791 276.575 -195.603 276.174 -196.195 275.37L-209.221 257.685C-209.221 257.685 -209.811 256.881 -210.999 257.281L-237.122 266.099C-237.122 266.099 -238.31 266.499 -237.718 267.304L-224.694 284.99ZM-224.694 288.603C-224.694 288.603 -224.102 287.799 -222.914 288.199L-196.791 297.017C-196.791 297.017 -195.603 297.418 -196.195 298.222L-209.221 315.908C-209.221 315.908 -209.811 316.711 -210.999 316.31L-237.122 307.493C-237.122 307.493 -238.31 307.092 -237.718 306.288L-224.694 288.603ZM-276.285 257.685C-276.285 257.685 -275.693 256.881 -274.505 257.281L-248.382 266.099C-248.382 266.099 -247.195 266.499 -247.786 267.304L-260.811 284.989C-260.811 284.989 -261.403 285.793 -262.59 285.392L-288.714 276.574C-288.714 276.574 -289.901 276.174 -289.309 275.37L-276.285 257.685ZM-276.285 315.908C-276.285 315.908 -275.693 316.711 -274.505 316.31L-248.382 307.493C-248.382 307.493 -247.195 307.092 -247.786 306.288L-260.811 288.603C-260.811 288.603 -261.403 287.799 -262.59 288.199L-288.714 297.018C-288.714 297.018 -289.901 297.418 -289.309 298.222L-276.285 315.908ZM-269.161 287.257C-269.161 287.257 -268.066 286.893 -269.161 286.53L-293.249 278.539C-293.249 278.539 -294.345 278.176 -295.439 278.539L-319.527 286.53C-319.527 286.53 -320.622 286.893 -319.527 287.257L-295.439 295.247C-295.439 295.247 -294.345 295.61 -293.249 295.247L-269.161 287.257ZM-327.875 284.99C-327.875 284.99 -327.283 285.793 -326.097 285.392L-299.973 276.575C-299.973 276.575 -298.786 276.174 -299.378 275.37L-312.402 257.685C-312.402 257.685 -312.994 256.881 -314.182 257.281L-340.305 266.099C-340.305 266.099 -341.493 266.499 -340.901 267.304L-327.875 284.99ZM-327.875 288.603C-327.875 288.603 -327.283 287.799 -326.097 288.199L-299.973 297.017C-299.973 297.017 -298.786 297.418 -299.378 298.222L-312.402 315.908C-312.402 315.908 -312.994 316.711 -314.182 316.31L-340.305 307.493C-340.305 307.493 -341.493 307.092 -340.901 306.288L-327.875 288.603ZM-320.751 256.338C-320.751 256.338 -319.657 255.975 -320.751 255.611L-344.841 247.621C-344.841 247.621 -345.935 247.258 -347.03 247.621L-371.118 255.612C-371.118 255.612 -372.213 255.975 -371.118 256.338L-347.03 264.329C-347.03 264.329 -345.935 264.692 -344.841 264.329L-320.751 256.338ZM-320.751 318.175C-320.751 318.175 -319.657 317.811 -320.751 317.449L-344.841 309.458C-344.841 309.458 -345.935 309.094 -347.03 309.458L-371.118 317.449C-371.118 317.449 -372.213 317.811 -371.118 318.175L-347.03 326.166C-347.03 326.166 -345.935 326.529 -344.841 326.166L-320.751 318.175ZM-114.387 380.011C-114.387 380.011 -113.293 379.649 -114.387 379.285L-138.475 371.294C-138.475 371.294 -139.57 370.932 -140.666 371.294L-164.754 379.286C-164.754 379.286 -165.849 379.649 -164.754 380.011L-140.666 388.002C-140.666 388.002 -139.57 388.366 -138.475 388.002L-114.387 380.011ZM-217.57 380.011C-217.57 380.011 -216.474 379.649 -217.57 379.285L-241.658 371.294C-241.658 371.294 -242.753 370.932 -243.847 371.294L-267.935 379.286C-267.935 379.286 -269.03 379.649 -267.935 380.011L-243.847 388.002C-243.847 388.002 -242.753 388.366 -241.658 388.002L-217.57 380.011ZM-173.102 381.357C-173.102 381.357 -172.51 380.554 -171.323 380.955L-145.199 389.772C-145.199 389.772 -144.013 390.173 -144.605 390.977L-157.629 408.662C-157.629 408.662 -158.221 409.466 -159.409 409.066L-185.531 400.247C-185.531 400.247 -186.719 399.847 -186.127 399.043L-173.102 381.357ZM-165.978 410.931C-165.978 410.931 -164.883 410.567 -165.978 410.204L-190.067 402.213C-190.067 402.213 -191.162 401.85 -192.257 402.213L-216.345 410.204C-216.345 410.204 -217.439 410.567 -216.345 410.93L-192.257 418.921C-192.257 418.921 -191.162 419.284 -190.067 418.921L-165.978 410.931ZM-224.694 408.662C-224.694 408.662 -224.102 409.466 -222.914 409.066L-196.791 400.248C-196.791 400.248 -195.603 399.848 -196.195 399.043L-209.221 381.358C-209.221 381.358 -209.811 380.554 -210.999 380.955L-237.122 389.772C-237.122 389.772 -238.31 390.173 -237.718 390.977L-224.694 408.662ZM-276.285 381.357C-276.285 381.357 -275.693 380.554 -274.505 380.955L-248.382 389.772C-248.382 389.772 -247.195 390.173 -247.786 390.977L-260.811 408.662C-260.811 408.662 -261.403 409.466 -262.59 409.066L-288.714 400.247C-288.714 400.247 -289.901 399.847 -289.309 399.043L-276.285 381.357ZM-269.161 410.931C-269.161 410.931 -268.066 410.567 -269.161 410.204L-293.249 402.213C-293.249 402.213 -294.345 401.85 -295.439 402.213L-319.527 410.204C-319.527 410.204 -320.622 410.567 -319.527 410.93L-295.439 418.921C-295.439 418.921 -294.345 419.284 -293.249 418.921L-269.161 410.931ZM-327.875 408.662C-327.875 408.662 -327.283 409.466 -326.097 409.066L-299.973 400.248C-299.973 400.248 -298.786 399.848 -299.378 399.043L-312.402 381.358C-312.402 381.358 -312.994 380.554 -314.182 380.955L-340.305 389.772C-340.305 389.772 -341.493 390.173 -340.901 390.977L-327.875 408.662ZM-320.751 380.011C-320.751 380.011 -319.657 379.649 -320.751 379.285L-344.841 371.294C-344.841 371.294 -345.935 370.932 -347.03 371.294L-371.118 379.286C-371.118 379.286 -372.213 379.649 -371.118 380.011L-347.03 388.002C-347.03 388.002 -345.935 388.366 -344.841 388.002L-320.751 380.011Z" stroke="#A7A5A6" stroke-width="0.8" stroke-miterlimit="10"/>
</g>
<defs>
<clipPath id="clip0_2936_610">
<rect width="516.451" height="209.597" fill="white" transform="translate(-372)"/>
</clipPath>
</defs>
</svg>
