<svg width="149" height="310" viewBox="0 0 149 310" fill="none" xmlns="http://www.w3.org/2000/svg">
<g clip-path="url(#clip0_2936_404)">
<path d="M147.307 152.279C147.307 152.279 147.899 151.092 149.086 151.684L175.21 164.708C175.21 164.708 176.396 165.3 175.806 166.487L162.78 192.611C162.78 192.611 162.188 193.798 161.002 193.207L134.878 180.182C134.878 180.182 133.691 179.59 134.282 178.403L147.307 152.279Z" fill="#686FAF" fill-opacity="0.5"/>
<path d="M147.307 55.6016C147.307 55.6016 147.899 56.7896 149.086 56.1963L175.21 43.1723C175.21 43.1723 176.396 42.5803 175.806 41.3936L162.78 15.2696C162.78 15.2696 162.188 14.083 161.002 14.675L134.878 27.699C134.878 27.699 133.691 28.291 134.282 29.4776L147.307 55.6016Z" fill="#686FAF" fill-opacity="0.3"/>
<path d="M102.84 150.291C102.84 150.291 103.934 149.755 102.84 149.218L78.7518 137.415C78.7518 137.415 77.6558 136.878 76.5611 137.415L52.4731 149.218C52.4731 149.218 51.3784 149.755 52.4731 150.291L76.5611 162.094C76.5611 162.094 77.6558 162.631 78.7518 162.094L102.84 150.291Z" fill="#B5B4D3"/>
<path d="M154.431 104.621C154.431 104.621 155.525 104.085 154.431 103.547L130.343 91.7446C130.343 91.7446 129.247 91.2073 128.152 91.7446L104.064 103.547C104.064 103.547 102.969 104.085 104.064 104.621L128.152 116.423C128.152 116.423 129.247 116.961 130.343 116.423L154.431 104.621Z" fill="#B5B4D3"/>
<path d="M95.7156 106.609C95.7156 106.609 96.3076 105.422 97.4942 106.014L123.618 119.038C123.618 119.038 124.805 119.63 124.214 120.817L111.189 146.941C111.189 146.941 110.597 148.127 109.41 147.537L83.2862 134.511C83.2862 134.511 82.0996 133.919 82.6902 132.733L95.7156 106.609Z" fill="#B5B4D3"/>
<path d="M147.307 60.9391C147.307 60.9391 147.899 59.7525 149.086 60.3445L175.21 73.3685C175.21 73.3685 176.396 73.9605 175.806 75.1472L162.78 101.271C162.78 101.271 162.188 102.458 161.002 101.867L134.878 88.8418C134.878 88.8418 133.691 88.2498 134.282 87.0631L147.307 60.9391Z" fill="#B5B4D3"/>
<path d="M154.431 195.96C154.431 195.96 155.525 195.424 154.431 194.887L130.343 183.084C130.343 183.084 129.247 182.547 128.152 183.084L104.064 194.887C104.064 194.887 102.969 195.424 104.064 195.96L128.152 207.763C128.152 207.763 129.247 208.3 130.343 207.763L154.431 195.96Z" fill="#686FAF" fill-opacity="0.5"/>
<path d="M154.431 195.96C154.431 195.96 155.525 195.424 154.431 194.887L130.343 183.084C130.343 183.084 129.247 182.547 128.152 183.084L104.064 194.887C104.064 194.887 102.969 195.424 104.064 195.96L128.152 207.763C128.152 207.763 129.247 208.3 130.343 207.763L154.431 195.96Z" stroke="#686FAF" stroke-opacity="0.5" stroke-width="1.33333" stroke-miterlimit="10"/>
<path d="M515.569 58.9517C515.569 58.9517 516.663 58.4157 515.569 57.8784L491.481 46.0757C491.481 46.0757 490.385 45.5384 489.29 46.0757L465.202 57.8784C465.202 57.8784 464.107 58.4157 465.202 58.9517L489.29 70.7544C489.29 70.7544 490.385 71.2917 491.481 70.7544L515.569 58.9517ZM456.854 55.6024C456.854 55.6024 457.445 56.7891 458.633 56.1971L484.755 43.173C484.755 43.173 485.943 42.581 485.351 41.3944L472.327 15.2704C472.327 15.2704 471.735 14.0837 470.547 14.6744L444.425 27.6997C444.425 27.6997 443.237 28.2917 443.829 29.4784L456.854 55.6024ZM456.854 60.9397C456.854 60.9397 457.445 59.753 458.633 60.345L484.755 73.3691C484.755 73.3691 485.943 73.961 485.351 75.1477L472.327 101.272C472.327 101.272 471.735 102.458 470.547 101.868L444.425 88.8424C444.425 88.8424 443.237 88.2504 443.829 87.0637L456.854 60.9397ZM515.569 150.29C515.569 150.29 516.663 149.754 515.569 149.218L491.481 137.414C491.481 137.414 490.385 136.878 489.29 137.414L465.202 149.218C465.202 149.218 464.107 149.754 465.202 150.29L489.29 162.094C489.29 162.094 490.385 162.63 491.481 162.094L515.569 150.29ZM456.854 146.941C456.854 146.941 457.445 148.129 458.633 147.537L484.755 134.513C484.755 134.513 485.943 133.921 485.351 132.733L472.327 106.61C472.327 106.61 471.735 105.422 470.547 106.014L444.425 119.038C444.425 119.038 443.237 119.63 443.829 120.818L456.854 146.941ZM456.854 152.278C456.854 152.278 457.445 151.092 458.633 151.684L484.755 164.708C484.755 164.708 485.943 165.3 485.351 166.488L472.327 192.61C472.327 192.61 471.735 193.798 470.547 193.206L444.425 180.181C444.425 180.181 443.237 179.59 443.829 178.402L456.854 152.278ZM472.327 289.288C472.327 289.288 471.735 288.101 470.547 288.693L444.425 301.717C444.425 301.717 443.237 302.309 443.829 303.496L456.854 329.62C456.854 329.62 457.445 330.806 458.633 330.216L484.755 317.19C484.755 317.19 485.943 316.598 485.351 315.412L472.327 289.288ZM369.145 289.288C369.145 289.288 368.553 288.101 367.365 288.693L341.242 301.717C341.242 301.717 340.055 302.309 340.646 303.496L353.671 329.62C353.671 329.62 354.263 330.806 355.45 330.216L381.574 317.19C381.574 317.19 382.761 316.598 382.169 315.412L369.145 289.288ZM265.962 289.288C265.962 289.288 265.37 288.101 264.183 288.693L238.059 301.717C238.059 301.717 236.873 302.309 237.465 303.496L250.489 329.62C250.489 329.62 251.081 330.806 252.269 330.216L278.391 317.19C278.391 317.19 279.579 316.598 278.987 315.412L265.962 289.288ZM515.569 241.63C515.569 241.63 516.663 241.093 515.569 240.557L491.481 228.754C491.481 228.754 490.385 228.217 489.29 228.754L465.202 240.557C465.202 240.557 464.107 241.093 465.202 241.63L489.29 253.433C489.29 253.433 490.385 253.97 491.481 253.433L515.569 241.63ZM456.854 238.281C456.854 238.281 457.445 239.468 458.633 238.876L484.755 225.852C484.755 225.852 485.943 225.26 485.351 224.072L472.327 197.949C472.327 197.949 471.735 196.761 470.547 197.353L444.425 210.378C444.425 210.378 443.237 210.97 443.829 212.157L456.854 238.281ZM456.854 243.618C456.854 243.618 457.445 242.432 458.633 243.024L484.755 256.048C484.755 256.048 485.943 256.64 485.351 257.826L472.327 283.95C472.327 283.95 471.735 285.137 470.547 284.545L444.425 271.521C444.425 271.521 443.237 270.929 443.829 269.741L456.854 243.618ZM250.489 55.6024C250.489 55.6024 251.081 56.7891 252.269 56.1971L278.391 43.173C278.391 43.173 279.579 42.581 278.987 41.3944L265.962 15.2704C265.962 15.2704 265.37 14.0837 264.183 14.6744L238.059 27.6997C238.059 27.6997 236.873 28.2917 237.465 29.4784L250.489 55.6024ZM317.554 60.9397C317.554 60.9397 316.962 59.753 315.774 60.345L289.651 73.3691C289.651 73.3691 288.463 73.961 289.055 75.1477L302.081 101.272C302.081 101.272 302.671 102.458 303.859 101.868L329.982 88.8424C329.982 88.8424 331.17 88.2504 330.578 87.0637L317.554 60.9397ZM353.671 146.941C353.671 146.941 354.263 148.129 355.45 147.537L381.574 134.513C381.574 134.513 382.761 133.921 382.169 132.733L369.145 106.61C369.145 106.61 368.553 105.422 367.365 106.014L341.242 119.038C341.242 119.038 340.055 119.63 340.646 120.818L353.671 146.941ZM420.735 152.278C420.735 152.278 420.143 151.092 418.957 151.684L392.833 164.708C392.833 164.708 391.646 165.3 392.238 166.488L405.262 192.61C405.262 192.61 405.854 193.798 407.042 193.206L433.165 180.181C433.165 180.181 434.353 179.59 433.761 178.402L420.735 152.278ZM463.978 195.961C463.978 195.961 465.073 195.424 463.978 194.888L439.889 183.084C439.889 183.084 438.794 182.548 437.699 183.084L413.611 194.888C413.611 194.888 412.517 195.424 413.611 195.96L437.699 207.764C437.699 207.764 438.794 208.3 439.889 207.764L463.978 195.961ZM405.262 197.949C405.262 197.949 405.854 196.761 407.042 197.353L433.165 210.377C433.165 210.377 434.353 210.969 433.761 212.157L420.735 238.28C420.735 238.28 420.143 239.468 418.957 238.876L392.833 225.852C392.833 225.852 391.646 225.26 392.238 224.072L405.262 197.949ZM463.978 287.3C463.978 287.3 465.073 286.764 463.978 286.226L439.889 274.424C439.889 274.424 438.794 273.886 437.699 274.424L413.611 286.226C413.611 286.226 412.517 286.764 413.611 287.3L437.699 299.102C437.699 299.102 438.794 299.64 439.889 299.102L463.978 287.3ZM360.795 287.3C360.795 287.3 361.89 286.764 360.795 286.226L336.707 274.424C336.707 274.424 335.611 273.886 334.517 274.424L310.429 286.226C310.429 286.226 309.334 286.764 310.429 287.3L334.517 299.102C334.517 299.102 335.611 299.64 336.707 299.102L360.795 287.3ZM405.262 283.95C405.262 283.95 405.854 285.137 407.042 284.545L433.165 271.521C433.165 271.521 434.353 270.929 433.761 269.742L420.735 243.618C420.735 243.618 420.143 242.432 418.957 243.022L392.833 256.048C392.833 256.048 391.646 256.64 392.238 257.826L405.262 283.95ZM405.262 289.288C405.262 289.288 405.854 288.101 407.042 288.693L433.165 301.717C433.165 301.717 434.353 302.309 433.761 303.496L420.735 329.62C420.735 329.62 420.143 330.806 418.957 330.216L392.833 317.19C392.833 317.19 391.646 316.598 392.238 315.412L405.262 289.288ZM302.081 289.288C302.081 289.288 302.671 288.101 303.859 288.693L329.982 301.717C329.982 301.717 331.17 302.309 330.578 303.496L317.554 329.62C317.554 329.62 316.962 330.806 315.774 330.216L289.651 317.19C289.651 317.19 288.463 316.598 289.055 315.412L302.081 289.288ZM412.386 241.63C412.386 241.63 413.482 241.093 412.386 240.557L388.298 228.754C388.298 228.754 387.203 228.217 386.107 228.754L362.019 240.557C362.019 240.557 360.925 241.093 362.019 241.63L386.107 253.433C386.107 253.433 387.203 253.97 388.298 253.433L412.386 241.63ZM353.671 243.618C353.671 243.618 354.263 242.432 355.45 243.024L381.574 256.048C381.574 256.048 382.761 256.64 382.169 257.826L369.145 283.95C369.145 283.95 368.553 285.137 367.365 284.545L341.242 271.521C341.242 271.521 340.055 270.929 340.646 269.741L353.671 243.618ZM302.081 283.95C302.081 283.95 302.671 285.137 303.859 284.545L329.982 271.521C329.982 271.521 331.17 270.929 330.578 269.742L317.554 243.618C317.554 243.618 316.962 242.432 315.774 243.022L289.651 256.048C289.651 256.048 288.463 256.64 289.055 257.826L302.081 283.95ZM250.489 238.281C250.489 238.281 251.081 239.468 252.269 238.876L278.391 225.852C278.391 225.852 279.579 225.26 278.987 224.072L265.962 197.949C265.962 197.949 265.37 196.761 264.183 197.353L238.059 210.378C238.059 210.378 236.873 210.97 237.465 212.157L250.489 238.281ZM472.327 380.628C472.327 380.628 471.735 379.44 470.547 380.032L444.425 393.056C444.425 393.056 443.237 393.648 443.829 394.836L456.854 420.958C456.854 420.958 457.445 422.146 458.633 421.554L484.755 408.529C484.755 408.529 485.943 407.938 485.351 406.75L472.327 380.628ZM369.145 380.628C369.145 380.628 368.553 379.44 367.365 380.032L341.242 393.056C341.242 393.056 340.055 393.648 340.646 394.836L353.671 420.958C353.671 420.958 354.263 422.146 355.45 421.554L381.574 408.529C381.574 408.529 382.761 407.938 382.169 406.75L369.145 380.628ZM265.962 380.628C265.962 380.628 265.37 379.44 264.183 380.032L238.059 393.056C238.059 393.056 236.873 393.648 237.465 394.836L250.489 420.958C250.489 420.958 251.081 422.146 252.269 421.554L278.391 408.529C278.391 408.529 279.579 407.938 278.987 406.75L265.962 380.628ZM456.854 334.957C456.854 334.957 457.445 333.77 458.633 334.362L484.755 347.386C484.755 347.386 485.943 347.978 485.351 349.166L472.327 375.289C472.327 375.289 471.735 376.477 470.547 375.885L444.425 362.86C444.425 362.86 443.237 362.269 443.829 361.081L456.854 334.957ZM463.978 378.638C463.978 378.638 465.073 378.102 463.978 377.565L439.889 365.762C439.889 365.762 438.794 365.226 437.699 365.762L413.611 377.566C413.611 377.566 412.517 378.102 413.611 378.638L437.699 390.442C437.699 390.442 438.794 390.978 439.889 390.442L463.978 378.638ZM360.795 378.638C360.795 378.638 361.89 378.102 360.795 377.565L336.707 365.762C336.707 365.762 335.611 365.226 334.517 365.762L310.429 377.566C310.429 377.566 309.334 378.102 310.429 378.638L334.517 390.442C334.517 390.442 335.611 390.978 336.707 390.442L360.795 378.638ZM405.262 375.29C405.262 375.29 405.854 376.477 407.042 375.885L433.165 362.861C433.165 362.861 434.353 362.269 433.761 361.081L420.735 334.958C420.735 334.958 420.143 333.77 418.957 334.362L392.833 347.386C392.833 347.386 391.646 347.978 392.238 349.166L405.262 375.29ZM405.262 380.628C405.262 380.628 405.854 379.44 407.042 380.032L433.165 393.056C433.165 393.056 434.353 393.648 433.761 394.836L420.735 420.958C420.735 420.958 420.143 422.146 418.957 421.554L392.833 408.529C392.833 408.529 391.646 407.938 392.238 406.75L405.262 380.628ZM302.081 380.628C302.081 380.628 302.671 379.44 303.859 380.032L329.982 393.056C329.982 393.056 331.17 393.648 330.578 394.836L317.554 420.958C317.554 420.958 316.962 422.146 315.774 421.554L289.651 408.529C289.651 408.529 288.463 407.938 289.055 406.75L302.081 380.628ZM353.671 334.957C353.671 334.957 354.263 333.77 355.45 334.362L381.574 347.386C381.574 347.386 382.761 347.978 382.169 349.166L369.145 375.289C369.145 375.289 368.553 376.477 367.365 375.885L341.242 362.86C341.242 362.86 340.055 362.269 340.646 361.081L353.671 334.957ZM302.081 375.29C302.081 375.29 302.671 376.477 303.859 375.885L329.982 362.861C329.982 362.861 331.17 362.269 330.578 361.081L317.554 334.958C317.554 334.958 316.962 333.77 315.774 334.362L289.651 347.386C289.651 347.386 288.463 347.978 289.055 349.166L302.081 375.29ZM250.489 334.957C250.489 334.957 251.081 333.77 252.269 334.362L278.391 347.386C278.391 347.386 279.579 347.978 278.987 349.166L265.962 375.289C265.962 375.289 265.37 376.477 264.183 375.885L238.059 362.86C238.059 362.86 236.873 362.269 237.465 361.081L250.489 334.957ZM515.569 332.969C515.569 332.969 516.663 332.433 515.569 331.896L491.481 320.093C491.481 320.093 490.385 319.556 489.29 320.093L465.202 331.896C465.202 331.896 464.107 332.433 465.202 332.969L489.29 344.773C489.29 344.773 490.385 345.309 491.481 344.773L515.569 332.969ZM412.386 332.969C412.386 332.969 413.482 332.433 412.386 331.896L388.298 320.093C388.298 320.093 387.203 319.556 386.107 320.093L362.019 331.896C362.019 331.896 360.925 332.433 362.019 332.969L386.107 344.773C386.107 344.773 387.203 345.309 388.298 344.773L412.386 332.969ZM309.205 332.969C309.205 332.969 310.299 332.433 309.205 331.896L285.115 320.093C285.115 320.093 284.021 319.556 282.926 320.093L258.838 331.896C258.838 331.896 257.743 332.433 258.838 332.969L282.926 344.773C282.926 344.773 284.021 345.309 285.115 344.773L309.205 332.969ZM515.569 424.309C515.569 424.309 516.663 423.772 515.569 423.236L491.481 411.432C491.481 411.432 490.385 410.896 489.29 411.432L465.202 423.236C465.202 423.236 464.107 423.772 465.202 424.309L489.29 436.112C489.29 436.112 490.385 436.648 491.481 436.112L515.569 424.309ZM456.854 426.297C456.854 426.297 457.445 425.109 458.633 425.701L484.755 438.725C484.755 438.725 485.943 439.317 485.351 440.505L472.327 466.629C472.327 466.629 471.735 467.816 470.547 467.224L444.425 454.2C444.425 454.2 443.237 453.608 443.829 452.42L456.854 426.297ZM515.569 515.648C515.569 515.648 516.663 515.112 515.569 514.574L491.481 502.772C491.481 502.772 490.385 502.234 489.29 502.772L465.202 514.574C465.202 514.574 464.107 515.112 465.202 515.648L489.29 527.452C489.29 527.452 490.385 527.988 491.481 527.452L515.569 515.648ZM456.854 512.298C456.854 512.298 457.445 513.486 458.633 512.893L484.755 499.869C484.755 499.869 485.943 499.277 485.351 498.09L472.327 471.966C472.327 471.966 471.735 470.78 470.547 471.372L444.425 484.396C444.425 484.396 443.237 484.988 443.829 486.174L456.854 512.298ZM456.854 517.636C456.854 517.636 457.445 516.449 458.633 517.041L484.755 530.065C484.755 530.065 485.943 530.657 485.351 531.844L472.327 557.968C472.327 557.968 471.735 559.156 470.547 558.564L444.425 545.538C444.425 545.538 443.237 544.946 443.829 543.76L456.854 517.636ZM515.569 606.988C515.569 606.988 516.663 606.45 515.569 605.914L491.481 594.11C491.481 594.11 490.385 593.574 489.29 594.11L465.202 605.914C465.202 605.914 464.107 606.45 465.202 606.986L489.29 618.79C489.29 618.79 490.385 619.326 491.481 618.79L515.569 606.988ZM456.854 603.637C456.854 603.637 457.445 604.825 458.633 604.233L484.755 591.209C484.755 591.209 485.943 590.617 485.351 589.429L472.327 563.306C472.327 563.306 471.735 562.118 470.547 562.71L444.425 575.734C444.425 575.734 443.237 576.326 443.829 577.514L456.854 603.637ZM412.386 424.309C412.386 424.309 413.482 423.772 412.386 423.236L388.298 411.432C388.298 411.432 387.203 410.896 386.107 411.432L362.019 423.236C362.019 423.236 360.925 423.772 362.019 424.309L386.107 436.112C386.107 436.112 387.203 436.648 388.298 436.112L412.386 424.309ZM353.671 426.297C353.671 426.297 354.263 425.109 355.45 425.701L381.574 438.725C381.574 438.725 382.761 439.317 382.169 440.505L369.145 466.629C369.145 466.629 368.553 467.816 367.365 467.224L341.242 454.2C341.242 454.2 340.055 453.608 340.646 452.42L353.671 426.297ZM420.735 426.297C420.735 426.297 420.143 425.109 418.957 425.701L392.833 438.725C392.833 438.725 391.646 439.317 392.238 440.505L405.262 466.629C405.262 466.629 405.854 467.816 407.042 467.224L433.165 454.2C433.165 454.2 434.353 453.608 433.761 452.42L420.735 426.297ZM309.205 424.309C309.205 424.309 310.299 423.772 309.205 423.236L285.115 411.432C285.115 411.432 284.021 410.896 282.926 411.432L258.838 423.236C258.838 423.236 257.743 423.772 258.838 424.309L282.926 436.112C282.926 436.112 284.021 436.648 285.115 436.112L309.205 424.309ZM250.489 426.297C250.489 426.297 251.081 425.109 252.269 425.701L278.391 438.725C278.391 438.725 279.579 439.317 278.987 440.505L265.962 466.629C265.962 466.629 265.37 467.816 264.183 467.224L238.059 454.2C238.059 454.2 236.873 453.608 237.465 452.42L250.489 426.297ZM317.554 426.297C317.554 426.297 316.962 425.109 315.774 425.701L289.651 438.725C289.651 438.725 288.463 439.317 289.055 440.505L302.081 466.629C302.081 466.629 302.671 467.816 303.859 467.224L329.982 454.2C329.982 454.2 331.17 453.608 330.578 452.42L317.554 426.297ZM412.386 515.648C412.386 515.648 413.482 515.112 412.386 514.574L388.298 502.772C388.298 502.772 387.203 502.234 386.107 502.772L362.019 514.574C362.019 514.574 360.925 515.112 362.019 515.648L386.107 527.452C386.107 527.452 387.203 527.988 388.298 527.452L412.386 515.648ZM353.671 512.298C353.671 512.298 354.263 513.486 355.45 512.893L381.574 499.869C381.574 499.869 382.761 499.277 382.169 498.09L369.145 471.966C369.145 471.966 368.553 470.78 367.365 471.372L341.242 484.396C341.242 484.396 340.055 484.988 340.646 486.174L353.671 512.298ZM420.735 512.298C420.735 512.298 420.143 513.486 418.957 512.893L392.833 499.869C392.833 499.869 391.646 499.277 392.238 498.09L405.262 471.966C405.262 471.966 405.854 470.78 407.042 471.372L433.165 484.396C433.165 484.396 434.353 484.988 433.761 486.174L420.735 512.298ZM353.671 517.636C353.671 517.636 354.263 516.449 355.45 517.041L381.574 530.065C381.574 530.065 382.761 530.657 382.169 531.844L369.145 557.968C369.145 557.968 368.553 559.156 367.365 558.564L341.242 545.538C341.242 545.538 340.055 544.946 340.646 543.76L353.671 517.636ZM420.735 517.636C420.735 517.636 420.143 516.449 418.957 517.041L392.833 530.065C392.833 530.065 391.646 530.657 392.238 531.844L405.262 557.968C405.262 557.968 405.854 559.156 407.042 558.564L433.165 545.538C433.165 545.538 434.353 544.946 433.761 543.76L420.735 517.636ZM360.795 469.978C360.795 469.978 361.89 469.441 360.795 468.905L336.707 457.102C336.707 457.102 335.611 456.565 334.517 457.102L310.429 468.905C310.429 468.905 309.334 469.441 310.429 469.978L334.517 481.781C334.517 481.781 335.611 482.318 336.707 481.781L360.795 469.978ZM302.081 471.966C302.081 471.966 302.671 470.778 303.859 471.372L329.982 484.396C329.982 484.396 331.17 484.988 330.578 486.174L317.554 512.298C317.554 512.298 316.962 513.485 315.774 512.893L289.651 499.869C289.651 499.869 288.463 499.277 289.055 498.089L302.081 471.966ZM463.978 469.978C463.978 469.978 465.073 469.441 463.978 468.905L439.889 457.102C439.889 457.102 438.794 456.565 437.699 457.102L413.611 468.905C413.611 468.905 412.517 469.441 413.611 469.978L437.699 481.781C437.699 481.781 438.794 482.318 439.889 481.781L463.978 469.978ZM463.978 561.317C463.978 561.317 465.073 560.781 463.978 560.244L439.889 548.441C439.889 548.441 438.794 547.905 437.699 548.441L413.611 560.245C413.611 560.245 412.517 560.781 413.611 561.317L437.699 573.12C437.699 573.12 438.794 573.657 439.889 573.12L463.978 561.317ZM360.795 561.317C360.795 561.317 361.89 560.781 360.795 560.244L336.707 548.441C336.707 548.441 335.611 547.905 334.517 548.441L310.429 560.245C310.429 560.245 309.334 560.781 310.429 561.317L334.517 573.12C334.517 573.12 335.611 573.657 336.707 573.12L360.795 561.317ZM309.205 515.648C309.205 515.648 310.299 515.112 309.205 514.574L285.115 502.772C285.115 502.772 284.021 502.234 282.926 502.772L258.838 514.574C258.838 514.574 257.743 515.112 258.838 515.648L282.926 527.452C282.926 527.452 284.021 527.988 285.115 527.452L309.205 515.648ZM206.022 515.648C206.022 515.648 207.117 515.112 206.022 514.574L181.933 502.772C181.933 502.772 180.838 502.234 179.743 502.772L155.655 514.574C155.655 514.574 154.561 515.112 155.655 515.648L179.743 527.452C179.743 527.452 180.838 527.988 181.933 527.452L206.022 515.648ZM102.839 515.648C102.839 515.648 103.934 515.112 102.839 514.574L78.7514 502.772C78.7514 502.772 77.6554 502.234 76.5607 502.772L52.4727 514.574C52.4727 514.574 51.3781 515.112 52.4727 515.648L76.5607 527.452C76.5607 527.452 77.6554 527.988 78.7514 527.452L102.839 515.648ZM206.022 332.969C206.022 332.969 207.117 332.433 206.022 331.896L181.933 320.093C181.933 320.093 180.838 319.556 179.743 320.093L155.655 331.897C155.655 331.897 154.561 332.433 155.655 332.969L179.743 344.773C179.743 344.773 180.838 345.309 181.933 344.773L206.022 332.969ZM102.839 332.969C102.839 332.969 103.934 332.433 102.839 331.896L78.7514 320.093C78.7514 320.093 77.6554 319.556 76.5607 320.093L52.4727 331.897C52.4727 331.897 51.3781 332.433 52.4727 332.969L76.5607 344.773C76.5607 344.773 77.6554 345.309 78.7514 344.773L102.839 332.969ZM250.489 512.298C250.489 512.298 251.081 513.486 252.269 512.893L278.391 499.869C278.391 499.869 279.579 499.277 278.987 498.09L265.962 471.966C265.962 471.966 265.37 470.78 264.183 471.372L238.059 484.396C238.059 484.396 236.873 484.988 237.465 486.174L250.489 512.298ZM250.489 517.636C250.489 517.636 251.081 516.449 252.269 517.041L278.391 530.065C278.391 530.065 279.579 530.657 278.987 531.844L265.962 557.968C265.962 557.968 265.37 559.156 264.183 558.564L238.059 545.538C238.059 545.538 236.873 544.946 237.465 543.76L250.489 517.636ZM317.554 517.636C317.554 517.636 316.962 516.449 315.774 517.041L289.651 530.065C289.651 530.065 288.463 530.657 289.055 531.844L302.081 557.968C302.081 557.968 302.671 559.156 303.859 558.564L329.982 545.538C329.982 545.538 331.17 544.946 330.578 543.76L317.554 517.636ZM405.262 563.305C405.262 563.305 405.854 562.118 407.042 562.71L433.165 575.734C433.165 575.734 434.353 576.326 433.761 577.514L420.735 603.637C420.735 603.637 420.143 604.825 418.957 604.233L392.833 591.208C392.833 591.208 391.646 590.616 392.238 589.429L405.262 563.305ZM412.386 606.988C412.386 606.988 413.482 606.45 412.386 605.914L388.298 594.11C388.298 594.11 387.203 593.574 386.107 594.11L362.019 605.914C362.019 605.914 360.925 606.45 362.019 606.986L386.107 618.79C386.107 618.79 387.203 619.326 388.298 618.79L412.386 606.988ZM353.671 603.637C353.671 603.637 354.263 604.825 355.45 604.233L381.574 591.209C381.574 591.209 382.761 590.617 382.169 589.429L369.145 563.306C369.145 563.306 368.553 562.118 367.365 562.71L341.242 575.734C341.242 575.734 340.055 576.326 340.646 577.514L353.671 603.637ZM302.081 563.305C302.081 563.305 302.671 562.118 303.859 562.71L329.982 575.734C329.982 575.734 331.17 576.326 330.578 577.514L317.554 603.637C317.554 603.637 316.962 604.825 315.774 604.233L289.651 591.208C289.651 591.208 288.463 590.616 289.055 589.429L302.081 563.305ZM309.205 606.988C309.205 606.988 310.299 606.45 309.205 605.914L285.115 594.11C285.115 594.11 284.021 593.574 282.926 594.11L258.838 605.914C258.838 605.914 257.743 606.45 258.838 606.986L282.926 618.79C282.926 618.79 284.021 619.326 285.115 618.79L309.205 606.988ZM250.489 603.637C250.489 603.637 251.081 604.825 252.269 604.233L278.391 591.209C278.391 591.209 279.579 590.617 278.987 589.429L265.962 563.306C265.962 563.306 265.37 562.118 264.183 562.71L238.059 575.734C238.059 575.734 236.873 576.326 237.465 577.514L250.489 603.637ZM257.613 13.281C257.613 13.281 258.707 12.7451 257.613 12.2091L233.525 0.405066C233.525 0.405066 232.43 -0.130934 231.334 0.405066L207.246 12.2091C207.246 12.2091 206.151 12.745 207.246 13.281L231.334 25.085C231.334 25.085 232.43 25.621 233.525 25.085L257.613 13.281ZM154.43 13.281C154.43 13.281 155.526 12.7451 154.43 12.2091L130.342 0.405066C130.342 0.405066 129.247 -0.130934 128.153 0.405066L104.065 12.2091C104.065 12.2091 102.97 12.745 104.065 13.281L128.153 25.085C128.153 25.085 129.247 25.621 130.342 25.085L154.43 13.281ZM198.898 15.269C198.898 15.269 199.49 14.0824 200.677 14.6744L226.801 27.6984C226.801 27.6984 227.987 28.2904 227.395 29.4784L214.371 55.601C214.371 55.601 213.779 56.7891 212.591 56.1971L186.469 43.1717C186.469 43.1717 185.281 42.5811 185.873 41.3931L198.898 15.269ZM162.779 106.609C162.779 106.609 162.189 105.421 161.001 106.014L134.878 119.038C134.878 119.038 133.69 119.629 134.282 120.817L147.306 146.941C147.306 146.941 147.898 148.128 149.086 147.536L175.209 134.512C175.209 134.512 176.397 133.92 175.805 132.732L162.779 106.609ZM59.598 106.609C59.598 106.609 59.0061 105.421 57.8181 106.014L31.6954 119.038C31.6954 119.038 30.5074 119.629 31.0994 120.817L44.1247 146.941C44.1247 146.941 44.7167 148.128 45.9034 147.536L72.0274 134.512C72.0274 134.512 73.2141 133.92 72.6221 132.732L59.598 106.609ZM95.7154 15.269C95.7154 15.269 96.3074 14.0824 97.4954 14.6744L123.618 27.6984C123.618 27.6984 124.805 28.2904 124.214 29.4784L111.189 55.601C111.189 55.601 110.597 56.7891 109.41 56.1971L83.286 43.1717C83.286 43.1717 82.0994 42.5811 82.6914 41.3931L95.7154 15.269ZM95.7154 101.272C95.7154 101.272 96.3074 102.458 97.4954 101.866L123.618 88.8424C123.618 88.8424 124.805 88.2504 124.214 87.0624L111.189 60.9397C111.189 60.9397 110.597 59.7517 109.41 60.3437L83.286 73.3691C83.286 73.3691 82.0994 73.9597 82.6914 75.1477L95.7154 101.272ZM102.839 58.9517C102.839 58.9517 103.934 58.4144 102.839 57.8784L78.7514 46.0744C78.7514 46.0744 77.6554 45.5384 76.5607 46.0744L52.4727 57.8784C52.4727 57.8784 51.3781 58.4144 52.4727 58.9504L76.5607 70.7544C76.5607 70.7544 77.6554 71.2904 78.7514 70.7544L102.839 58.9517ZM44.1247 55.601C44.1247 55.601 44.7167 56.7891 45.9034 56.1971L72.0274 43.173C72.0274 43.173 73.2141 42.5811 72.6221 41.3931L59.598 15.2704C59.598 15.2704 59.0061 14.0824 57.8181 14.6744L31.6954 27.6984C31.6954 27.6984 30.5074 28.2904 31.0994 29.4784L44.1247 55.601ZM44.1247 60.9397C44.1247 60.9397 44.7167 59.7517 45.9034 60.3437L72.0274 73.3677C72.0274 73.3677 73.2141 73.9597 72.6221 75.1477L59.598 101.27C59.598 101.27 59.0061 102.458 57.8181 101.866L31.6954 88.8424C31.6954 88.8424 30.5074 88.2504 31.0994 87.0624L44.1247 60.9397ZM51.2487 13.281C51.2487 13.281 52.3434 12.7451 51.2487 12.2091L27.1594 0.405066C27.1594 0.405066 26.0647 -0.130934 24.97 0.405066L0.882026 12.2091C0.882026 12.2091 -0.21264 12.745 0.882026 13.281L24.97 25.085C24.97 25.085 26.0647 25.621 27.1594 25.085L51.2487 13.281ZM51.2487 104.621C51.2487 104.621 52.3434 104.084 51.2487 103.548L27.1594 91.7437C27.1594 91.7437 26.0647 91.2077 24.97 91.7437L0.882026 103.548C0.882026 103.548 -0.21264 104.084 0.882026 104.621L24.97 116.424C24.97 116.424 26.0647 116.96 27.1594 116.424L51.2487 104.621ZM198.898 192.612C198.898 192.612 199.49 193.798 200.677 193.206L226.801 180.182C226.801 180.182 227.987 179.59 227.395 178.402L214.371 152.28C214.371 152.28 213.779 151.092 212.591 151.684L186.469 164.709C186.469 164.709 185.281 165.3 185.873 166.488L198.898 192.612ZM95.7154 192.612C95.7154 192.612 96.3074 193.798 97.4954 193.206L123.618 180.182C123.618 180.182 124.805 179.59 124.214 178.402L111.189 152.28C111.189 152.28 110.597 151.092 109.41 151.684L83.286 164.709C83.286 164.709 82.0994 165.3 82.6914 166.488L95.7154 192.612ZM44.1247 152.278C44.1247 152.278 44.7167 151.092 45.9034 151.684L72.0274 164.708C72.0274 164.708 73.2141 165.3 72.6221 166.488L59.598 192.61C59.598 192.61 59.0061 193.798 57.8181 193.206L31.6954 180.181C31.6954 180.181 30.5074 179.59 31.0994 178.402L44.1247 152.278ZM198.898 375.29C198.898 375.29 199.49 376.477 200.677 375.885L226.801 362.861C226.801 362.861 227.987 362.269 227.395 361.081L214.371 334.958C214.371 334.958 213.779 333.77 212.591 334.362L186.469 347.386C186.469 347.386 185.281 347.978 185.873 349.166L198.898 375.29ZM147.306 334.957C147.306 334.957 147.898 333.77 149.086 334.362L175.209 347.386C175.209 347.386 176.397 347.978 175.805 349.166L162.779 375.289C162.779 375.289 162.189 376.477 161.001 375.885L134.878 362.86C134.878 362.86 133.69 362.269 134.282 361.081L147.306 334.957ZM95.7154 375.29C95.7154 375.29 96.3074 376.477 97.4954 375.885L123.618 362.861C123.618 362.861 124.805 362.269 124.214 361.081L111.189 334.958C111.189 334.958 110.597 333.77 109.41 334.362L83.286 347.386C83.286 347.386 82.0994 347.978 82.6914 349.166L95.7154 375.29ZM44.1247 334.957C44.1247 334.957 44.7167 333.77 45.9034 334.362L72.0274 347.386C72.0274 347.386 73.2141 347.978 72.6221 349.166L59.598 375.289C59.598 375.289 59.0061 376.477 57.8181 375.885L31.6954 362.86C31.6954 362.86 30.5074 362.269 31.0994 361.081L44.1247 334.957ZM198.898 557.968C198.898 557.968 199.49 559.156 200.677 558.564L226.801 545.54C226.801 545.54 227.987 544.946 227.395 543.76L214.371 517.636C214.371 517.636 213.779 516.449 212.591 517.041L186.469 530.065C186.469 530.065 185.281 530.657 185.873 531.845L198.898 557.968ZM147.306 517.636C147.306 517.636 147.898 516.449 149.086 517.041L175.209 530.065C175.209 530.065 176.397 530.657 175.805 531.844L162.779 557.968C162.779 557.968 162.189 559.156 161.001 558.564L134.878 545.538C134.878 545.538 133.69 544.946 134.282 543.76L147.306 517.636ZM95.7154 557.968C95.7154 557.968 96.3074 559.156 97.4954 558.564L123.618 545.54C123.618 545.54 124.805 544.946 124.214 543.76L111.189 517.636C111.189 517.636 110.597 516.449 109.41 517.041L83.286 530.065C83.286 530.065 82.0994 530.657 82.6914 531.845L95.7154 557.968ZM44.1247 517.636C44.1247 517.636 44.7167 516.449 45.9034 517.041L72.0274 530.065C72.0274 530.065 73.2141 530.657 72.6221 531.844L59.598 557.968C59.598 557.968 59.0061 559.156 57.8181 558.564L31.6954 545.538C31.6954 545.538 30.5074 544.946 31.0994 543.76L44.1247 517.636ZM198.898 197.949C198.898 197.949 199.49 196.761 200.677 197.353L226.801 210.377C226.801 210.377 227.987 210.969 227.395 212.157L214.371 238.28C214.371 238.28 213.779 239.468 212.591 238.876L186.469 225.852C186.469 225.852 185.281 225.26 185.873 224.072L198.898 197.949ZM154.43 287.3C154.43 287.3 155.526 286.762 154.43 286.226L130.342 274.424C130.342 274.424 129.247 273.886 128.153 274.424L104.065 286.226C104.065 286.226 102.97 286.762 104.065 287.3L128.153 299.102C128.153 299.102 129.247 299.64 130.342 299.102L154.43 287.3ZM198.898 283.95C198.898 283.95 199.49 285.137 200.677 284.545L226.801 271.521C226.801 271.521 227.987 270.929 227.395 269.742L214.371 243.618C214.371 243.618 213.779 242.43 212.591 243.022L186.469 256.048C186.469 256.048 185.281 256.64 185.873 257.826L198.898 283.95ZM198.898 289.288C198.898 289.288 199.49 288.101 200.677 288.693L226.801 301.717C226.801 301.717 227.987 302.309 227.395 303.496L214.371 329.62C214.371 329.62 213.779 330.806 212.591 330.214L186.469 317.19C186.469 317.19 185.281 316.598 185.873 315.41L198.898 289.288ZM95.7154 289.288C95.7154 289.288 96.3074 288.101 97.4954 288.693L123.618 301.717C123.618 301.717 124.805 302.309 124.214 303.496L111.189 329.62C111.189 329.62 110.597 330.806 109.41 330.214L83.286 317.19C83.286 317.19 82.0994 316.598 82.6914 315.41L95.7154 289.288ZM162.779 289.288C162.779 289.288 162.189 288.101 161.001 288.693L134.878 301.717C134.878 301.717 133.69 302.309 134.282 303.496L147.306 329.62C147.306 329.62 147.898 330.806 149.086 330.214L175.209 317.19C175.209 317.19 176.397 316.598 175.805 315.41L162.779 289.288ZM59.598 289.288C59.598 289.288 59.0061 288.101 57.8181 288.693L31.6954 301.717C31.6954 301.717 30.5074 302.309 31.0994 303.496L44.1247 329.62C44.1247 329.62 44.7167 330.806 45.9034 330.214L72.0274 317.19C72.0274 317.19 73.2141 316.598 72.6221 315.41L59.598 289.288ZM206.022 241.63C206.022 241.63 207.117 241.093 206.022 240.557L181.933 228.753C181.933 228.753 180.838 228.217 179.743 228.753L155.655 240.557C155.655 240.557 154.561 241.093 155.655 241.63L179.743 253.433C179.743 253.433 180.838 253.969 181.933 253.433L206.022 241.63ZM147.306 238.281C147.306 238.281 147.898 239.468 149.086 238.876L175.209 225.852C175.209 225.852 176.397 225.26 175.805 224.072L162.779 197.949C162.779 197.949 162.189 196.761 161.001 197.353L134.878 210.378C134.878 210.378 133.69 210.969 134.282 212.157L147.306 238.281ZM147.306 243.618C147.306 243.618 147.898 242.43 149.086 243.022L175.209 256.048C175.209 256.048 176.397 256.638 175.805 257.826L162.779 283.95C162.779 283.95 162.189 285.137 161.001 284.545L134.878 271.521C134.878 271.521 133.69 270.929 134.282 269.741L147.306 243.618ZM95.7154 197.949C95.7154 197.949 96.3074 196.761 97.4954 197.353L123.618 210.377C123.618 210.377 124.805 210.969 124.214 212.157L111.189 238.28C111.189 238.28 110.597 239.468 109.41 238.876L83.286 225.852C83.286 225.852 82.0994 225.26 82.6914 224.072L95.7154 197.949ZM95.7154 283.95C95.7154 283.95 96.3074 285.137 97.4954 284.545L123.618 271.521C123.618 271.521 124.805 270.929 124.214 269.742L111.189 243.618C111.189 243.618 110.597 242.43 109.41 243.022L83.286 256.048C83.286 256.048 82.0994 256.64 82.6914 257.826L95.7154 283.95ZM102.839 241.63C102.839 241.63 103.934 241.093 102.839 240.557L78.7514 228.753C78.7514 228.753 77.6554 228.217 76.5607 228.753L52.4727 240.557C52.4727 240.557 51.3781 241.093 52.4727 241.63L76.5607 253.433C76.5607 253.433 77.6554 253.969 78.7514 253.433L102.839 241.63ZM44.1247 238.281C44.1247 238.281 44.7167 239.468 45.9034 238.876L72.0274 225.852C72.0274 225.852 73.2141 225.26 72.6221 224.072L59.598 197.949C59.598 197.949 59.0061 196.761 57.8181 197.353L31.6954 210.378C31.6954 210.378 30.5074 210.969 31.0994 212.157L44.1247 238.281ZM44.1247 243.618C44.1247 243.618 44.7167 242.43 45.9034 243.022L72.0274 256.048C72.0274 256.048 73.2141 256.638 72.6221 257.826L59.598 283.95C59.598 283.95 59.0061 285.137 57.8181 284.545L31.6954 271.521C31.6954 271.521 30.5074 270.929 31.0994 269.741L44.1247 243.618ZM51.2487 195.96C51.2487 195.96 52.3434 195.424 51.2487 194.888L27.1594 183.084C27.1594 183.084 26.0647 182.548 24.97 183.084L0.882026 194.888C0.882026 194.888 -0.21264 195.424 0.882026 195.96L24.97 207.764C24.97 207.764 26.0647 208.3 27.1594 207.764L51.2487 195.96ZM51.2487 287.3C51.2487 287.3 52.3434 286.762 51.2487 286.226L27.1594 274.424C27.1594 274.424 26.0647 273.886 24.97 274.424L0.882026 286.226C0.882026 286.226 -0.21264 286.762 0.882026 287.3L24.97 299.102C24.97 299.102 26.0647 299.64 27.1594 299.102L51.2487 287.3ZM257.613 378.638C257.613 378.638 258.707 378.102 257.613 377.565L233.525 365.762C233.525 365.762 232.43 365.226 231.334 365.762L207.246 377.566C207.246 377.566 206.151 378.102 207.246 378.638L231.334 390.442C231.334 390.442 232.43 390.978 233.525 390.442L257.613 378.638ZM154.43 378.638C154.43 378.638 155.526 378.102 154.43 377.565L130.342 365.762C130.342 365.762 129.247 365.226 128.153 365.762L104.065 377.566C104.065 377.566 102.97 378.102 104.065 378.638L128.153 390.442C128.153 390.442 129.247 390.978 130.342 390.442L154.43 378.638ZM198.898 380.628C198.898 380.628 199.49 379.44 200.677 380.032L226.801 393.056C226.801 393.056 227.987 393.648 227.395 394.836L214.371 420.958C214.371 420.958 213.779 422.146 212.591 421.554L186.469 408.529C186.469 408.529 185.281 407.938 185.873 406.75L198.898 380.628ZM257.613 469.978C257.613 469.978 258.707 469.441 257.613 468.905L233.525 457.102C233.525 457.102 232.43 456.565 231.334 457.102L207.246 468.905C207.246 468.905 206.151 469.441 207.246 469.978L231.334 481.781C231.334 481.781 232.43 482.318 233.525 481.781L257.613 469.978ZM154.43 469.978C154.43 469.978 155.526 469.441 154.43 468.905L130.342 457.102C130.342 457.102 129.247 456.565 128.153 457.102L104.065 468.905C104.065 468.905 102.97 469.441 104.065 469.978L128.153 481.781C128.153 481.781 129.247 482.318 130.342 481.781L154.43 469.978ZM198.898 466.629C198.898 466.629 199.49 467.816 200.677 467.224L226.801 454.2C226.801 454.2 227.987 453.608 227.395 452.42L214.371 426.297C214.371 426.297 213.779 425.109 212.591 425.701L186.469 438.726C186.469 438.726 185.281 439.318 185.873 440.505L198.898 466.629ZM198.898 471.966C198.898 471.966 199.49 470.778 200.677 471.372L226.801 484.396C226.801 484.396 227.987 484.988 227.395 486.174L214.371 512.298C214.371 512.298 213.779 513.485 212.591 512.893L186.469 499.869C186.469 499.869 185.281 499.277 185.873 498.089L198.898 471.966ZM95.7154 471.966C95.7154 471.966 96.3074 470.778 97.4954 471.372L123.618 484.396C123.618 484.396 124.805 484.988 124.214 486.174L111.189 512.298C111.189 512.298 110.597 513.485 109.41 512.893L83.286 499.869C83.286 499.869 82.0994 499.277 82.6914 498.089L95.7154 471.966ZM162.779 471.966C162.779 471.966 162.189 470.778 161.001 471.372L134.878 484.396C134.878 484.396 133.69 484.988 134.282 486.174L147.306 512.298C147.306 512.298 147.898 513.485 149.086 512.893L175.209 499.869C175.209 499.869 176.397 499.277 175.805 498.089L162.779 471.966ZM59.598 471.966C59.598 471.966 59.0061 470.778 57.8181 471.372L31.6954 484.396C31.6954 484.396 30.5074 484.988 31.0994 486.174L44.1247 512.298C44.1247 512.298 44.7167 513.485 45.9034 512.893L72.0274 499.869C72.0274 499.869 73.2141 499.277 72.6221 498.089L59.598 471.966ZM206.022 424.309C206.022 424.309 207.117 423.772 206.022 423.236L181.933 411.432C181.933 411.432 180.838 410.896 179.743 411.432L155.655 423.236C155.655 423.236 154.561 423.772 155.655 424.309L179.743 436.112C179.743 436.112 180.838 436.648 181.933 436.112L206.022 424.309ZM147.306 420.96C147.306 420.96 147.898 422.146 149.086 421.554L175.209 408.53C175.209 408.53 176.397 407.938 175.805 406.75L162.779 380.628C162.779 380.628 162.189 379.44 161.001 380.032L134.878 393.056C134.878 393.056 133.69 393.648 134.282 394.836L147.306 420.96ZM147.306 426.297C147.306 426.297 147.898 425.109 149.086 425.701L175.209 438.725C175.209 438.725 176.397 439.317 175.805 440.505L162.779 466.629C162.779 466.629 162.189 467.816 161.001 467.224L134.878 454.2C134.878 454.2 133.69 453.608 134.282 452.42L147.306 426.297ZM95.7154 380.628C95.7154 380.628 96.3074 379.44 97.4954 380.032L123.618 393.056C123.618 393.056 124.805 393.648 124.214 394.836L111.189 420.958C111.189 420.958 110.597 422.146 109.41 421.554L83.286 408.529C83.286 408.529 82.0994 407.938 82.6914 406.75L95.7154 380.628ZM95.7154 466.629C95.7154 466.629 96.3074 467.816 97.4954 467.224L123.618 454.2C123.618 454.2 124.805 453.608 124.214 452.42L111.189 426.297C111.189 426.297 110.597 425.109 109.41 425.701L83.286 438.726C83.286 438.726 82.0994 439.318 82.6914 440.505L95.7154 466.629ZM102.839 424.309C102.839 424.309 103.934 423.772 102.839 423.236L78.7514 411.432C78.7514 411.432 77.6554 410.896 76.5607 411.432L52.4727 423.236C52.4727 423.236 51.3781 423.772 52.4727 424.309L76.5607 436.112C76.5607 436.112 77.6554 436.648 78.7514 436.112L102.839 424.309ZM44.1247 420.96C44.1247 420.96 44.7167 422.146 45.9034 421.554L72.0274 408.53C72.0274 408.53 73.2141 407.938 72.6221 406.75L59.598 380.628C59.598 380.628 59.0061 379.44 57.8181 380.032L31.6954 393.056C31.6954 393.056 30.5074 393.648 31.0994 394.836L44.1247 420.96ZM44.1247 426.297C44.1247 426.297 44.7167 425.109 45.9034 425.701L72.0274 438.725C72.0274 438.725 73.2141 439.317 72.6221 440.505L59.598 466.629C59.598 466.629 59.0061 467.816 57.8181 467.224L31.6954 454.2C31.6954 454.2 30.5074 453.608 31.0994 452.42L44.1247 426.297ZM51.2487 378.638C51.2487 378.638 52.3434 378.102 51.2487 377.565L27.1594 365.762C27.1594 365.762 26.0647 365.226 24.97 365.762L0.882026 377.566C0.882026 377.566 -0.21264 378.102 0.882026 378.638L24.97 390.442C24.97 390.442 26.0647 390.978 27.1594 390.442L51.2487 378.638ZM51.2487 469.978C51.2487 469.978 52.3434 469.441 51.2487 468.905L27.1594 457.102C27.1594 457.102 26.0647 456.565 24.97 457.102L0.882026 468.905C0.882026 468.905 -0.21264 469.441 0.882026 469.978L24.97 481.781C24.97 481.781 26.0647 482.318 27.1594 481.781L51.2487 469.978ZM257.613 561.317C257.613 561.317 258.707 560.781 257.613 560.244L233.525 548.441C233.525 548.441 232.43 547.905 231.334 548.441L207.246 560.245C207.246 560.245 206.151 560.781 207.246 561.317L231.334 573.12C231.334 573.12 232.43 573.657 233.525 573.12L257.613 561.317ZM154.43 561.317C154.43 561.317 155.526 560.781 154.43 560.244L130.342 548.441C130.342 548.441 129.247 547.905 128.153 548.441L104.065 560.245C104.065 560.245 102.97 560.781 104.065 561.317L128.153 573.12C128.153 573.12 129.247 573.657 130.342 573.12L154.43 561.317ZM198.898 563.305C198.898 563.305 199.49 562.118 200.677 562.71L226.801 575.734C226.801 575.734 227.987 576.326 227.395 577.514L214.371 603.637C214.371 603.637 213.779 604.825 212.591 604.233L186.469 591.208C186.469 591.208 185.281 590.616 185.873 589.429L198.898 563.305ZM206.022 606.988C206.022 606.988 207.117 606.45 206.022 605.914L181.933 594.11C181.933 594.11 180.838 593.574 179.743 594.11L155.655 605.914C155.655 605.914 154.561 606.45 155.655 606.986L179.743 618.79C179.743 618.79 180.838 619.326 181.933 618.79L206.022 606.988ZM147.306 603.637C147.306 603.637 147.898 604.825 149.086 604.233L175.209 591.209C175.209 591.209 176.397 590.617 175.805 589.429L162.779 563.306C162.779 563.306 162.189 562.118 161.001 562.71L134.878 575.734C134.878 575.734 133.69 576.326 134.282 577.514L147.306 603.637ZM95.7154 563.305C95.7154 563.305 96.3074 562.118 97.4954 562.71L123.618 575.734C123.618 575.734 124.805 576.326 124.214 577.514L111.189 603.637C111.189 603.637 110.597 604.825 109.41 604.233L83.286 591.208C83.286 591.208 82.0994 590.616 82.6914 589.429L95.7154 563.305ZM102.839 606.988C102.839 606.988 103.934 606.45 102.839 605.914L78.7514 594.11C78.7514 594.11 77.6554 593.574 76.5607 594.11L52.4727 605.914C52.4727 605.914 51.3781 606.45 52.4727 606.986L76.5607 618.79C76.5607 618.79 77.6554 619.326 78.7514 618.79L102.839 606.988ZM44.1247 603.637C44.1247 603.637 44.7167 604.825 45.9034 604.233L72.0274 591.209C72.0274 591.209 73.2141 590.617 72.6221 589.429L59.598 563.306C59.598 563.306 59.0061 562.118 57.8181 562.71L31.6954 575.734C31.6954 575.734 30.5074 576.326 31.0994 577.514L44.1247 603.637ZM51.2487 561.317C51.2487 561.317 52.3434 560.781 51.2487 560.244L27.1594 548.441C27.1594 548.441 26.0647 547.905 24.97 548.441L0.882026 560.245C0.882026 560.245 -0.21264 560.781 0.882026 561.317L24.97 573.12C24.97 573.12 26.0647 573.657 27.1594 573.12L51.2487 561.317Z" stroke="#A7A5A6" stroke-width="0.8" stroke-miterlimit="10"/>
</g>
<defs>
<clipPath id="clip0_2936_404">
<rect width="516.451" height="309.597" fill="white"/>
</clipPath>
</defs>
</svg>
