<svg width="270" height="310" viewBox="0 0 270 310" fill="none" xmlns="http://www.w3.org/2000/svg">
<g clip-path="url(#clip0_2936_92)">
<path d="M250.489 60.9399C250.489 60.9399 251.081 59.7532 252.268 60.3452L278.392 73.3692C278.392 73.3692 279.578 73.9612 278.988 75.1479L265.962 101.272C265.962 101.272 265.37 102.459 264.184 101.868L238.06 88.8425C238.06 88.8425 236.873 88.2505 237.464 87.0639L250.489 60.9399Z" fill="#686FAF" fill-opacity="0.5"/>
<path d="M206.022 150.292C206.022 150.292 207.117 149.756 206.022 149.218L181.934 137.416C181.934 137.416 180.838 136.878 179.743 137.416L155.655 149.218C155.655 149.218 154.561 149.756 155.655 150.292L179.743 162.094C179.743 162.094 180.838 162.632 181.934 162.094L206.022 150.292Z" fill="#686FAF" fill-opacity="0.5"/>
<path d="M206.022 150.292C206.022 150.292 207.117 149.756 206.022 149.218L181.934 137.416C181.934 137.416 180.838 136.878 179.743 137.416L155.655 149.218C155.655 149.218 154.561 149.756 155.655 150.292L179.743 162.094C179.743 162.094 180.838 162.632 181.934 162.094L206.022 150.292Z" stroke="#686FAF" stroke-opacity="0.5" stroke-width="1.33333" stroke-miterlimit="10"/>
<path d="M198.898 106.609C198.898 106.609 199.49 105.422 200.677 106.014L226.801 119.038C226.801 119.038 227.987 119.63 227.397 120.817L214.371 146.941C214.371 146.941 213.779 148.128 212.593 147.537L186.469 134.512C186.469 134.512 185.282 133.92 185.873 132.733L198.898 106.609Z" fill="#686FAF" fill-opacity="0.5"/>
<path d="M147.307 152.279C147.307 152.279 147.899 151.093 149.086 151.685L175.21 164.709C175.21 164.709 176.396 165.301 175.806 166.487L162.78 192.611C162.78 192.611 162.188 193.798 161.002 193.207L134.878 180.182C134.878 180.182 133.691 179.59 134.282 178.403L147.307 152.279Z" fill="#686FAF" fill-opacity="0.5"/>
<path d="M309.204 58.9512C309.204 58.9512 310.299 58.4152 309.204 57.8779L285.116 46.0752C285.116 46.0752 284.02 45.5379 282.926 46.0752L258.838 57.8779C258.838 57.8779 257.743 58.4152 258.838 58.9512L282.926 70.7539C282.926 70.7539 284.02 71.2912 285.116 70.7539L309.204 58.9512Z" fill="#686FAF" fill-opacity="0.5"/>
<path d="M309.204 58.9512C309.204 58.9512 310.299 58.4152 309.204 57.8779L285.116 46.0752C285.116 46.0752 284.02 45.5379 282.926 46.0752L258.838 57.8779C258.838 57.8779 257.743 58.4152 258.838 58.9512L282.926 70.7539C282.926 70.7539 284.02 71.2912 285.116 70.7539L309.204 58.9512Z" stroke="#686FAF" stroke-opacity="0.5" stroke-width="1.33333" stroke-miterlimit="10"/>
<path d="M250.489 146.942C250.489 146.942 251.081 148.129 252.268 147.537L278.392 134.513C278.392 134.513 279.578 133.921 278.988 132.734L265.962 106.61C265.962 106.61 265.37 105.423 264.184 106.014L238.06 119.039C238.06 119.039 236.873 119.631 237.464 120.818L250.489 146.942Z" fill="#686FAF" fill-opacity="0.3"/>
<path d="M198.898 101.272C198.898 101.272 199.49 102.458 200.677 101.866L226.801 88.8425C226.801 88.8425 227.987 88.2505 227.397 87.0638L214.371 60.9398C214.371 60.9398 213.779 59.7518 212.593 60.3438L186.469 73.3692C186.469 73.3692 185.282 73.9612 185.873 75.1478L198.898 101.272Z" fill="#686FAF" fill-opacity="0.3"/>
<path d="M206.022 58.9512C206.022 58.9512 207.117 58.4152 206.022 57.8779L181.934 46.0752C181.934 46.0752 180.838 45.5379 179.743 46.0752L155.655 57.8779C155.655 57.8779 154.561 58.4152 155.655 58.9512L179.743 70.7539C179.743 70.7539 180.838 71.2912 181.934 70.7539L206.022 58.9512Z" fill="#686FAF" fill-opacity="0.3"/>
<path d="M206.022 58.9512C206.022 58.9512 207.117 58.4152 206.022 57.8779L181.934 46.0752C181.934 46.0752 180.838 45.5379 179.743 46.0752L155.655 57.8779C155.655 57.8779 154.561 58.4152 155.655 58.9512L179.743 70.7539C179.743 70.7539 180.838 71.2912 181.934 70.7539L206.022 58.9512Z" stroke="#686FAF" stroke-opacity="0.5" stroke-width="1.33333" stroke-miterlimit="10"/>
<path d="M147.307 55.6019C147.307 55.6019 147.899 56.7899 149.086 56.1966L175.21 43.1726C175.21 43.1726 176.396 42.5806 175.806 41.3939L162.78 15.2699C162.78 15.2699 162.188 14.0832 161.002 14.6752L134.878 27.6992C134.878 27.6992 133.691 28.2912 134.282 29.4779L147.307 55.6019Z" fill="#686FAF" fill-opacity="0.3"/>
<path d="M257.613 104.621C257.613 104.621 258.708 104.085 257.613 103.548L233.525 91.7449C233.525 91.7449 232.429 91.2075 231.334 91.7449L207.246 103.548C207.246 103.548 206.152 104.085 207.246 104.621L231.334 116.424C231.334 116.424 232.429 116.961 233.525 116.424L257.613 104.621Z" fill="#686FAF" fill-opacity="0.5"/>
<path d="M257.613 104.621C257.613 104.621 258.708 104.085 257.613 103.548L233.525 91.7449C233.525 91.7449 232.429 91.2075 231.334 91.7449L207.246 103.548C207.246 103.548 206.152 104.085 207.246 104.621L231.334 116.424C231.334 116.424 232.429 116.961 233.525 116.424L257.613 104.621Z" stroke="#686FAF" stroke-opacity="0.5" stroke-width="1.33333" stroke-miterlimit="10"/>
<path d="M257.613 195.96C257.613 195.96 258.708 195.424 257.613 194.887L233.525 183.084C233.525 183.084 232.429 182.547 231.334 183.084L207.246 194.887C207.246 194.887 206.152 195.424 207.246 195.96L231.334 207.763C231.334 207.763 232.429 208.3 233.525 207.763L257.613 195.96Z" fill="#686FAF" fill-opacity="0.7"/>
<path d="M257.613 195.96C257.613 195.96 258.708 195.424 257.613 194.887L233.525 183.084C233.525 183.084 232.429 182.547 231.334 183.084L207.246 194.887C207.246 194.887 206.152 195.424 207.246 195.96L231.334 207.763C231.334 207.763 232.429 208.3 233.525 207.763L257.613 195.96Z" stroke="#686FAF" stroke-opacity="0.5" stroke-width="1.33333" stroke-miterlimit="10"/>
<path d="M309.204 150.291C309.204 150.291 310.299 149.755 309.204 149.218L285.116 137.415C285.116 137.415 284.02 136.878 282.926 137.415L258.838 149.218C258.838 149.218 257.743 149.755 258.838 150.291L282.926 162.094C282.926 162.094 284.02 162.631 285.116 162.094L309.204 150.291Z" fill="#686FAF" fill-opacity="0.3"/>
<path d="M309.204 150.291C309.204 150.291 310.299 149.755 309.204 149.218L285.116 137.415C285.116 137.415 284.02 136.878 282.926 137.415L258.838 149.218C258.838 149.218 257.743 149.755 258.838 150.291L282.926 162.094C282.926 162.094 284.02 162.631 285.116 162.094L309.204 150.291Z" stroke="#686FAF" stroke-opacity="0.5" stroke-width="1.33333" stroke-miterlimit="10"/>
<path d="M309.204 241.63C309.204 241.63 310.299 241.094 309.204 240.557L285.116 228.754C285.116 228.754 284.02 228.217 282.926 228.754L258.838 240.557C258.838 240.557 257.743 241.094 258.838 241.63L282.926 253.433C282.926 253.433 284.02 253.97 285.116 253.433L309.204 241.63Z" fill="#686FAF" fill-opacity="0.8"/>
<path d="M309.204 241.63C309.204 241.63 310.299 241.094 309.204 240.557L285.116 228.754C285.116 228.754 284.02 228.217 282.926 228.754L258.838 240.557C258.838 240.557 257.743 241.094 258.838 241.63L282.926 253.433C282.926 253.433 284.02 253.97 285.116 253.433L309.204 241.63Z" stroke="#686FAF" stroke-opacity="0.5" stroke-width="1.33333" stroke-miterlimit="10"/>
<path d="M250.489 243.619C250.489 243.619 251.081 242.432 252.268 243.024L278.392 256.048C278.392 256.048 279.578 256.64 278.988 257.827L265.962 283.951C265.962 283.951 265.37 285.137 264.184 284.547L238.06 271.521C238.06 271.521 236.873 270.929 237.464 269.743L250.489 243.619Z" fill="#686FAF" fill-opacity="0.8"/>
<path d="M257.613 287.3C257.613 287.3 258.708 286.764 257.613 286.226L233.525 274.424C233.525 274.424 232.429 273.886 231.334 274.424L207.246 286.226C207.246 286.226 206.152 286.764 207.246 287.3L231.334 299.102C231.334 299.102 232.429 299.64 233.525 299.102L257.613 287.3Z" fill="#686FAF" fill-opacity="0.8"/>
<path d="M257.613 287.3C257.613 287.3 258.708 286.764 257.613 286.226L233.525 274.424C233.525 274.424 232.429 273.886 231.334 274.424L207.246 286.226C207.246 286.226 206.152 286.764 207.246 287.3L231.334 299.102C231.334 299.102 232.429 299.64 233.525 299.102L257.613 287.3Z" stroke="#686FAF" stroke-opacity="0.5" stroke-width="1.33333" stroke-miterlimit="10"/>
<path d="M250.489 152.279C250.489 152.279 251.081 151.093 252.268 151.685L278.392 164.709C278.392 164.709 279.578 165.301 278.988 166.487L265.962 192.611C265.962 192.611 265.37 193.798 264.184 193.207L238.06 180.182C238.06 180.182 236.873 179.59 237.464 178.403L250.489 152.279Z" fill="#686FAF" fill-opacity="0.7"/>
<path d="M102.84 150.292C102.84 150.292 103.934 149.756 102.84 149.218L78.7518 137.416C78.7518 137.416 77.6558 136.878 76.5611 137.416L52.4731 149.218C52.4731 149.218 51.3784 149.756 52.4731 150.292L76.5611 162.094C76.5611 162.094 77.6558 162.632 78.7518 162.094L102.84 150.292Z" fill="#B5B4D3"/>
<path d="M154.431 104.621C154.431 104.621 155.525 104.085 154.431 103.548L130.343 91.7449C130.343 91.7449 129.247 91.2075 128.152 91.7449L104.064 103.548C104.064 103.548 102.969 104.085 104.064 104.621L128.152 116.424C128.152 116.424 129.247 116.961 130.343 116.424L154.431 104.621Z" fill="#B5B4D3"/>
<path d="M95.7156 106.609C95.7156 106.609 96.3076 105.422 97.4942 106.014L123.618 119.038C123.618 119.038 124.805 119.63 124.214 120.817L111.189 146.941C111.189 146.941 110.597 148.128 109.41 147.537L83.2862 134.512C83.2862 134.512 82.0996 133.92 82.6902 132.733L95.7156 106.609Z" fill="#B5B4D3"/>
<path d="M147.307 60.9394C147.307 60.9394 147.899 59.7527 149.086 60.3447L175.21 73.3687C175.21 73.3687 176.396 73.9607 175.806 75.1474L162.78 101.271C162.78 101.271 162.188 102.458 161.002 101.867L134.878 88.8421C134.878 88.8421 133.691 88.2501 134.282 87.0634L147.307 60.9394Z" fill="#B5B4D3"/>
<path d="M154.431 195.96C154.431 195.96 155.525 195.424 154.431 194.887L130.343 183.084C130.343 183.084 129.247 182.547 128.152 183.084L104.064 194.887C104.064 194.887 102.969 195.424 104.064 195.96L128.152 207.763C128.152 207.763 129.247 208.3 130.343 207.763L154.431 195.96Z" fill="#686FAF" fill-opacity="0.5"/>
<path d="M154.431 195.96C154.431 195.96 155.525 195.424 154.431 194.887L130.343 183.084C130.343 183.084 129.247 182.547 128.152 183.084L104.064 194.887C104.064 194.887 102.969 195.424 104.064 195.96L128.152 207.763C128.152 207.763 129.247 208.3 130.343 207.763L154.431 195.96Z" stroke="#686FAF" stroke-opacity="0.5" stroke-width="1.33333" stroke-miterlimit="10"/>
<path d="M515.569 58.9519C515.569 58.9519 516.663 58.4159 515.569 57.8786L491.481 46.076C491.481 46.076 490.385 45.5386 489.29 46.076L465.202 57.8786C465.202 57.8786 464.107 58.4159 465.202 58.9519L489.29 70.7546C489.29 70.7546 490.385 71.292 491.481 70.7546L515.569 58.9519ZM456.854 55.6026C456.854 55.6026 457.445 56.7893 458.633 56.1973L484.755 43.1733C484.755 43.1733 485.943 42.5813 485.351 41.3946L472.327 15.2706C472.327 15.2706 471.735 14.084 470.547 14.6746L444.425 27.6999C444.425 27.6999 443.237 28.292 443.829 29.4786L456.854 55.6026ZM456.854 60.94C456.854 60.94 457.445 59.7533 458.633 60.3453L484.755 73.3693C484.755 73.3693 485.943 73.9613 485.351 75.1479L472.327 101.272C472.327 101.272 471.735 102.459 470.547 101.868L444.425 88.8426C444.425 88.8426 443.237 88.2506 443.829 87.064L456.854 60.94ZM515.569 150.291C515.569 150.291 516.663 149.755 515.569 149.219L491.481 137.415C491.481 137.415 490.385 136.879 489.29 137.415L465.202 149.219C465.202 149.219 464.107 149.755 465.202 150.291L489.29 162.095C489.29 162.095 490.385 162.631 491.481 162.095L515.569 150.291ZM456.854 146.941C456.854 146.941 457.445 148.129 458.633 147.537L484.755 134.513C484.755 134.513 485.943 133.921 485.351 132.733L472.327 106.611C472.327 106.611 471.735 105.423 470.547 106.015L444.425 119.039C444.425 119.039 443.237 119.631 443.829 120.819L456.854 146.941ZM456.854 152.279C456.854 152.279 457.445 151.092 458.633 151.684L484.755 164.708C484.755 164.708 485.943 165.3 485.351 166.488L472.327 192.611C472.327 192.611 471.735 193.799 470.547 193.207L444.425 180.181C444.425 180.181 443.237 179.591 443.829 178.403L456.854 152.279ZM472.327 289.288C472.327 289.288 471.735 288.101 470.547 288.693L444.425 301.717C444.425 301.717 443.237 302.309 443.829 303.496L456.854 329.62C456.854 329.62 457.445 330.807 458.633 330.216L484.755 317.191C484.755 317.191 485.943 316.599 485.351 315.412L472.327 289.288ZM369.145 289.288C369.145 289.288 368.553 288.101 367.365 288.693L341.242 301.717C341.242 301.717 340.055 302.309 340.646 303.496L353.671 329.62C353.671 329.62 354.263 330.807 355.45 330.216L381.574 317.191C381.574 317.191 382.761 316.599 382.169 315.412L369.145 289.288ZM265.962 289.288C265.962 289.288 265.37 288.101 264.183 288.693L238.059 301.717C238.059 301.717 236.873 302.309 237.465 303.496L250.489 329.62C250.489 329.62 251.081 330.807 252.269 330.216L278.391 317.191C278.391 317.191 279.579 316.599 278.987 315.412L265.962 289.288ZM515.569 241.631C515.569 241.631 516.663 241.093 515.569 240.557L491.481 228.755C491.481 228.755 490.385 228.217 489.29 228.755L465.202 240.557C465.202 240.557 464.107 241.093 465.202 241.631L489.29 253.433C489.29 253.433 490.385 253.971 491.481 253.433L515.569 241.631ZM456.854 238.281C456.854 238.281 457.445 239.468 458.633 238.876L484.755 225.852C484.755 225.852 485.943 225.26 485.351 224.072L472.327 197.949C472.327 197.949 471.735 196.761 470.547 197.353L444.425 210.379C444.425 210.379 443.237 210.971 443.829 212.157L456.854 238.281ZM456.854 243.619C456.854 243.619 457.445 242.432 458.633 243.024L484.755 256.048C484.755 256.048 485.943 256.64 485.351 257.827L472.327 283.951C472.327 283.951 471.735 285.137 470.547 284.545L444.425 271.521C444.425 271.521 443.237 270.929 443.829 269.741L456.854 243.619ZM250.489 55.6026C250.489 55.6026 251.081 56.7893 252.269 56.1973L278.391 43.1733C278.391 43.1733 279.579 42.5813 278.987 41.3946L265.962 15.2706C265.962 15.2706 265.37 14.084 264.183 14.6746L238.059 27.6999C238.059 27.6999 236.873 28.292 237.465 29.4786L250.489 55.6026ZM317.554 60.94C317.554 60.94 316.962 59.7533 315.774 60.3453L289.651 73.3693C289.651 73.3693 288.463 73.9613 289.055 75.1479L302.081 101.272C302.081 101.272 302.671 102.459 303.859 101.868L329.982 88.8426C329.982 88.8426 331.17 88.2506 330.578 87.064L317.554 60.94ZM353.671 146.941C353.671 146.941 354.263 148.129 355.45 147.537L381.574 134.513C381.574 134.513 382.761 133.921 382.169 132.733L369.145 106.611C369.145 106.611 368.553 105.423 367.365 106.015L341.242 119.039C341.242 119.039 340.055 119.631 340.646 120.819L353.671 146.941ZM420.735 152.279C420.735 152.279 420.143 151.092 418.957 151.684L392.833 164.708C392.833 164.708 391.646 165.3 392.238 166.488L405.262 192.611C405.262 192.611 405.854 193.799 407.042 193.207L433.165 180.181C433.165 180.181 434.353 179.591 433.761 178.403L420.735 152.279ZM463.978 195.961C463.978 195.961 465.073 195.424 463.978 194.888L439.889 183.084C439.889 183.084 438.794 182.548 437.699 183.084L413.611 194.888C413.611 194.888 412.517 195.424 413.611 195.96L437.699 207.764C437.699 207.764 438.794 208.3 439.889 207.764L463.978 195.961ZM405.262 197.949C405.262 197.949 405.854 196.761 407.042 197.353L433.165 210.377C433.165 210.377 434.353 210.969 433.761 212.157L420.735 238.28C420.735 238.28 420.143 239.468 418.957 238.876L392.833 225.852C392.833 225.852 391.646 225.26 392.238 224.072L405.262 197.949ZM463.978 287.3C463.978 287.3 465.073 286.764 463.978 286.227L439.889 274.424C439.889 274.424 438.794 273.887 437.699 274.424L413.611 286.227C413.611 286.227 412.517 286.764 413.611 287.3L437.699 299.103C437.699 299.103 438.794 299.64 439.889 299.103L463.978 287.3ZM360.795 287.3C360.795 287.3 361.89 286.764 360.795 286.227L336.707 274.424C336.707 274.424 335.611 273.887 334.517 274.424L310.429 286.227C310.429 286.227 309.334 286.764 310.429 287.3L334.517 299.103C334.517 299.103 335.611 299.64 336.707 299.103L360.795 287.3ZM405.262 283.951C405.262 283.951 405.854 285.137 407.042 284.545L433.165 271.521C433.165 271.521 434.353 270.929 433.761 269.743L420.735 243.619C420.735 243.619 420.143 242.432 418.957 243.023L392.833 256.048C392.833 256.048 391.646 256.64 392.238 257.827L405.262 283.951ZM405.262 289.288C405.262 289.288 405.854 288.101 407.042 288.693L433.165 301.717C433.165 301.717 434.353 302.309 433.761 303.496L420.735 329.62C420.735 329.62 420.143 330.807 418.957 330.216L392.833 317.191C392.833 317.191 391.646 316.599 392.238 315.412L405.262 289.288ZM302.081 289.288C302.081 289.288 302.671 288.101 303.859 288.693L329.982 301.717C329.982 301.717 331.17 302.309 330.578 303.496L317.554 329.62C317.554 329.62 316.962 330.807 315.774 330.216L289.651 317.191C289.651 317.191 288.463 316.599 289.055 315.412L302.081 289.288ZM412.386 241.631C412.386 241.631 413.482 241.093 412.386 240.557L388.298 228.755C388.298 228.755 387.203 228.217 386.107 228.755L362.019 240.557C362.019 240.557 360.925 241.093 362.019 241.631L386.107 253.433C386.107 253.433 387.203 253.971 388.298 253.433L412.386 241.631ZM353.671 243.619C353.671 243.619 354.263 242.432 355.45 243.024L381.574 256.048C381.574 256.048 382.761 256.64 382.169 257.827L369.145 283.951C369.145 283.951 368.553 285.137 367.365 284.545L341.242 271.521C341.242 271.521 340.055 270.929 340.646 269.741L353.671 243.619ZM302.081 283.951C302.081 283.951 302.671 285.137 303.859 284.545L329.982 271.521C329.982 271.521 331.17 270.929 330.578 269.743L317.554 243.619C317.554 243.619 316.962 242.432 315.774 243.023L289.651 256.048C289.651 256.048 288.463 256.64 289.055 257.827L302.081 283.951ZM250.489 238.281C250.489 238.281 251.081 239.468 252.269 238.876L278.391 225.852C278.391 225.852 279.579 225.26 278.987 224.072L265.962 197.949C265.962 197.949 265.37 196.761 264.183 197.353L238.059 210.379C238.059 210.379 236.873 210.971 237.465 212.157L250.489 238.281ZM472.327 380.628C472.327 380.628 471.735 379.44 470.547 380.032L444.425 393.056C444.425 393.056 443.237 393.648 443.829 394.836L456.854 420.959C456.854 420.959 457.445 422.147 458.633 421.555L484.755 408.529C484.755 408.529 485.943 407.939 485.351 406.751L472.327 380.628ZM369.145 380.628C369.145 380.628 368.553 379.44 367.365 380.032L341.242 393.056C341.242 393.056 340.055 393.648 340.646 394.836L353.671 420.959C353.671 420.959 354.263 422.147 355.45 421.555L381.574 408.529C381.574 408.529 382.761 407.939 382.169 406.751L369.145 380.628ZM265.962 380.628C265.962 380.628 265.37 379.44 264.183 380.032L238.059 393.056C238.059 393.056 236.873 393.648 237.465 394.836L250.489 420.959C250.489 420.959 251.081 422.147 252.269 421.555L278.391 408.529C278.391 408.529 279.579 407.939 278.987 406.751L265.962 380.628ZM456.854 334.957C456.854 334.957 457.445 333.771 458.633 334.363L484.755 347.387C484.755 347.387 485.943 347.979 485.351 349.167L472.327 375.289C472.327 375.289 471.735 376.477 470.547 375.885L444.425 362.86C444.425 362.86 443.237 362.269 443.829 361.081L456.854 334.957ZM463.978 378.639C463.978 378.639 465.073 378.103 463.978 377.565L439.889 365.763C439.889 365.763 438.794 365.227 437.699 365.763L413.611 377.567C413.611 377.567 412.517 378.103 413.611 378.639L437.699 390.443C437.699 390.443 438.794 390.979 439.889 390.443L463.978 378.639ZM360.795 378.639C360.795 378.639 361.89 378.103 360.795 377.565L336.707 365.763C336.707 365.763 335.611 365.227 334.517 365.763L310.429 377.567C310.429 377.567 309.334 378.103 310.429 378.639L334.517 390.443C334.517 390.443 335.611 390.979 336.707 390.443L360.795 378.639ZM405.262 375.291C405.262 375.291 405.854 376.477 407.042 375.885L433.165 362.861C433.165 362.861 434.353 362.269 433.761 361.081L420.735 334.959C420.735 334.959 420.143 333.771 418.957 334.363L392.833 347.387C392.833 347.387 391.646 347.979 392.238 349.167L405.262 375.291ZM405.262 380.628C405.262 380.628 405.854 379.44 407.042 380.032L433.165 393.056C433.165 393.056 434.353 393.648 433.761 394.836L420.735 420.959C420.735 420.959 420.143 422.147 418.957 421.555L392.833 408.529C392.833 408.529 391.646 407.939 392.238 406.751L405.262 380.628ZM302.081 380.628C302.081 380.628 302.671 379.44 303.859 380.032L329.982 393.056C329.982 393.056 331.17 393.648 330.578 394.836L317.554 420.959C317.554 420.959 316.962 422.147 315.774 421.555L289.651 408.529C289.651 408.529 288.463 407.939 289.055 406.751L302.081 380.628ZM353.671 334.957C353.671 334.957 354.263 333.771 355.45 334.363L381.574 347.387C381.574 347.387 382.761 347.979 382.169 349.167L369.145 375.289C369.145 375.289 368.553 376.477 367.365 375.885L341.242 362.86C341.242 362.86 340.055 362.269 340.646 361.081L353.671 334.957ZM302.081 375.291C302.081 375.291 302.671 376.477 303.859 375.885L329.982 362.861C329.982 362.861 331.17 362.269 330.578 361.081L317.554 334.959C317.554 334.959 316.962 333.771 315.774 334.363L289.651 347.387C289.651 347.387 288.463 347.979 289.055 349.167L302.081 375.291ZM250.489 334.957C250.489 334.957 251.081 333.771 252.269 334.363L278.391 347.387C278.391 347.387 279.579 347.979 278.987 349.167L265.962 375.289C265.962 375.289 265.37 376.477 264.183 375.885L238.059 362.86C238.059 362.86 236.873 362.269 237.465 361.081L250.489 334.957ZM515.569 332.969C515.569 332.969 516.663 332.433 515.569 331.896L491.481 320.093C491.481 320.093 490.385 319.556 489.29 320.093L465.202 331.896C465.202 331.896 464.107 332.433 465.202 332.969L489.29 344.773C489.29 344.773 490.385 345.309 491.481 344.773L515.569 332.969ZM412.386 332.969C412.386 332.969 413.482 332.433 412.386 331.896L388.298 320.093C388.298 320.093 387.203 319.556 386.107 320.093L362.019 331.896C362.019 331.896 360.925 332.433 362.019 332.969L386.107 344.773C386.107 344.773 387.203 345.309 388.298 344.773L412.386 332.969ZM309.205 332.969C309.205 332.969 310.299 332.433 309.205 331.896L285.115 320.093C285.115 320.093 284.021 319.556 282.926 320.093L258.838 331.896C258.838 331.896 257.743 332.433 258.838 332.969L282.926 344.773C282.926 344.773 284.021 345.309 285.115 344.773L309.205 332.969ZM515.569 424.309C515.569 424.309 516.663 423.772 515.569 423.236L491.481 411.432C491.481 411.432 490.385 410.896 489.29 411.432L465.202 423.236C465.202 423.236 464.107 423.772 465.202 424.309L489.29 436.112C489.29 436.112 490.385 436.648 491.481 436.112L515.569 424.309ZM456.854 426.297C456.854 426.297 457.445 425.109 458.633 425.701L484.755 438.725C484.755 438.725 485.943 439.317 485.351 440.505L472.327 466.629C472.327 466.629 471.735 467.816 470.547 467.224L444.425 454.2C444.425 454.2 443.237 453.608 443.829 452.42L456.854 426.297ZM515.569 515.648C515.569 515.648 516.663 515.112 515.569 514.575L491.481 502.772C491.481 502.772 490.385 502.235 489.29 502.772L465.202 514.575C465.202 514.575 464.107 515.112 465.202 515.648L489.29 527.452C489.29 527.452 490.385 527.988 491.481 527.452L515.569 515.648ZM456.854 512.299C456.854 512.299 457.445 513.487 458.633 512.893L484.755 499.869C484.755 499.869 485.943 499.277 485.351 498.091L472.327 471.967C472.327 471.967 471.735 470.78 470.547 471.372L444.425 484.396C444.425 484.396 443.237 484.988 443.829 486.175L456.854 512.299ZM456.854 517.636C456.854 517.636 457.445 516.449 458.633 517.041L484.755 530.065C484.755 530.065 485.943 530.657 485.351 531.844L472.327 557.968C472.327 557.968 471.735 559.156 470.547 558.564L444.425 545.539C444.425 545.539 443.237 544.947 443.829 543.76L456.854 517.636ZM515.569 606.988C515.569 606.988 516.663 606.451 515.569 605.915L491.481 594.111C491.481 594.111 490.385 593.575 489.29 594.111L465.202 605.915C465.202 605.915 464.107 606.451 465.202 606.987L489.29 618.791C489.29 618.791 490.385 619.327 491.481 618.791L515.569 606.988ZM456.854 603.637C456.854 603.637 457.445 604.825 458.633 604.233L484.755 591.209C484.755 591.209 485.943 590.617 485.351 589.429L472.327 563.307C472.327 563.307 471.735 562.119 470.547 562.711L444.425 575.735C444.425 575.735 443.237 576.327 443.829 577.515L456.854 603.637ZM412.386 424.309C412.386 424.309 413.482 423.772 412.386 423.236L388.298 411.432C388.298 411.432 387.203 410.896 386.107 411.432L362.019 423.236C362.019 423.236 360.925 423.772 362.019 424.309L386.107 436.112C386.107 436.112 387.203 436.648 388.298 436.112L412.386 424.309ZM353.671 426.297C353.671 426.297 354.263 425.109 355.45 425.701L381.574 438.725C381.574 438.725 382.761 439.317 382.169 440.505L369.145 466.629C369.145 466.629 368.553 467.816 367.365 467.224L341.242 454.2C341.242 454.2 340.055 453.608 340.646 452.42L353.671 426.297ZM420.735 426.297C420.735 426.297 420.143 425.109 418.957 425.701L392.833 438.725C392.833 438.725 391.646 439.317 392.238 440.505L405.262 466.629C405.262 466.629 405.854 467.816 407.042 467.224L433.165 454.2C433.165 454.2 434.353 453.608 433.761 452.42L420.735 426.297ZM309.205 424.309C309.205 424.309 310.299 423.772 309.205 423.236L285.115 411.432C285.115 411.432 284.021 410.896 282.926 411.432L258.838 423.236C258.838 423.236 257.743 423.772 258.838 424.309L282.926 436.112C282.926 436.112 284.021 436.648 285.115 436.112L309.205 424.309ZM250.489 426.297C250.489 426.297 251.081 425.109 252.269 425.701L278.391 438.725C278.391 438.725 279.579 439.317 278.987 440.505L265.962 466.629C265.962 466.629 265.37 467.816 264.183 467.224L238.059 454.2C238.059 454.2 236.873 453.608 237.465 452.42L250.489 426.297ZM317.554 426.297C317.554 426.297 316.962 425.109 315.774 425.701L289.651 438.725C289.651 438.725 288.463 439.317 289.055 440.505L302.081 466.629C302.081 466.629 302.671 467.816 303.859 467.224L329.982 454.2C329.982 454.2 331.17 453.608 330.578 452.42L317.554 426.297ZM412.386 515.648C412.386 515.648 413.482 515.112 412.386 514.575L388.298 502.772C388.298 502.772 387.203 502.235 386.107 502.772L362.019 514.575C362.019 514.575 360.925 515.112 362.019 515.648L386.107 527.452C386.107 527.452 387.203 527.988 388.298 527.452L412.386 515.648ZM353.671 512.299C353.671 512.299 354.263 513.487 355.45 512.893L381.574 499.869C381.574 499.869 382.761 499.277 382.169 498.091L369.145 471.967C369.145 471.967 368.553 470.78 367.365 471.372L341.242 484.396C341.242 484.396 340.055 484.988 340.646 486.175L353.671 512.299ZM420.735 512.299C420.735 512.299 420.143 513.487 418.957 512.893L392.833 499.869C392.833 499.869 391.646 499.277 392.238 498.091L405.262 471.967C405.262 471.967 405.854 470.78 407.042 471.372L433.165 484.396C433.165 484.396 434.353 484.988 433.761 486.175L420.735 512.299ZM353.671 517.636C353.671 517.636 354.263 516.449 355.45 517.041L381.574 530.065C381.574 530.065 382.761 530.657 382.169 531.844L369.145 557.968C369.145 557.968 368.553 559.156 367.365 558.564L341.242 545.539C341.242 545.539 340.055 544.947 340.646 543.76L353.671 517.636ZM420.735 517.636C420.735 517.636 420.143 516.449 418.957 517.041L392.833 530.065C392.833 530.065 391.646 530.657 392.238 531.844L405.262 557.968C405.262 557.968 405.854 559.156 407.042 558.564L433.165 545.539C433.165 545.539 434.353 544.947 433.761 543.76L420.735 517.636ZM360.795 469.979C360.795 469.979 361.89 469.441 360.795 468.905L336.707 457.103C336.707 457.103 335.611 456.565 334.517 457.103L310.429 468.905C310.429 468.905 309.334 469.441 310.429 469.979L334.517 481.781C334.517 481.781 335.611 482.319 336.707 481.781L360.795 469.979ZM302.081 471.967C302.081 471.967 302.671 470.779 303.859 471.372L329.982 484.396C329.982 484.396 331.17 484.988 330.578 486.175L317.554 512.299C317.554 512.299 316.962 513.485 315.774 512.893L289.651 499.869C289.651 499.869 288.463 499.277 289.055 498.089L302.081 471.967ZM463.978 469.979C463.978 469.979 465.073 469.441 463.978 468.905L439.889 457.103C439.889 457.103 438.794 456.565 437.699 457.103L413.611 468.905C413.611 468.905 412.517 469.441 413.611 469.979L437.699 481.781C437.699 481.781 438.794 482.319 439.889 481.781L463.978 469.979ZM463.978 561.317C463.978 561.317 465.073 560.781 463.978 560.244L439.889 548.441C439.889 548.441 438.794 547.905 437.699 548.441L413.611 560.245C413.611 560.245 412.517 560.781 413.611 561.317L437.699 573.12C437.699 573.12 438.794 573.657 439.889 573.12L463.978 561.317ZM360.795 561.317C360.795 561.317 361.89 560.781 360.795 560.244L336.707 548.441C336.707 548.441 335.611 547.905 334.517 548.441L310.429 560.245C310.429 560.245 309.334 560.781 310.429 561.317L334.517 573.12C334.517 573.12 335.611 573.657 336.707 573.12L360.795 561.317ZM309.205 515.648C309.205 515.648 310.299 515.112 309.205 514.575L285.115 502.772C285.115 502.772 284.021 502.235 282.926 502.772L258.838 514.575C258.838 514.575 257.743 515.112 258.838 515.648L282.926 527.452C282.926 527.452 284.021 527.988 285.115 527.452L309.205 515.648ZM206.022 515.648C206.022 515.648 207.117 515.112 206.022 514.575L181.933 502.772C181.933 502.772 180.838 502.235 179.743 502.772L155.655 514.575C155.655 514.575 154.561 515.112 155.655 515.648L179.743 527.452C179.743 527.452 180.838 527.988 181.933 527.452L206.022 515.648ZM102.839 515.648C102.839 515.648 103.934 515.112 102.839 514.575L78.7514 502.772C78.7514 502.772 77.6554 502.235 76.5607 502.772L52.4727 514.575C52.4727 514.575 51.3781 515.112 52.4727 515.648L76.5607 527.452C76.5607 527.452 77.6554 527.988 78.7514 527.452L102.839 515.648ZM206.022 332.969C206.022 332.969 207.117 332.433 206.022 331.896L181.933 320.093C181.933 320.093 180.838 319.556 179.743 320.093L155.655 331.897C155.655 331.897 154.561 332.433 155.655 332.969L179.743 344.773C179.743 344.773 180.838 345.309 181.933 344.773L206.022 332.969ZM102.839 332.969C102.839 332.969 103.934 332.433 102.839 331.896L78.7514 320.093C78.7514 320.093 77.6554 319.556 76.5607 320.093L52.4727 331.897C52.4727 331.897 51.3781 332.433 52.4727 332.969L76.5607 344.773C76.5607 344.773 77.6554 345.309 78.7514 344.773L102.839 332.969ZM250.489 512.299C250.489 512.299 251.081 513.487 252.269 512.893L278.391 499.869C278.391 499.869 279.579 499.277 278.987 498.091L265.962 471.967C265.962 471.967 265.37 470.78 264.183 471.372L238.059 484.396C238.059 484.396 236.873 484.988 237.465 486.175L250.489 512.299ZM250.489 517.636C250.489 517.636 251.081 516.449 252.269 517.041L278.391 530.065C278.391 530.065 279.579 530.657 278.987 531.844L265.962 557.968C265.962 557.968 265.37 559.156 264.183 558.564L238.059 545.539C238.059 545.539 236.873 544.947 237.465 543.76L250.489 517.636ZM317.554 517.636C317.554 517.636 316.962 516.449 315.774 517.041L289.651 530.065C289.651 530.065 288.463 530.657 289.055 531.844L302.081 557.968C302.081 557.968 302.671 559.156 303.859 558.564L329.982 545.539C329.982 545.539 331.17 544.947 330.578 543.76L317.554 517.636ZM405.262 563.305C405.262 563.305 405.854 562.119 407.042 562.711L433.165 575.735C433.165 575.735 434.353 576.327 433.761 577.515L420.735 603.637C420.735 603.637 420.143 604.825 418.957 604.233L392.833 591.208C392.833 591.208 391.646 590.616 392.238 589.429L405.262 563.305ZM412.386 606.988C412.386 606.988 413.482 606.451 412.386 605.915L388.298 594.111C388.298 594.111 387.203 593.575 386.107 594.111L362.019 605.915C362.019 605.915 360.925 606.451 362.019 606.987L386.107 618.791C386.107 618.791 387.203 619.327 388.298 618.791L412.386 606.988ZM353.671 603.637C353.671 603.637 354.263 604.825 355.45 604.233L381.574 591.209C381.574 591.209 382.761 590.617 382.169 589.429L369.145 563.307C369.145 563.307 368.553 562.119 367.365 562.711L341.242 575.735C341.242 575.735 340.055 576.327 340.646 577.515L353.671 603.637ZM302.081 563.305C302.081 563.305 302.671 562.119 303.859 562.711L329.982 575.735C329.982 575.735 331.17 576.327 330.578 577.515L317.554 603.637C317.554 603.637 316.962 604.825 315.774 604.233L289.651 591.208C289.651 591.208 288.463 590.616 289.055 589.429L302.081 563.305ZM309.205 606.988C309.205 606.988 310.299 606.451 309.205 605.915L285.115 594.111C285.115 594.111 284.021 593.575 282.926 594.111L258.838 605.915C258.838 605.915 257.743 606.451 258.838 606.987L282.926 618.791C282.926 618.791 284.021 619.327 285.115 618.791L309.205 606.988ZM250.489 603.637C250.489 603.637 251.081 604.825 252.269 604.233L278.391 591.209C278.391 591.209 279.579 590.617 278.987 589.429L265.962 563.307C265.962 563.307 265.37 562.119 264.183 562.711L238.059 575.735C238.059 575.735 236.873 576.327 237.465 577.515L250.489 603.637ZM257.613 13.2813C257.613 13.2813 258.707 12.7453 257.613 12.2093L233.525 0.40531C233.525 0.40531 232.43 -0.13069 231.334 0.40531L207.246 12.2093C207.246 12.2093 206.151 12.7453 207.246 13.2813L231.334 25.0853C231.334 25.0853 232.43 25.6213 233.525 25.0853L257.613 13.2813ZM154.43 13.2813C154.43 13.2813 155.526 12.7453 154.43 12.2093L130.342 0.40531C130.342 0.40531 129.247 -0.13069 128.153 0.40531L104.065 12.2093C104.065 12.2093 102.97 12.7453 104.065 13.2813L128.153 25.0853C128.153 25.0853 129.247 25.6213 130.342 25.0853L154.43 13.2813ZM198.898 15.2693C198.898 15.2693 199.49 14.0826 200.677 14.6746L226.801 27.6986C226.801 27.6986 227.987 28.2906 227.395 29.4786L214.371 55.6013C214.371 55.6013 213.779 56.7893 212.591 56.1973L186.469 43.172C186.469 43.172 185.281 42.5813 185.873 41.3933L198.898 15.2693ZM162.779 106.609C162.779 106.609 162.189 105.421 161.001 106.015L134.878 119.039C134.878 119.039 133.69 119.629 134.282 120.817L147.306 146.941C147.306 146.941 147.898 148.128 149.086 147.536L175.209 134.512C175.209 134.512 176.397 133.92 175.805 132.732L162.779 106.609ZM59.598 106.609C59.598 106.609 59.0061 105.421 57.8181 106.015L31.6954 119.039C31.6954 119.039 30.5074 119.629 31.0994 120.817L44.1247 146.941C44.1247 146.941 44.7167 148.128 45.9034 147.536L72.0274 134.512C72.0274 134.512 73.2141 133.92 72.6221 132.732L59.598 106.609ZM95.7154 15.2693C95.7154 15.2693 96.3074 14.0826 97.4954 14.6746L123.618 27.6986C123.618 27.6986 124.805 28.2906 124.214 29.4786L111.189 55.6013C111.189 55.6013 110.597 56.7893 109.41 56.1973L83.286 43.172C83.286 43.172 82.0994 42.5813 82.6914 41.3933L95.7154 15.2693ZM95.7154 101.272C95.7154 101.272 96.3074 102.459 97.4954 101.867L123.618 88.8426C123.618 88.8426 124.805 88.2506 124.214 87.0626L111.189 60.94C111.189 60.94 110.597 59.7519 109.41 60.3439L83.286 73.3693C83.286 73.3693 82.0994 73.9599 82.6914 75.1479L95.7154 101.272ZM102.839 58.9519C102.839 58.9519 103.934 58.4146 102.839 57.8786L78.7514 46.0746C78.7514 46.0746 77.6554 45.5386 76.5607 46.0746L52.4727 57.8786C52.4727 57.8786 51.3781 58.4146 52.4727 58.9506L76.5607 70.7546C76.5607 70.7546 77.6554 71.2906 78.7514 70.7546L102.839 58.9519ZM44.1247 55.6013C44.1247 55.6013 44.7167 56.7893 45.9034 56.1973L72.0274 43.1733C72.0274 43.1733 73.2141 42.5813 72.6221 41.3933L59.598 15.2706C59.598 15.2706 59.0061 14.0826 57.8181 14.6746L31.6954 27.6986C31.6954 27.6986 30.5074 28.2906 31.0994 29.4786L44.1247 55.6013ZM44.1247 60.94C44.1247 60.94 44.7167 59.7519 45.9034 60.3439L72.0274 73.368C72.0274 73.368 73.2141 73.9599 72.6221 75.1479L59.598 101.271C59.598 101.271 59.0061 102.459 57.8181 101.867L31.6954 88.8426C31.6954 88.8426 30.5074 88.2506 31.0994 87.0626L44.1247 60.94ZM51.2487 13.2813C51.2487 13.2813 52.3434 12.7453 51.2487 12.2093L27.1594 0.40531C27.1594 0.40531 26.0647 -0.13069 24.97 0.40531L0.882026 12.2093C0.882026 12.2093 -0.21264 12.7453 0.882026 13.2813L24.97 25.0853C24.97 25.0853 26.0647 25.6213 27.1594 25.0853L51.2487 13.2813ZM51.2487 104.621C51.2487 104.621 52.3434 104.084 51.2487 103.548L27.1594 91.744C27.1594 91.744 26.0647 91.208 24.97 91.744L0.882026 103.548C0.882026 103.548 -0.21264 104.084 0.882026 104.621L24.97 116.424C24.97 116.424 26.0647 116.96 27.1594 116.424L51.2487 104.621ZM198.898 192.612C198.898 192.612 199.49 193.799 200.677 193.207L226.801 180.183C226.801 180.183 227.987 179.591 227.395 178.403L214.371 152.28C214.371 152.28 213.779 151.092 212.591 151.684L186.469 164.709C186.469 164.709 185.281 165.3 185.873 166.488L198.898 192.612ZM95.7154 192.612C95.7154 192.612 96.3074 193.799 97.4954 193.207L123.618 180.183C123.618 180.183 124.805 179.591 124.214 178.403L111.189 152.28C111.189 152.28 110.597 151.092 109.41 151.684L83.286 164.709C83.286 164.709 82.0994 165.3 82.6914 166.488L95.7154 192.612ZM44.1247 152.279C44.1247 152.279 44.7167 151.092 45.9034 151.684L72.0274 164.708C72.0274 164.708 73.2141 165.3 72.6221 166.488L59.598 192.611C59.598 192.611 59.0061 193.799 57.8181 193.207L31.6954 180.181C31.6954 180.181 30.5074 179.591 31.0994 178.403L44.1247 152.279ZM198.898 375.291C198.898 375.291 199.49 376.477 200.677 375.885L226.801 362.861C226.801 362.861 227.987 362.269 227.395 361.081L214.371 334.959C214.371 334.959 213.779 333.771 212.591 334.363L186.469 347.387C186.469 347.387 185.281 347.979 185.873 349.167L198.898 375.291ZM147.306 334.957C147.306 334.957 147.898 333.771 149.086 334.363L175.209 347.387C175.209 347.387 176.397 347.979 175.805 349.167L162.779 375.289C162.779 375.289 162.189 376.477 161.001 375.885L134.878 362.86C134.878 362.86 133.69 362.269 134.282 361.081L147.306 334.957ZM95.7154 375.291C95.7154 375.291 96.3074 376.477 97.4954 375.885L123.618 362.861C123.618 362.861 124.805 362.269 124.214 361.081L111.189 334.959C111.189 334.959 110.597 333.771 109.41 334.363L83.286 347.387C83.286 347.387 82.0994 347.979 82.6914 349.167L95.7154 375.291ZM44.1247 334.957C44.1247 334.957 44.7167 333.771 45.9034 334.363L72.0274 347.387C72.0274 347.387 73.2141 347.979 72.6221 349.167L59.598 375.289C59.598 375.289 59.0061 376.477 57.8181 375.885L31.6954 362.86C31.6954 362.86 30.5074 362.269 31.0994 361.081L44.1247 334.957ZM198.898 557.968C198.898 557.968 199.49 559.156 200.677 558.564L226.801 545.54C226.801 545.54 227.987 544.947 227.395 543.76L214.371 517.636C214.371 517.636 213.779 516.449 212.591 517.041L186.469 530.065C186.469 530.065 185.281 530.657 185.873 531.845L198.898 557.968ZM147.306 517.636C147.306 517.636 147.898 516.449 149.086 517.041L175.209 530.065C175.209 530.065 176.397 530.657 175.805 531.844L162.779 557.968C162.779 557.968 162.189 559.156 161.001 558.564L134.878 545.539C134.878 545.539 133.69 544.947 134.282 543.76L147.306 517.636ZM95.7154 557.968C95.7154 557.968 96.3074 559.156 97.4954 558.564L123.618 545.54C123.618 545.54 124.805 544.947 124.214 543.76L111.189 517.636C111.189 517.636 110.597 516.449 109.41 517.041L83.286 530.065C83.286 530.065 82.0994 530.657 82.6914 531.845L95.7154 557.968ZM44.1247 517.636C44.1247 517.636 44.7167 516.449 45.9034 517.041L72.0274 530.065C72.0274 530.065 73.2141 530.657 72.6221 531.844L59.598 557.968C59.598 557.968 59.0061 559.156 57.8181 558.564L31.6954 545.539C31.6954 545.539 30.5074 544.947 31.0994 543.76L44.1247 517.636ZM198.898 197.949C198.898 197.949 199.49 196.761 200.677 197.353L226.801 210.377C226.801 210.377 227.987 210.969 227.395 212.157L214.371 238.28C214.371 238.28 213.779 239.468 212.591 238.876L186.469 225.852C186.469 225.852 185.281 225.26 185.873 224.072L198.898 197.949ZM154.43 287.3C154.43 287.3 155.526 286.763 154.43 286.227L130.342 274.424C130.342 274.424 129.247 273.887 128.153 274.424L104.065 286.227C104.065 286.227 102.97 286.763 104.065 287.3L128.153 299.103C128.153 299.103 129.247 299.64 130.342 299.103L154.43 287.3ZM198.898 283.951C198.898 283.951 199.49 285.137 200.677 284.545L226.801 271.521C226.801 271.521 227.987 270.929 227.395 269.743L214.371 243.619C214.371 243.619 213.779 242.431 212.591 243.023L186.469 256.048C186.469 256.048 185.281 256.64 185.873 257.827L198.898 283.951ZM198.898 289.288C198.898 289.288 199.49 288.101 200.677 288.693L226.801 301.717C226.801 301.717 227.987 302.309 227.395 303.496L214.371 329.62C214.371 329.62 213.779 330.807 212.591 330.215L186.469 317.191C186.469 317.191 185.281 316.599 185.873 315.411L198.898 289.288ZM95.7154 289.288C95.7154 289.288 96.3074 288.101 97.4954 288.693L123.618 301.717C123.618 301.717 124.805 302.309 124.214 303.496L111.189 329.62C111.189 329.62 110.597 330.807 109.41 330.215L83.286 317.191C83.286 317.191 82.0994 316.599 82.6914 315.411L95.7154 289.288ZM162.779 289.288C162.779 289.288 162.189 288.101 161.001 288.693L134.878 301.717C134.878 301.717 133.69 302.309 134.282 303.496L147.306 329.62C147.306 329.62 147.898 330.807 149.086 330.215L175.209 317.191C175.209 317.191 176.397 316.599 175.805 315.411L162.779 289.288ZM59.598 289.288C59.598 289.288 59.0061 288.101 57.8181 288.693L31.6954 301.717C31.6954 301.717 30.5074 302.309 31.0994 303.496L44.1247 329.62C44.1247 329.62 44.7167 330.807 45.9034 330.215L72.0274 317.191C72.0274 317.191 73.2141 316.599 72.6221 315.411L59.598 289.288ZM206.022 241.631C206.022 241.631 207.117 241.093 206.022 240.557L181.933 228.753C181.933 228.753 180.838 228.217 179.743 228.753L155.655 240.557C155.655 240.557 154.561 241.093 155.655 241.631L179.743 253.433C179.743 253.433 180.838 253.969 181.933 253.433L206.022 241.631ZM147.306 238.281C147.306 238.281 147.898 239.468 149.086 238.876L175.209 225.852C175.209 225.852 176.397 225.26 175.805 224.072L162.779 197.949C162.779 197.949 162.189 196.761 161.001 197.353L134.878 210.379C134.878 210.379 133.69 210.969 134.282 212.157L147.306 238.281ZM147.306 243.619C147.306 243.619 147.898 242.431 149.086 243.023L175.209 256.048C175.209 256.048 176.397 256.639 175.805 257.827L162.779 283.951C162.779 283.951 162.189 285.137 161.001 284.545L134.878 271.521C134.878 271.521 133.69 270.929 134.282 269.741L147.306 243.619ZM95.7154 197.949C95.7154 197.949 96.3074 196.761 97.4954 197.353L123.618 210.377C123.618 210.377 124.805 210.969 124.214 212.157L111.189 238.28C111.189 238.28 110.597 239.468 109.41 238.876L83.286 225.852C83.286 225.852 82.0994 225.26 82.6914 224.072L95.7154 197.949ZM95.7154 283.951C95.7154 283.951 96.3074 285.137 97.4954 284.545L123.618 271.521C123.618 271.521 124.805 270.929 124.214 269.743L111.189 243.619C111.189 243.619 110.597 242.431 109.41 243.023L83.286 256.048C83.286 256.048 82.0994 256.64 82.6914 257.827L95.7154 283.951ZM102.839 241.631C102.839 241.631 103.934 241.093 102.839 240.557L78.7514 228.753C78.7514 228.753 77.6554 228.217 76.5607 228.753L52.4727 240.557C52.4727 240.557 51.3781 241.093 52.4727 241.631L76.5607 253.433C76.5607 253.433 77.6554 253.969 78.7514 253.433L102.839 241.631ZM44.1247 238.281C44.1247 238.281 44.7167 239.468 45.9034 238.876L72.0274 225.852C72.0274 225.852 73.2141 225.26 72.6221 224.072L59.598 197.949C59.598 197.949 59.0061 196.761 57.8181 197.353L31.6954 210.379C31.6954 210.379 30.5074 210.969 31.0994 212.157L44.1247 238.281ZM44.1247 243.619C44.1247 243.619 44.7167 242.431 45.9034 243.023L72.0274 256.048C72.0274 256.048 73.2141 256.639 72.6221 257.827L59.598 283.951C59.598 283.951 59.0061 285.137 57.8181 284.545L31.6954 271.521C31.6954 271.521 30.5074 270.929 31.0994 269.741L44.1247 243.619ZM51.2487 195.96C51.2487 195.96 52.3434 195.424 51.2487 194.888L27.1594 183.084C27.1594 183.084 26.0647 182.548 24.97 183.084L0.882026 194.888C0.882026 194.888 -0.21264 195.424 0.882026 195.96L24.97 207.764C24.97 207.764 26.0647 208.3 27.1594 207.764L51.2487 195.96ZM51.2487 287.3C51.2487 287.3 52.3434 286.763 51.2487 286.227L27.1594 274.424C27.1594 274.424 26.0647 273.887 24.97 274.424L0.882026 286.227C0.882026 286.227 -0.21264 286.763 0.882026 287.3L24.97 299.103C24.97 299.103 26.0647 299.64 27.1594 299.103L51.2487 287.3ZM257.613 378.639C257.613 378.639 258.707 378.103 257.613 377.565L233.525 365.763C233.525 365.763 232.43 365.227 231.334 365.763L207.246 377.567C207.246 377.567 206.151 378.103 207.246 378.639L231.334 390.443C231.334 390.443 232.43 390.979 233.525 390.443L257.613 378.639ZM154.43 378.639C154.43 378.639 155.526 378.103 154.43 377.565L130.342 365.763C130.342 365.763 129.247 365.227 128.153 365.763L104.065 377.567C104.065 377.567 102.97 378.103 104.065 378.639L128.153 390.443C128.153 390.443 129.247 390.979 130.342 390.443L154.43 378.639ZM198.898 380.628C198.898 380.628 199.49 379.44 200.677 380.032L226.801 393.056C226.801 393.056 227.987 393.648 227.395 394.836L214.371 420.959C214.371 420.959 213.779 422.147 212.591 421.555L186.469 408.529C186.469 408.529 185.281 407.939 185.873 406.751L198.898 380.628ZM257.613 469.979C257.613 469.979 258.707 469.441 257.613 468.905L233.525 457.103C233.525 457.103 232.43 456.565 231.334 457.103L207.246 468.905C207.246 468.905 206.151 469.441 207.246 469.979L231.334 481.781C231.334 481.781 232.43 482.319 233.525 481.781L257.613 469.979ZM154.43 469.979C154.43 469.979 155.526 469.441 154.43 468.905L130.342 457.103C130.342 457.103 129.247 456.565 128.153 457.103L104.065 468.905C104.065 468.905 102.97 469.441 104.065 469.979L128.153 481.781C128.153 481.781 129.247 482.319 130.342 481.781L154.43 469.979ZM198.898 466.629C198.898 466.629 199.49 467.816 200.677 467.224L226.801 454.2C226.801 454.2 227.987 453.608 227.395 452.42L214.371 426.297C214.371 426.297 213.779 425.109 212.591 425.701L186.469 438.727C186.469 438.727 185.281 439.319 185.873 440.505L198.898 466.629ZM198.898 471.967C198.898 471.967 199.49 470.779 200.677 471.372L226.801 484.396C226.801 484.396 227.987 484.988 227.395 486.175L214.371 512.299C214.371 512.299 213.779 513.485 212.591 512.893L186.469 499.869C186.469 499.869 185.281 499.277 185.873 498.089L198.898 471.967ZM95.7154 471.967C95.7154 471.967 96.3074 470.779 97.4954 471.372L123.618 484.396C123.618 484.396 124.805 484.988 124.214 486.175L111.189 512.299C111.189 512.299 110.597 513.485 109.41 512.893L83.286 499.869C83.286 499.869 82.0994 499.277 82.6914 498.089L95.7154 471.967ZM162.779 471.967C162.779 471.967 162.189 470.779 161.001 471.372L134.878 484.396C134.878 484.396 133.69 484.988 134.282 486.175L147.306 512.299C147.306 512.299 147.898 513.485 149.086 512.893L175.209 499.869C175.209 499.869 176.397 499.277 175.805 498.089L162.779 471.967ZM59.598 471.967C59.598 471.967 59.0061 470.779 57.8181 471.372L31.6954 484.396C31.6954 484.396 30.5074 484.988 31.0994 486.175L44.1247 512.299C44.1247 512.299 44.7167 513.485 45.9034 512.893L72.0274 499.869C72.0274 499.869 73.2141 499.277 72.6221 498.089L59.598 471.967ZM206.022 424.309C206.022 424.309 207.117 423.772 206.022 423.236L181.933 411.432C181.933 411.432 180.838 410.896 179.743 411.432L155.655 423.236C155.655 423.236 154.561 423.772 155.655 424.309L179.743 436.112C179.743 436.112 180.838 436.648 181.933 436.112L206.022 424.309ZM147.306 420.96C147.306 420.96 147.898 422.147 149.086 421.555L175.209 408.531C175.209 408.531 176.397 407.939 175.805 406.751L162.779 380.628C162.779 380.628 162.189 379.44 161.001 380.032L134.878 393.056C134.878 393.056 133.69 393.648 134.282 394.836L147.306 420.96ZM147.306 426.297C147.306 426.297 147.898 425.109 149.086 425.701L175.209 438.725C175.209 438.725 176.397 439.317 175.805 440.505L162.779 466.629C162.779 466.629 162.189 467.816 161.001 467.224L134.878 454.2C134.878 454.2 133.69 453.608 134.282 452.42L147.306 426.297ZM95.7154 380.628C95.7154 380.628 96.3074 379.44 97.4954 380.032L123.618 393.056C123.618 393.056 124.805 393.648 124.214 394.836L111.189 420.959C111.189 420.959 110.597 422.147 109.41 421.555L83.286 408.529C83.286 408.529 82.0994 407.939 82.6914 406.751L95.7154 380.628ZM95.7154 466.629C95.7154 466.629 96.3074 467.816 97.4954 467.224L123.618 454.2C123.618 454.2 124.805 453.608 124.214 452.42L111.189 426.297C111.189 426.297 110.597 425.109 109.41 425.701L83.286 438.727C83.286 438.727 82.0994 439.319 82.6914 440.505L95.7154 466.629ZM102.839 424.309C102.839 424.309 103.934 423.772 102.839 423.236L78.7514 411.432C78.7514 411.432 77.6554 410.896 76.5607 411.432L52.4727 423.236C52.4727 423.236 51.3781 423.772 52.4727 424.309L76.5607 436.112C76.5607 436.112 77.6554 436.648 78.7514 436.112L102.839 424.309ZM44.1247 420.96C44.1247 420.96 44.7167 422.147 45.9034 421.555L72.0274 408.531C72.0274 408.531 73.2141 407.939 72.6221 406.751L59.598 380.628C59.598 380.628 59.0061 379.44 57.8181 380.032L31.6954 393.056C31.6954 393.056 30.5074 393.648 31.0994 394.836L44.1247 420.96ZM44.1247 426.297C44.1247 426.297 44.7167 425.109 45.9034 425.701L72.0274 438.725C72.0274 438.725 73.2141 439.317 72.6221 440.505L59.598 466.629C59.598 466.629 59.0061 467.816 57.8181 467.224L31.6954 454.2C31.6954 454.2 30.5074 453.608 31.0994 452.42L44.1247 426.297ZM51.2487 378.639C51.2487 378.639 52.3434 378.103 51.2487 377.565L27.1594 365.763C27.1594 365.763 26.0647 365.227 24.97 365.763L0.882026 377.567C0.882026 377.567 -0.21264 378.103 0.882026 378.639L24.97 390.443C24.97 390.443 26.0647 390.979 27.1594 390.443L51.2487 378.639ZM51.2487 469.979C51.2487 469.979 52.3434 469.441 51.2487 468.905L27.1594 457.103C27.1594 457.103 26.0647 456.565 24.97 457.103L0.882026 468.905C0.882026 468.905 -0.21264 469.441 0.882026 469.979L24.97 481.781C24.97 481.781 26.0647 482.319 27.1594 481.781L51.2487 469.979ZM257.613 561.317C257.613 561.317 258.707 560.781 257.613 560.244L233.525 548.441C233.525 548.441 232.43 547.905 231.334 548.441L207.246 560.245C207.246 560.245 206.151 560.781 207.246 561.317L231.334 573.12C231.334 573.12 232.43 573.657 233.525 573.12L257.613 561.317ZM154.43 561.317C154.43 561.317 155.526 560.781 154.43 560.244L130.342 548.441C130.342 548.441 129.247 547.905 128.153 548.441L104.065 560.245C104.065 560.245 102.97 560.781 104.065 561.317L128.153 573.12C128.153 573.12 129.247 573.657 130.342 573.12L154.43 561.317ZM198.898 563.305C198.898 563.305 199.49 562.119 200.677 562.711L226.801 575.735C226.801 575.735 227.987 576.327 227.395 577.515L214.371 603.637C214.371 603.637 213.779 604.825 212.591 604.233L186.469 591.208C186.469 591.208 185.281 590.616 185.873 589.429L198.898 563.305ZM206.022 606.988C206.022 606.988 207.117 606.451 206.022 605.915L181.933 594.111C181.933 594.111 180.838 593.575 179.743 594.111L155.655 605.915C155.655 605.915 154.561 606.451 155.655 606.987L179.743 618.791C179.743 618.791 180.838 619.327 181.933 618.791L206.022 606.988ZM147.306 603.637C147.306 603.637 147.898 604.825 149.086 604.233L175.209 591.209C175.209 591.209 176.397 590.617 175.805 589.429L162.779 563.307C162.779 563.307 162.189 562.119 161.001 562.711L134.878 575.735C134.878 575.735 133.69 576.327 134.282 577.515L147.306 603.637ZM95.7154 563.305C95.7154 563.305 96.3074 562.119 97.4954 562.711L123.618 575.735C123.618 575.735 124.805 576.327 124.214 577.515L111.189 603.637C111.189 603.637 110.597 604.825 109.41 604.233L83.286 591.208C83.286 591.208 82.0994 590.616 82.6914 589.429L95.7154 563.305ZM102.839 606.988C102.839 606.988 103.934 606.451 102.839 605.915L78.7514 594.111C78.7514 594.111 77.6554 593.575 76.5607 594.111L52.4727 605.915C52.4727 605.915 51.3781 606.451 52.4727 606.987L76.5607 618.791C76.5607 618.791 77.6554 619.327 78.7514 618.791L102.839 606.988ZM44.1247 603.637C44.1247 603.637 44.7167 604.825 45.9034 604.233L72.0274 591.209C72.0274 591.209 73.2141 590.617 72.6221 589.429L59.598 563.307C59.598 563.307 59.0061 562.119 57.8181 562.711L31.6954 575.735C31.6954 575.735 30.5074 576.327 31.0994 577.515L44.1247 603.637ZM51.2487 561.317C51.2487 561.317 52.3434 560.781 51.2487 560.244L27.1594 548.441C27.1594 548.441 26.0647 547.905 24.97 548.441L0.882026 560.245C0.882026 560.245 -0.21264 560.781 0.882026 561.317L24.97 573.12C24.97 573.12 26.0647 573.657 27.1594 573.12L51.2487 561.317Z" stroke="#A7A5A6" stroke-width="0.8" stroke-miterlimit="10"/>
</g>
<defs>
<clipPath id="clip0_2936_92">
<rect width="516.451" height="309.597" fill="white"/>
</clipPath>
</defs>
</svg>
