<svg width="109" height="334" viewBox="0 0 109 334" fill="none" xmlns="http://www.w3.org/2000/svg">
<g clip-path="url(#clip0_3465_3364)">
<path d="M4.38639 63.4887C4.38639 63.4887 5.48106 62.9117 4.38639 62.3332L-19.7016 49.6267C-19.7016 49.6267 -20.7976 49.0482 -21.8923 49.6267L-45.9803 62.3332C-45.9803 62.3332 -47.0749 62.9117 -45.9803 63.4887L-21.8923 76.1953C-21.8923 76.1953 -20.7976 76.7738 -19.7016 76.1953L4.38639 63.4887Z" fill="#686FAF" fill-opacity="0.5"/>
<path d="M4.38639 63.4887C4.38639 63.4887 5.48106 62.9117 4.38639 62.3332L-19.7016 49.6267C-19.7016 49.6267 -20.7976 49.0482 -21.8923 49.6267L-45.9803 62.3332C-45.9803 62.3332 -47.0749 62.9117 -45.9803 63.4887L-21.8923 76.1953C-21.8923 76.1953 -20.7976 76.7738 -19.7016 76.1953L4.38639 63.4887Z" stroke="#686FAF" stroke-opacity="0.5" stroke-width="1.33333" stroke-miterlimit="10"/>
<path d="M12.7358 59.8831C12.7358 59.8831 12.1438 61.1606 10.9571 60.5233L-15.1669 46.5019C-15.1669 46.5019 -16.3536 45.8645 -15.7629 44.587L-2.73757 16.4623C-2.73757 16.4623 -2.14557 15.1848 -0.958899 15.8207L25.1651 29.8435C25.1651 29.8435 26.3518 30.4809 25.7611 31.7584L12.7358 59.8831Z" fill="#686FAF" fill-opacity="0.7"/>
<path d="M12.7358 65.6291C12.7358 65.6291 12.1438 64.3515 10.9571 64.9889L-15.1669 79.0103C-15.1669 79.0103 -16.3536 79.6476 -15.7629 80.9252L-2.73757 109.05C-2.73757 109.05 -2.14557 110.327 -0.958899 109.691L25.1651 95.6686C25.1651 95.6686 26.3518 95.0313 25.7611 93.7537L12.7358 65.6291Z" fill="#686FAF" fill-opacity="0.5"/>
<path d="M4.38639 161.823C4.38639 161.823 5.48106 161.246 4.38639 160.667L-19.7016 147.961C-19.7016 147.961 -20.7976 147.382 -21.8923 147.961L-45.9803 160.667C-45.9803 160.667 -47.0749 161.246 -45.9803 161.823L-21.8923 174.53C-21.8923 174.53 -20.7976 175.108 -19.7016 174.53L4.38639 161.823Z" fill="#686FAF" fill-opacity="0.8"/>
<path d="M4.38639 161.823C4.38639 161.823 5.48106 161.246 4.38639 160.667L-19.7016 147.961C-19.7016 147.961 -20.7976 147.382 -21.8923 147.961L-45.9803 160.667C-45.9803 160.667 -47.0749 161.246 -45.9803 161.823L-21.8923 174.53C-21.8923 174.53 -20.7976 175.108 -19.7016 174.53L4.38639 161.823Z" stroke="#686FAF" stroke-opacity="0.5" stroke-width="1.33333" stroke-miterlimit="10"/>
<path d="M12.7358 158.217C12.7358 158.217 12.1438 159.495 10.9571 158.857L-15.1669 144.836C-15.1669 144.836 -16.3536 144.199 -15.7629 142.921L-2.73757 114.797C-2.73757 114.797 -2.14557 113.519 -0.958899 114.155L25.1651 128.178C25.1651 128.178 26.3518 128.815 25.7611 130.093L12.7358 158.217Z" fill="#686FAF" fill-opacity="0.8"/>
<path d="M55.9777 112.656C55.9777 112.656 57.0724 112.079 55.9777 111.5L31.8897 98.7939C31.8897 98.7939 30.7937 98.2154 29.699 98.7939L5.61103 111.5C5.61103 111.5 4.51636 112.079 5.61103 112.656L29.699 125.363C29.699 125.363 30.7937 125.941 31.8897 125.363L55.9777 112.656Z" fill="#686FAF" fill-opacity="0.8"/>
<path d="M55.9777 112.656C55.9777 112.656 57.0724 112.079 55.9777 111.5L31.8897 98.7939C31.8897 98.7939 30.7937 98.2154 29.699 98.7939L5.61103 111.5C5.61103 111.5 4.51636 112.079 5.61103 112.656L29.699 125.363C29.699 125.363 30.7937 125.941 31.8897 125.363L55.9777 112.656Z" stroke="#686FAF" stroke-opacity="0.5" stroke-width="1.33333" stroke-miterlimit="10"/>
<path d="M107.569 63.4888C107.569 63.4888 108.663 62.9118 107.569 62.3333L83.4807 49.6268C83.4807 49.6268 82.3847 49.0483 81.29 49.6268L57.202 62.3333C57.202 62.3333 56.1073 62.9118 57.202 63.4888L81.29 76.1954C81.29 76.1954 82.3847 76.7739 83.4807 76.1954L107.569 63.4888ZM48.854 59.883C48.854 59.883 49.4447 61.1606 50.6327 60.5232L76.7553 46.5018C76.7553 46.5018 77.9433 45.8645 77.3513 44.5869L64.3274 16.4623C64.3274 16.4623 63.7353 15.1848 62.5473 15.8207L36.4247 29.8435C36.4247 29.8435 35.2367 30.4809 35.8287 31.7584L48.854 59.883ZM48.854 65.6291C48.854 65.6291 49.4447 64.3516 50.6327 64.9889L76.7553 79.0103C76.7553 79.0103 77.9433 79.6476 77.3513 80.9252L64.3274 109.05C64.3274 109.05 63.7353 110.327 62.5473 109.691L36.4247 95.6686C36.4247 95.6686 35.2367 95.0313 35.8287 93.7537L48.854 65.6291ZM107.569 161.822C107.569 161.822 108.663 161.245 107.569 160.668L83.4807 147.96C83.4807 147.96 82.3847 147.383 81.29 147.96L57.202 160.668C57.202 160.668 56.1073 161.245 57.202 161.822L81.29 174.53C81.29 174.53 82.3847 175.108 83.4807 174.53L107.569 161.822ZM48.854 158.217C48.854 158.217 49.4447 159.496 50.6327 158.858L76.7553 144.837C76.7553 144.837 77.9433 144.2 77.3513 142.921L64.3274 114.797C64.3274 114.797 63.7353 113.518 62.5473 114.156L36.4247 128.177C36.4247 128.177 35.2367 128.814 35.8287 130.093L48.854 158.217ZM48.854 163.963C48.854 163.963 49.4447 162.685 50.6327 163.322L76.7553 177.344C76.7553 177.344 77.9433 177.981 77.3513 179.26L64.3274 207.383C64.3274 207.383 63.7353 208.662 62.5473 208.025L36.4247 194.002C36.4247 194.002 35.2367 193.366 35.8287 192.087L48.854 163.963ZM64.3274 311.465C64.3274 311.465 63.7353 310.187 62.5473 310.824L36.4247 324.846C36.4247 324.846 35.2367 325.483 35.8287 326.761L48.854 354.885C48.854 354.885 49.4447 356.163 50.6327 355.527L76.7553 341.504C76.7553 341.504 77.9433 340.867 77.3513 339.589L64.3274 311.465ZM-38.8553 311.465C-38.8553 311.465 -39.4473 310.187 -40.6353 310.824L-66.758 324.846C-66.758 324.846 -67.9447 325.483 -67.354 326.761L-54.3286 354.885C-54.3286 354.885 -53.7367 356.163 -52.55 355.527L-26.426 341.504C-26.426 341.504 -25.2393 340.867 -25.8313 339.589L-38.8553 311.465ZM-142.038 311.465C-142.038 311.465 -142.63 310.187 -143.817 310.824L-169.941 324.846C-169.941 324.846 -171.127 325.483 -170.535 326.761L-157.511 354.885C-157.511 354.885 -156.919 356.163 -155.731 355.527L-129.609 341.504C-129.609 341.504 -128.421 340.867 -129.013 339.589L-142.038 311.465ZM107.569 260.157C107.569 260.157 108.663 259.579 107.569 259.002L83.4807 246.295C83.4807 246.295 82.3847 245.717 81.29 246.295L57.202 259.002C57.202 259.002 56.1073 259.579 57.202 260.157L81.29 272.864C81.29 272.864 82.3847 273.442 83.4807 272.864L107.569 260.157ZM48.854 256.552C48.854 256.552 49.4447 257.829 50.6327 257.192L76.7553 243.17C76.7553 243.17 77.9433 242.533 77.3513 241.254L64.3274 213.131C64.3274 213.131 63.7353 211.852 62.5473 212.489L36.4247 226.512C36.4247 226.512 35.2367 227.149 35.8287 228.427L48.854 256.552ZM48.854 262.298C48.854 262.298 49.4447 261.02 50.6327 261.658L76.7553 275.679C76.7553 275.679 77.9433 276.316 77.3513 277.594L64.3274 305.718C64.3274 305.718 63.7353 306.996 62.5473 306.359L36.4247 292.337C36.4247 292.337 35.2367 291.7 35.8287 290.421L48.854 262.298ZM-157.511 59.883C-157.511 59.883 -156.919 61.1606 -155.731 60.5232L-129.609 46.5018C-129.609 46.5018 -128.421 45.8645 -129.013 44.5869L-142.038 16.4623C-142.038 16.4623 -142.63 15.1848 -143.817 15.8207L-169.941 29.8435C-169.941 29.8435 -171.127 30.4809 -170.535 31.7584L-157.511 59.883ZM-90.446 65.6291C-90.446 65.6291 -91.038 64.3516 -92.226 64.9889L-118.349 79.0103C-118.349 79.0103 -119.537 79.6476 -118.945 80.9252L-105.919 109.05C-105.919 109.05 -105.329 110.327 -104.141 109.691L-78.018 95.6686C-78.018 95.6686 -76.83 95.0313 -77.422 93.7537L-90.446 65.6291ZM-54.3286 158.217C-54.3286 158.217 -53.7367 159.496 -52.55 158.858L-26.426 144.837C-26.426 144.837 -25.2393 144.2 -25.8313 142.921L-38.8553 114.797C-38.8553 114.797 -39.4473 113.518 -40.6353 114.156L-66.758 128.177C-66.758 128.177 -67.9447 128.814 -67.354 130.093L-54.3286 158.217ZM12.7354 163.963C12.7354 163.963 12.1433 162.685 10.9567 163.322L-15.1673 177.344C-15.1673 177.344 -16.354 177.981 -15.762 179.26L-2.73798 207.383C-2.73798 207.383 -2.14599 208.662 -0.957991 208.025L25.1647 194.002C25.1647 194.002 26.3527 193.366 25.7607 192.087L12.7354 163.963ZM55.978 210.991C55.978 210.991 57.0727 210.412 55.978 209.835L31.8887 197.127C31.8887 197.127 30.794 196.55 29.6994 197.127L5.61134 209.835C5.61134 209.835 4.51668 210.412 5.61134 210.989L29.6994 223.697C29.6994 223.697 30.794 224.274 31.8887 223.697L55.978 210.991ZM-2.73798 213.131C-2.73798 213.131 -2.14599 211.852 -0.957991 212.489L25.1647 226.511C25.1647 226.511 26.3527 227.148 25.7607 228.427L12.7354 256.55C12.7354 256.55 12.1433 257.829 10.9567 257.192L-15.1673 243.17C-15.1673 243.17 -16.354 242.533 -15.762 241.254L-2.73798 213.131ZM55.978 309.324C55.978 309.324 57.0727 308.747 55.978 308.169L31.8887 295.462C31.8887 295.462 30.794 294.884 29.6994 295.462L5.61134 308.169C5.61134 308.169 4.51668 308.747 5.61134 309.324L29.6994 322.031C29.6994 322.031 30.794 322.609 31.8887 322.031L55.978 309.324ZM-47.2047 309.324C-47.2047 309.324 -46.11 308.747 -47.2047 308.169L-71.2926 295.462C-71.2926 295.462 -72.3887 294.884 -73.4833 295.462L-97.5713 308.169C-97.5713 308.169 -98.666 308.747 -97.5713 309.324L-73.4833 322.031C-73.4833 322.031 -72.3886 322.609 -71.2926 322.031L-47.2047 309.324ZM-2.73798 305.718C-2.73798 305.718 -2.14599 306.996 -0.957991 306.359L25.1647 292.337C25.1647 292.337 26.3527 291.7 25.7607 290.422L12.7354 262.298C12.7354 262.298 12.1433 261.02 10.9567 261.656L-15.1673 275.679C-15.1673 275.679 -16.354 276.316 -15.762 277.594L-2.73798 305.718ZM-2.73798 311.465C-2.73798 311.465 -2.14599 310.187 -0.957991 310.824L25.1647 324.846C25.1647 324.846 26.3527 325.483 25.7607 326.761L12.7354 354.885C12.7354 354.885 12.1433 356.163 10.9567 355.527L-15.1673 341.504C-15.1673 341.504 -16.354 340.867 -15.762 339.589L-2.73798 311.465ZM-105.919 311.465C-105.919 311.465 -105.329 310.187 -104.141 310.824L-78.018 324.846C-78.018 324.846 -76.83 325.483 -77.422 326.761L-90.446 354.885C-90.446 354.885 -91.038 356.163 -92.226 355.527L-118.349 341.504C-118.349 341.504 -119.537 340.867 -118.945 339.589L-105.919 311.465ZM4.386 260.157C4.386 260.157 5.482 259.579 4.386 259.002L-19.702 246.295C-19.702 246.295 -20.7966 245.717 -21.8926 246.295L-45.9807 259.002C-45.9807 259.002 -47.0753 259.579 -45.9807 260.157L-21.8926 272.864C-21.8926 272.864 -20.7966 273.442 -19.702 272.864L4.386 260.157ZM-54.3286 262.298C-54.3286 262.298 -53.7367 261.02 -52.55 261.658L-26.426 275.679C-26.426 275.679 -25.2393 276.316 -25.8313 277.594L-38.8553 305.718C-38.8553 305.718 -39.4473 306.996 -40.6353 306.359L-66.758 292.337C-66.758 292.337 -67.9447 291.7 -67.354 290.421L-54.3286 262.298ZM-105.919 305.718C-105.919 305.718 -105.329 306.996 -104.141 306.359L-78.018 292.337C-78.018 292.337 -76.83 291.7 -77.422 290.422L-90.446 262.298C-90.446 262.298 -91.038 261.02 -92.226 261.656L-118.349 275.679C-118.349 275.679 -119.537 276.316 -118.945 277.594L-105.919 305.718ZM-157.511 256.552C-157.511 256.552 -156.919 257.829 -155.731 257.192L-129.609 243.17C-129.609 243.17 -128.421 242.533 -129.013 241.254L-142.038 213.131C-142.038 213.131 -142.63 211.852 -143.817 212.489L-169.941 226.512C-169.941 226.512 -171.127 227.149 -170.535 228.427L-157.511 256.552ZM64.3274 409.8C64.3274 409.8 63.7353 408.521 62.5473 409.158L36.4247 423.179C36.4247 423.179 35.2367 423.817 35.8287 425.096L48.854 453.219C48.854 453.219 49.4447 454.498 50.6327 453.86L76.7553 439.838C76.7553 439.838 77.9433 439.202 77.3513 437.923L64.3274 409.8ZM-38.8553 409.8C-38.8553 409.8 -39.4473 408.521 -40.6353 409.158L-66.758 423.179C-66.758 423.179 -67.9447 423.817 -67.354 425.096L-54.3286 453.219C-54.3286 453.219 -53.7367 454.498 -52.55 453.86L-26.426 439.838C-26.426 439.838 -25.2393 439.202 -25.8313 437.923L-38.8553 409.8ZM-142.038 409.8C-142.038 409.8 -142.63 408.521 -143.817 409.158L-169.941 423.179C-169.941 423.179 -171.127 423.817 -170.535 425.096L-157.511 453.219C-157.511 453.219 -156.919 454.498 -155.731 453.86L-129.609 439.838C-129.609 439.838 -128.421 439.202 -129.013 437.923L-142.038 409.8ZM48.854 360.631C48.854 360.631 49.4447 359.354 50.6327 359.991L76.7553 374.013C76.7553 374.013 77.9433 374.65 77.3513 375.929L64.3274 404.052C64.3274 404.052 63.7353 405.331 62.5473 404.694L36.4247 390.671C36.4247 390.671 35.2367 390.035 35.8287 388.756L48.854 360.631ZM55.978 407.658C55.978 407.658 57.0727 407.081 55.978 406.502L31.8887 393.796C31.8887 393.796 30.794 393.219 29.6994 393.796L5.61134 406.504C5.61134 406.504 4.51668 407.081 5.61134 407.658L29.6994 420.366C29.6994 420.366 30.794 420.943 31.8887 420.366L55.978 407.658ZM-47.2047 407.658C-47.2047 407.658 -46.11 407.081 -47.2047 406.502L-71.2926 393.796C-71.2926 393.796 -72.3887 393.219 -73.4833 393.796L-97.5713 406.504C-97.5713 406.504 -98.666 407.081 -97.5713 407.658L-73.4833 420.366C-73.4833 420.366 -72.3886 420.943 -71.2926 420.366L-47.2047 407.658ZM-2.73798 404.053C-2.73798 404.053 -2.14599 405.331 -0.957991 404.694L25.1647 390.672C25.1647 390.672 26.3527 390.035 25.7607 388.756L12.7354 360.633C12.7354 360.633 12.1433 359.354 10.9567 359.991L-15.1673 374.013C-15.1673 374.013 -16.354 374.65 -15.762 375.929L-2.73798 404.053ZM-2.73798 409.8C-2.73798 409.8 -2.14599 408.521 -0.957991 409.158L25.1647 423.179C25.1647 423.179 26.3527 423.817 25.7607 425.096L12.7354 453.219C12.7354 453.219 12.1433 454.498 10.9567 453.86L-15.1673 439.838C-15.1673 439.838 -16.354 439.202 -15.762 437.923L-2.73798 409.8ZM-105.919 409.8C-105.919 409.8 -105.329 408.521 -104.141 409.158L-78.018 423.179C-78.018 423.179 -76.83 423.817 -77.422 425.096L-90.446 453.219C-90.446 453.219 -91.038 454.498 -92.226 453.86L-118.349 439.838C-118.349 439.838 -119.537 439.202 -118.945 437.923L-105.919 409.8ZM-54.3286 360.631C-54.3286 360.631 -53.7367 359.354 -52.55 359.991L-26.426 374.013C-26.426 374.013 -25.2393 374.65 -25.8313 375.929L-38.8553 404.052C-38.8553 404.052 -39.4473 405.331 -40.6353 404.694L-66.758 390.671C-66.758 390.671 -67.9447 390.035 -67.354 388.756L-54.3286 360.631ZM-105.919 404.053C-105.919 404.053 -105.329 405.331 -104.141 404.694L-78.018 390.672C-78.018 390.672 -76.83 390.035 -77.422 388.756L-90.446 360.633C-90.446 360.633 -91.038 359.354 -92.226 359.991L-118.349 374.013C-118.349 374.013 -119.537 374.65 -118.945 375.929L-105.919 404.053ZM-157.511 360.631C-157.511 360.631 -156.919 359.354 -155.731 359.991L-129.609 374.013C-129.609 374.013 -128.421 374.65 -129.013 375.929L-142.038 404.052C-142.038 404.052 -142.63 405.331 -143.817 404.694L-169.941 390.671C-169.941 390.671 -171.127 390.035 -170.535 388.756L-157.511 360.631ZM107.569 358.491C107.569 358.491 108.663 357.914 107.569 357.336L83.4807 344.629C83.4807 344.629 82.3847 344.051 81.29 344.629L57.202 357.336C57.202 357.336 56.1073 357.914 57.202 358.491L81.29 371.199C81.29 371.199 82.3847 371.776 83.4807 371.199L107.569 358.491ZM4.386 358.491C4.386 358.491 5.482 357.914 4.386 357.336L-19.702 344.629C-19.702 344.629 -20.7966 344.051 -21.8926 344.629L-45.9807 357.336C-45.9807 357.336 -47.0753 357.914 -45.9807 358.491L-21.8926 371.199C-21.8926 371.199 -20.7966 371.776 -19.702 371.199L4.386 358.491ZM-98.7953 358.491C-98.7953 358.491 -97.7006 357.914 -98.7953 357.336L-122.885 344.629C-122.885 344.629 -123.979 344.051 -125.074 344.629L-149.162 357.336C-149.162 357.336 -150.257 357.914 -149.162 358.491L-125.074 371.199C-125.074 371.199 -123.979 371.776 -122.885 371.199L-98.7953 358.491ZM107.569 456.826C107.569 456.826 108.663 456.248 107.569 455.671L83.4807 442.963C83.4807 442.963 82.3847 442.386 81.29 442.963L57.202 455.671C57.202 455.671 56.1073 456.248 57.202 456.826L81.29 469.533C81.29 469.533 82.3847 470.11 83.4807 469.533L107.569 456.826ZM48.854 458.966C48.854 458.966 49.4447 457.687 50.6327 458.325L76.7553 472.346C76.7553 472.346 77.9433 472.983 77.3513 474.262L64.3274 502.387C64.3274 502.387 63.7353 503.665 62.5473 503.027L36.4247 489.006C36.4247 489.006 35.2367 488.369 35.8287 487.09L48.854 458.966ZM107.569 555.16C107.569 555.16 108.663 554.583 107.569 554.004L83.4807 541.298C83.4807 541.298 82.3847 540.719 81.29 541.298L57.202 554.004C57.202 554.004 56.1073 554.583 57.202 555.16L81.29 567.868C81.29 567.868 82.3847 568.445 83.4807 567.868L107.569 555.16ZM48.854 551.554C48.854 551.554 49.4447 552.833 50.6327 552.194L76.7553 538.173C76.7553 538.173 77.9433 537.535 77.3513 536.258L64.3274 508.133C64.3274 508.133 63.7353 506.856 62.5473 507.493L36.4247 521.514C36.4247 521.514 35.2367 522.152 35.8287 523.429L48.854 551.554ZM48.854 557.3C48.854 557.3 49.4447 556.022 50.6327 556.66L76.7553 570.681C76.7553 570.681 77.9433 571.319 77.3513 572.596L64.3274 600.721C64.3274 600.721 63.7353 602 62.5473 601.362L36.4247 587.339C36.4247 587.339 35.2367 586.702 35.8287 585.425L48.854 557.3ZM107.569 653.495C107.569 653.495 108.663 652.916 107.569 652.339L83.4807 639.631C83.4807 639.631 82.3847 639.054 81.29 639.631L57.202 652.339C57.202 652.339 56.1073 652.916 57.202 653.493L81.29 666.201C81.29 666.201 82.3847 666.778 83.4807 666.201L107.569 653.495ZM48.854 649.887C48.854 649.887 49.4447 651.166 50.6327 650.529L76.7553 636.508C76.7553 636.508 77.9433 635.87 77.3513 634.591L64.3274 606.468C64.3274 606.468 63.7353 605.189 62.5473 605.827L36.4247 619.848C36.4247 619.848 35.2367 620.485 35.8287 621.764L48.854 649.887ZM4.386 456.826C4.386 456.826 5.482 456.248 4.386 455.671L-19.702 442.963C-19.702 442.963 -20.7966 442.386 -21.8926 442.963L-45.9807 455.671C-45.9807 455.671 -47.0753 456.248 -45.9807 456.826L-21.8926 469.533C-21.8926 469.533 -20.7966 470.11 -19.702 469.533L4.386 456.826ZM-54.3286 458.966C-54.3286 458.966 -53.7367 457.687 -52.55 458.325L-26.426 472.346C-26.426 472.346 -25.2393 472.983 -25.8313 474.262L-38.8553 502.387C-38.8553 502.387 -39.4473 503.665 -40.6353 503.027L-66.758 489.006C-66.758 489.006 -67.9447 488.369 -67.354 487.09L-54.3286 458.966ZM12.7354 458.966C12.7354 458.966 12.1433 457.687 10.9567 458.325L-15.1673 472.346C-15.1673 472.346 -16.354 472.983 -15.762 474.262L-2.73798 502.387C-2.73798 502.387 -2.14599 503.665 -0.957991 503.027L25.1647 489.006C25.1647 489.006 26.3527 488.369 25.7607 487.09L12.7354 458.966ZM-98.7953 456.826C-98.7953 456.826 -97.7006 456.248 -98.7953 455.671L-122.885 442.963C-122.885 442.963 -123.979 442.386 -125.074 442.963L-149.162 455.671C-149.162 455.671 -150.257 456.248 -149.162 456.826L-125.074 469.533C-125.074 469.533 -123.979 470.11 -122.885 469.533L-98.7953 456.826ZM-157.511 458.966C-157.511 458.966 -156.919 457.687 -155.731 458.325L-129.609 472.346C-129.609 472.346 -128.421 472.983 -129.013 474.262L-142.038 502.387C-142.038 502.387 -142.63 503.665 -143.817 503.027L-169.941 489.006C-169.941 489.006 -171.127 488.369 -170.535 487.09L-157.511 458.966ZM-90.446 458.966C-90.446 458.966 -91.038 457.687 -92.226 458.325L-118.349 472.346C-118.349 472.346 -119.537 472.983 -118.945 474.262L-105.919 502.387C-105.919 502.387 -105.329 503.665 -104.141 503.027L-78.018 489.006C-78.018 489.006 -76.83 488.369 -77.422 487.09L-90.446 458.966ZM4.386 555.16C4.386 555.16 5.482 554.583 4.386 554.004L-19.702 541.298C-19.702 541.298 -20.7966 540.719 -21.8926 541.298L-45.9807 554.004C-45.9807 554.004 -47.0753 554.583 -45.9807 555.16L-21.8926 567.868C-21.8926 567.868 -20.7966 568.445 -19.702 567.868L4.386 555.16ZM-54.3286 551.554C-54.3286 551.554 -53.7367 552.833 -52.55 552.194L-26.426 538.173C-26.426 538.173 -25.2393 537.535 -25.8313 536.258L-38.8553 508.133C-38.8553 508.133 -39.4473 506.856 -40.6353 507.493L-66.758 521.514C-66.758 521.514 -67.9447 522.152 -67.354 523.429L-54.3286 551.554ZM12.7354 551.554C12.7354 551.554 12.1433 552.833 10.9567 552.194L-15.1673 538.173C-15.1673 538.173 -16.354 537.535 -15.762 536.258L-2.73798 508.133C-2.73798 508.133 -2.14599 506.856 -0.957991 507.493L25.1647 521.514C25.1647 521.514 26.3527 522.152 25.7607 523.429L12.7354 551.554ZM-54.3286 557.3C-54.3286 557.3 -53.7367 556.022 -52.55 556.66L-26.426 570.681C-26.426 570.681 -25.2393 571.319 -25.8313 572.596L-38.8553 600.721C-38.8553 600.721 -39.4473 602 -40.6353 601.362L-66.758 587.339C-66.758 587.339 -67.9447 586.702 -67.354 585.425L-54.3286 557.3ZM12.7354 557.3C12.7354 557.3 12.1433 556.022 10.9567 556.66L-15.1673 570.681C-15.1673 570.681 -16.354 571.319 -15.762 572.596L-2.73798 600.721C-2.73798 600.721 -2.14599 602 -0.957991 601.362L25.1647 587.339C25.1647 587.339 26.3527 586.702 25.7607 585.425L12.7354 557.3ZM-47.2047 505.993C-47.2047 505.993 -46.11 505.414 -47.2047 504.837L-71.2926 492.131C-71.2926 492.131 -72.3887 491.552 -73.4833 492.131L-97.5713 504.837C-97.5713 504.837 -98.666 505.414 -97.5713 505.993L-73.4833 518.699C-73.4833 518.699 -72.3886 519.278 -71.2926 518.699L-47.2047 505.993ZM-105.919 508.133C-105.919 508.133 -105.329 506.854 -104.141 507.493L-78.018 521.514C-78.018 521.514 -76.83 522.152 -77.422 523.429L-90.446 551.554C-90.446 551.554 -91.038 552.831 -92.226 552.194L-118.349 538.173C-118.349 538.173 -119.537 537.535 -118.945 536.256L-105.919 508.133ZM55.978 505.993C55.978 505.993 57.0727 505.414 55.978 504.837L31.8887 492.131C31.8887 492.131 30.794 491.552 29.6994 492.131L5.61134 504.837C5.61134 504.837 4.51668 505.414 5.61134 505.993L29.6994 518.699C29.6994 518.699 30.794 519.278 31.8887 518.699L55.978 505.993ZM55.978 604.327C55.978 604.327 57.0727 603.749 55.978 603.171L31.8887 590.464C31.8887 590.464 30.794 589.887 29.6994 590.464L5.61134 603.172C5.61134 603.172 4.51668 603.749 5.61134 604.327L29.6994 617.033C29.6994 617.033 30.794 617.612 31.8887 617.033L55.978 604.327ZM-47.2047 604.327C-47.2047 604.327 -46.11 603.749 -47.2047 603.171L-71.2926 590.464C-71.2926 590.464 -72.3887 589.887 -73.4833 590.464L-97.5713 603.172C-97.5713 603.172 -98.666 603.749 -97.5713 604.327L-73.4833 617.033C-73.4833 617.033 -72.3886 617.612 -71.2926 617.033L-47.2047 604.327ZM-98.7953 555.16C-98.7953 555.16 -97.7006 554.583 -98.7953 554.004L-122.885 541.298C-122.885 541.298 -123.979 540.719 -125.074 541.298L-149.162 554.004C-149.162 554.004 -150.257 554.583 -149.162 555.16L-125.074 567.868C-125.074 567.868 -123.979 568.445 -122.885 567.868L-98.7953 555.16ZM-201.978 555.16C-201.978 555.16 -200.883 554.583 -201.978 554.004L-226.067 541.298C-226.067 541.298 -227.162 540.719 -228.257 541.298L-252.345 554.004C-252.345 554.004 -253.439 554.583 -252.345 555.16L-228.257 567.868C-228.257 567.868 -227.162 568.445 -226.067 567.868L-201.978 555.16ZM-305.161 555.16C-305.161 555.16 -304.066 554.583 -305.161 554.004L-329.249 541.298C-329.249 541.298 -330.345 540.719 -331.439 541.298L-355.527 554.004C-355.527 554.004 -356.622 554.583 -355.527 555.16L-331.439 567.868C-331.439 567.868 -330.345 568.445 -329.249 567.868L-305.161 555.16ZM-201.978 358.491C-201.978 358.491 -200.883 357.914 -201.978 357.336L-226.067 344.629C-226.067 344.629 -227.162 344.051 -228.257 344.629L-252.345 357.337C-252.345 357.337 -253.439 357.914 -252.345 358.491L-228.257 371.199C-228.257 371.199 -227.162 371.776 -226.067 371.199L-201.978 358.491ZM-305.161 358.491C-305.161 358.491 -304.066 357.914 -305.161 357.336L-329.249 344.629C-329.249 344.629 -330.345 344.051 -331.439 344.629L-355.527 357.337C-355.527 357.337 -356.622 357.914 -355.527 358.491L-331.439 371.199C-331.439 371.199 -330.345 371.776 -329.249 371.199L-305.161 358.491ZM-157.511 551.554C-157.511 551.554 -156.919 552.833 -155.731 552.194L-129.609 538.173C-129.609 538.173 -128.421 537.535 -129.013 536.258L-142.038 508.133C-142.038 508.133 -142.63 506.856 -143.817 507.493L-169.941 521.514C-169.941 521.514 -171.127 522.152 -170.535 523.429L-157.511 551.554ZM-157.511 557.3C-157.511 557.3 -156.919 556.022 -155.731 556.66L-129.609 570.681C-129.609 570.681 -128.421 571.319 -129.013 572.596L-142.038 600.721C-142.038 600.721 -142.63 602 -143.817 601.362L-169.941 587.339C-169.941 587.339 -171.127 586.702 -170.535 585.425L-157.511 557.3ZM-90.446 557.3C-90.446 557.3 -91.038 556.022 -92.226 556.66L-118.349 570.681C-118.349 570.681 -119.537 571.319 -118.945 572.596L-105.919 600.721C-105.919 600.721 -105.329 602 -104.141 601.362L-78.018 587.339C-78.018 587.339 -76.83 586.702 -77.422 585.425L-90.446 557.3ZM-2.73798 606.467C-2.73798 606.467 -2.14599 605.189 -0.957991 605.827L25.1647 619.848C25.1647 619.848 26.3527 620.485 25.7607 621.764L12.7354 649.887C12.7354 649.887 12.1433 651.166 10.9567 650.529L-15.1673 636.506C-15.1673 636.506 -16.354 635.869 -15.762 634.591L-2.73798 606.467ZM4.386 653.495C4.386 653.495 5.482 652.916 4.386 652.339L-19.702 639.631C-19.702 639.631 -20.7966 639.054 -21.8926 639.631L-45.9807 652.339C-45.9807 652.339 -47.0753 652.916 -45.9807 653.493L-21.8926 666.201C-21.8926 666.201 -20.7966 666.778 -19.702 666.201L4.386 653.495ZM-54.3286 649.887C-54.3286 649.887 -53.7367 651.166 -52.55 650.529L-26.426 636.508C-26.426 636.508 -25.2393 635.87 -25.8313 634.591L-38.8553 606.468C-38.8553 606.468 -39.4473 605.189 -40.6353 605.827L-66.758 619.848C-66.758 619.848 -67.9447 620.485 -67.354 621.764L-54.3286 649.887ZM-105.919 606.467C-105.919 606.467 -105.329 605.189 -104.141 605.827L-78.018 619.848C-78.018 619.848 -76.83 620.485 -77.422 621.764L-90.446 649.887C-90.446 649.887 -91.038 651.166 -92.226 650.529L-118.349 636.506C-118.349 636.506 -119.537 635.869 -118.945 634.591L-105.919 606.467ZM-98.7953 653.495C-98.7953 653.495 -97.7006 652.916 -98.7953 652.339L-122.885 639.631C-122.885 639.631 -123.979 639.054 -125.074 639.631L-149.162 652.339C-149.162 652.339 -150.257 652.916 -149.162 653.493L-125.074 666.201C-125.074 666.201 -123.979 666.778 -122.885 666.201L-98.7953 653.495ZM-157.511 649.887C-157.511 649.887 -156.919 651.166 -155.731 650.529L-129.609 636.508C-129.609 636.508 -128.421 635.87 -129.013 634.591L-142.038 606.468C-142.038 606.468 -142.63 605.189 -143.817 605.827L-169.941 619.848C-169.941 619.848 -171.127 620.485 -170.535 621.764L-157.511 649.887ZM-150.387 14.3206C-150.387 14.3206 -149.293 13.7436 -150.387 13.1665L-174.475 0.458571C-174.475 0.458571 -175.57 -0.118477 -176.666 0.458571L-200.754 13.1665C-200.754 13.1665 -201.849 13.7436 -200.754 14.3206L-176.666 27.0286C-176.666 27.0286 -175.57 27.6056 -174.475 27.0286L-150.387 14.3206ZM-253.57 14.3206C-253.57 14.3206 -252.474 13.7436 -253.57 13.1665L-277.658 0.458571C-277.658 0.458571 -278.753 -0.118477 -279.847 0.458571L-303.935 13.1665C-303.935 13.1665 -305.03 13.7436 -303.935 14.3206L-279.847 27.0286C-279.847 27.0286 -278.753 27.6056 -277.658 27.0286L-253.57 14.3206ZM-209.102 16.4609C-209.102 16.4609 -208.51 15.1833 -207.323 15.8207L-181.199 29.8421C-181.199 29.8421 -180.013 30.4794 -180.605 31.7584L-193.629 59.8816C-193.629 59.8816 -194.221 61.1606 -195.409 60.5232L-221.531 46.5004C-221.531 46.5004 -222.719 45.8645 -222.127 44.5855L-209.102 16.4609ZM-245.221 114.796C-245.221 114.796 -245.811 113.517 -246.999 114.156L-273.122 128.177C-273.122 128.177 -274.31 128.813 -273.718 130.092L-260.694 158.217C-260.694 158.217 -260.102 159.494 -258.914 158.857L-232.791 144.835C-232.791 144.835 -231.603 144.198 -232.195 142.919L-245.221 114.796ZM-348.402 114.796C-348.402 114.796 -348.994 113.517 -350.182 114.156L-376.305 128.177C-376.305 128.177 -377.493 128.813 -376.901 130.092L-363.875 158.217C-363.875 158.217 -363.283 159.494 -362.097 158.857L-335.973 144.835C-335.973 144.835 -334.786 144.198 -335.378 142.919L-348.402 114.796ZM-312.285 16.4609C-312.285 16.4609 -311.693 15.1833 -310.505 15.8207L-284.382 29.8421C-284.382 29.8421 -283.195 30.4794 -283.786 31.7584L-296.811 59.8816C-296.811 59.8816 -297.403 61.1606 -298.59 60.5232L-324.714 46.5004C-324.714 46.5004 -325.901 45.8645 -325.309 44.5855L-312.285 16.4609ZM-312.285 109.05C-312.285 109.05 -311.693 110.327 -310.505 109.69L-284.382 95.6686C-284.382 95.6686 -283.195 95.0313 -283.786 93.7523L-296.811 65.6291C-296.811 65.6291 -297.403 64.3501 -298.59 64.9875L-324.714 79.0103C-324.714 79.0103 -325.901 79.6462 -325.309 80.9252L-312.285 109.05ZM-305.161 63.4888C-305.161 63.4888 -304.066 62.9104 -305.161 62.3333L-329.249 49.6253C-329.249 49.6253 -330.345 49.0483 -331.439 49.6253L-355.527 62.3333C-355.527 62.3333 -356.622 62.9104 -355.527 63.4874L-331.439 76.1954C-331.439 76.1954 -330.345 76.7725 -329.249 76.1954L-305.161 63.4888ZM-363.875 59.8816C-363.875 59.8816 -363.283 61.1606 -362.097 60.5232L-335.973 46.5018C-335.973 46.5018 -334.786 45.8645 -335.378 44.5855L-348.402 16.4623C-348.402 16.4623 -348.994 15.1833 -350.182 15.8207L-376.305 29.8421C-376.305 29.8421 -377.493 30.4794 -376.901 31.7584L-363.875 59.8816ZM-363.875 65.6291C-363.875 65.6291 -363.283 64.3501 -362.097 64.9875L-335.973 79.0089C-335.973 79.0089 -334.786 79.6462 -335.378 80.9252L-348.402 109.048C-348.402 109.048 -348.994 110.327 -350.182 109.69L-376.305 95.6686C-376.305 95.6686 -377.493 95.0313 -376.901 93.7523L-363.875 65.6291ZM-356.751 14.3206C-356.751 14.3206 -355.657 13.7436 -356.751 13.1665L-380.841 0.458571C-380.841 0.458571 -381.935 -0.118477 -383.03 0.458571L-407.118 13.1665C-407.118 13.1665 -408.213 13.7436 -407.118 14.3206L-383.03 27.0286C-383.03 27.0286 -381.935 27.6056 -380.841 27.0286L-356.751 14.3206ZM-356.751 112.656C-356.751 112.656 -355.657 112.077 -356.751 111.5L-380.841 98.7922C-380.841 98.7922 -381.935 98.2151 -383.03 98.7922L-407.118 111.5C-407.118 111.5 -408.213 112.077 -407.118 112.656L-383.03 125.362C-383.03 125.362 -381.935 125.939 -380.841 125.362L-356.751 112.656ZM-209.102 207.385C-209.102 207.385 -208.51 208.662 -207.323 208.025L-181.199 194.004C-181.199 194.004 -180.013 193.366 -180.605 192.087L-193.629 163.964C-193.629 163.964 -194.221 162.685 -195.409 163.322L-221.531 177.345C-221.531 177.345 -222.719 177.981 -222.127 179.26L-209.102 207.385ZM-312.285 207.385C-312.285 207.385 -311.693 208.662 -310.505 208.025L-284.382 194.004C-284.382 194.004 -283.195 193.366 -283.786 192.087L-296.811 163.964C-296.811 163.964 -297.403 162.685 -298.59 163.322L-324.714 177.345C-324.714 177.345 -325.901 177.981 -325.309 179.26L-312.285 207.385ZM-363.875 163.963C-363.875 163.963 -363.283 162.685 -362.097 163.322L-335.973 177.344C-335.973 177.344 -334.786 177.981 -335.378 179.26L-348.402 207.383C-348.402 207.383 -348.994 208.662 -350.182 208.025L-376.305 194.002C-376.305 194.002 -377.493 193.366 -376.901 192.087L-363.875 163.963ZM-209.102 404.053C-209.102 404.053 -208.51 405.331 -207.323 404.694L-181.199 390.672C-181.199 390.672 -180.013 390.035 -180.605 388.756L-193.629 360.633C-193.629 360.633 -194.221 359.354 -195.409 359.991L-221.531 374.013C-221.531 374.013 -222.719 374.65 -222.127 375.929L-209.102 404.053ZM-260.694 360.631C-260.694 360.631 -260.102 359.354 -258.914 359.991L-232.791 374.013C-232.791 374.013 -231.603 374.65 -232.195 375.929L-245.221 404.052C-245.221 404.052 -245.811 405.331 -246.999 404.694L-273.122 390.671C-273.122 390.671 -274.31 390.035 -273.718 388.756L-260.694 360.631ZM-312.285 404.053C-312.285 404.053 -311.693 405.331 -310.505 404.694L-284.382 390.672C-284.382 390.672 -283.195 390.035 -283.786 388.756L-296.811 360.633C-296.811 360.633 -297.403 359.354 -298.59 359.991L-324.714 374.013C-324.714 374.013 -325.901 374.65 -325.309 375.929L-312.285 404.053ZM-363.875 360.631C-363.875 360.631 -363.283 359.354 -362.097 359.991L-335.973 374.013C-335.973 374.013 -334.786 374.65 -335.378 375.929L-348.402 404.052C-348.402 404.052 -348.994 405.331 -350.182 404.694L-376.305 390.671C-376.305 390.671 -377.493 390.035 -376.901 388.756L-363.875 360.631ZM-209.102 600.721C-209.102 600.721 -208.51 602 -207.323 601.362L-181.199 587.341C-181.199 587.341 -180.013 586.702 -180.605 585.425L-193.629 557.3C-193.629 557.3 -194.221 556.022 -195.409 556.66L-221.531 570.681C-221.531 570.681 -222.719 571.319 -222.127 572.598L-209.102 600.721ZM-260.694 557.3C-260.694 557.3 -260.102 556.022 -258.914 556.66L-232.791 570.681C-232.791 570.681 -231.603 571.319 -232.195 572.596L-245.221 600.721C-245.221 600.721 -245.811 602 -246.999 601.362L-273.122 587.339C-273.122 587.339 -274.31 586.702 -273.718 585.425L-260.694 557.3ZM-312.285 600.721C-312.285 600.721 -311.693 602 -310.505 601.362L-284.382 587.341C-284.382 587.341 -283.195 586.702 -283.786 585.425L-296.811 557.3C-296.811 557.3 -297.403 556.022 -298.59 556.66L-324.714 570.681C-324.714 570.681 -325.901 571.319 -325.309 572.598L-312.285 600.721ZM-363.875 557.3C-363.875 557.3 -363.283 556.022 -362.097 556.66L-335.973 570.681C-335.973 570.681 -334.786 571.319 -335.378 572.596L-348.402 600.721C-348.402 600.721 -348.994 602 -350.182 601.362L-376.305 587.339C-376.305 587.339 -377.493 586.702 -376.901 585.425L-363.875 557.3ZM-209.102 213.131C-209.102 213.131 -208.51 211.852 -207.323 212.489L-181.199 226.511C-181.199 226.511 -180.013 227.148 -180.605 228.427L-193.629 256.55C-193.629 256.55 -194.221 257.829 -195.409 257.192L-221.531 243.17C-221.531 243.17 -222.719 242.533 -222.127 241.254L-209.102 213.131ZM-253.57 309.324C-253.57 309.324 -252.474 308.746 -253.57 308.169L-277.658 295.462C-277.658 295.462 -278.753 294.884 -279.847 295.462L-303.935 308.169C-303.935 308.169 -305.03 308.746 -303.935 309.324L-279.847 322.031C-279.847 322.031 -278.753 322.609 -277.658 322.031L-253.57 309.324ZM-209.102 305.718C-209.102 305.718 -208.51 306.996 -207.323 306.359L-181.199 292.337C-181.199 292.337 -180.013 291.7 -180.605 290.422L-193.629 262.298C-193.629 262.298 -194.221 261.019 -195.409 261.656L-221.531 275.679C-221.531 275.679 -222.719 276.316 -222.127 277.594L-209.102 305.718ZM-209.102 311.465C-209.102 311.465 -208.51 310.187 -207.323 310.824L-181.199 324.846C-181.199 324.846 -180.013 325.483 -180.605 326.761L-193.629 354.885C-193.629 354.885 -194.221 356.163 -195.409 355.525L-221.531 341.504C-221.531 341.504 -222.719 340.867 -222.127 339.588L-209.102 311.465ZM-312.285 311.465C-312.285 311.465 -311.693 310.187 -310.505 310.824L-284.382 324.846C-284.382 324.846 -283.195 325.483 -283.786 326.761L-296.811 354.885C-296.811 354.885 -297.403 356.163 -298.59 355.525L-324.714 341.504C-324.714 341.504 -325.901 340.867 -325.309 339.588L-312.285 311.465ZM-245.221 311.465C-245.221 311.465 -245.811 310.187 -246.999 310.824L-273.122 324.846C-273.122 324.846 -274.31 325.483 -273.718 326.761L-260.694 354.885C-260.694 354.885 -260.102 356.163 -258.914 355.525L-232.791 341.504C-232.791 341.504 -231.603 340.867 -232.195 339.588L-245.221 311.465ZM-348.402 311.465C-348.402 311.465 -348.994 310.187 -350.182 310.824L-376.305 324.846C-376.305 324.846 -377.493 325.483 -376.901 326.761L-363.875 354.885C-363.875 354.885 -363.283 356.163 -362.097 355.525L-335.973 341.504C-335.973 341.504 -334.786 340.867 -335.378 339.588L-348.402 311.465ZM-201.978 260.157C-201.978 260.157 -200.883 259.579 -201.978 259.002L-226.067 246.294C-226.067 246.294 -227.162 245.717 -228.257 246.294L-252.345 259.002C-252.345 259.002 -253.439 259.579 -252.345 260.157L-228.257 272.864C-228.257 272.864 -227.162 273.441 -226.067 272.864L-201.978 260.157ZM-260.694 256.552C-260.694 256.552 -260.102 257.829 -258.914 257.192L-232.791 243.17C-232.791 243.17 -231.603 242.533 -232.195 241.254L-245.221 213.131C-245.221 213.131 -245.811 211.852 -246.999 212.489L-273.122 226.512C-273.122 226.512 -274.31 227.148 -273.718 228.427L-260.694 256.552ZM-260.694 262.298C-260.694 262.298 -260.102 261.019 -258.914 261.656L-232.791 275.679C-232.791 275.679 -231.603 276.315 -232.195 277.594L-245.221 305.718C-245.221 305.718 -245.811 306.996 -246.999 306.359L-273.122 292.337C-273.122 292.337 -274.31 291.7 -273.718 290.421L-260.694 262.298ZM-312.285 213.131C-312.285 213.131 -311.693 211.852 -310.505 212.489L-284.382 226.511C-284.382 226.511 -283.195 227.148 -283.786 228.427L-296.811 256.55C-296.811 256.55 -297.403 257.829 -298.59 257.192L-324.714 243.17C-324.714 243.17 -325.901 242.533 -325.309 241.254L-312.285 213.131ZM-312.285 305.718C-312.285 305.718 -311.693 306.996 -310.505 306.359L-284.382 292.337C-284.382 292.337 -283.195 291.7 -283.786 290.422L-296.811 262.298C-296.811 262.298 -297.403 261.019 -298.59 261.656L-324.714 275.679C-324.714 275.679 -325.901 276.316 -325.309 277.594L-312.285 305.718ZM-305.161 260.157C-305.161 260.157 -304.066 259.579 -305.161 259.002L-329.249 246.294C-329.249 246.294 -330.345 245.717 -331.439 246.294L-355.527 259.002C-355.527 259.002 -356.622 259.579 -355.527 260.157L-331.439 272.864C-331.439 272.864 -330.345 273.441 -329.249 272.864L-305.161 260.157ZM-363.875 256.552C-363.875 256.552 -363.283 257.829 -362.097 257.192L-335.973 243.17C-335.973 243.17 -334.786 242.533 -335.378 241.254L-348.402 213.131C-348.402 213.131 -348.994 211.852 -350.182 212.489L-376.305 226.512C-376.305 226.512 -377.493 227.148 -376.901 228.427L-363.875 256.552ZM-363.875 262.298C-363.875 262.298 -363.283 261.019 -362.097 261.656L-335.973 275.679C-335.973 275.679 -334.786 276.315 -335.378 277.594L-348.402 305.718C-348.402 305.718 -348.994 306.996 -350.182 306.359L-376.305 292.337C-376.305 292.337 -377.493 291.7 -376.901 290.421L-363.875 262.298ZM-356.751 210.989C-356.751 210.989 -355.657 210.412 -356.751 209.835L-380.841 197.127C-380.841 197.127 -381.935 196.55 -383.03 197.127L-407.118 209.835C-407.118 209.835 -408.213 210.412 -407.118 210.989L-383.03 223.697C-383.03 223.697 -381.935 224.274 -380.841 223.697L-356.751 210.989ZM-356.751 309.324C-356.751 309.324 -355.657 308.746 -356.751 308.169L-380.841 295.462C-380.841 295.462 -381.935 294.884 -383.03 295.462L-407.118 308.169C-407.118 308.169 -408.213 308.746 -407.118 309.324L-383.03 322.031C-383.03 322.031 -381.935 322.609 -380.841 322.031L-356.751 309.324ZM-150.387 407.658C-150.387 407.658 -149.293 407.081 -150.387 406.502L-174.475 393.796C-174.475 393.796 -175.57 393.219 -176.666 393.796L-200.754 406.504C-200.754 406.504 -201.849 407.081 -200.754 407.658L-176.666 420.366C-176.666 420.366 -175.57 420.943 -174.475 420.366L-150.387 407.658ZM-253.57 407.658C-253.57 407.658 -252.474 407.081 -253.57 406.502L-277.658 393.796C-277.658 393.796 -278.753 393.219 -279.847 393.796L-303.935 406.504C-303.935 406.504 -305.03 407.081 -303.935 407.658L-279.847 420.366C-279.847 420.366 -278.753 420.943 -277.658 420.366L-253.57 407.658ZM-209.102 409.8C-209.102 409.8 -208.51 408.521 -207.323 409.158L-181.199 423.179C-181.199 423.179 -180.013 423.817 -180.605 425.096L-193.629 453.219C-193.629 453.219 -194.221 454.498 -195.409 453.86L-221.531 439.838C-221.531 439.838 -222.719 439.202 -222.127 437.923L-209.102 409.8ZM-150.387 505.993C-150.387 505.993 -149.293 505.414 -150.387 504.837L-174.475 492.131C-174.475 492.131 -175.57 491.552 -176.666 492.131L-200.754 504.837C-200.754 504.837 -201.849 505.414 -200.754 505.993L-176.666 518.699C-176.666 518.699 -175.57 519.278 -174.475 518.699L-150.387 505.993ZM-253.57 505.993C-253.57 505.993 -252.474 505.414 -253.57 504.837L-277.658 492.131C-277.658 492.131 -278.753 491.552 -279.847 492.131L-303.935 504.837C-303.935 504.837 -305.03 505.414 -303.935 505.993L-279.847 518.699C-279.847 518.699 -278.753 519.278 -277.658 518.699L-253.57 505.993ZM-209.102 502.387C-209.102 502.387 -208.51 503.665 -207.323 503.027L-181.199 489.006C-181.199 489.006 -180.013 488.369 -180.605 487.09L-193.629 458.966C-193.629 458.966 -194.221 457.687 -195.409 458.325L-221.531 472.348C-221.531 472.348 -222.719 472.985 -222.127 474.262L-209.102 502.387ZM-209.102 508.133C-209.102 508.133 -208.51 506.854 -207.323 507.493L-181.199 521.514C-181.199 521.514 -180.013 522.152 -180.605 523.429L-193.629 551.554C-193.629 551.554 -194.221 552.831 -195.409 552.194L-221.531 538.173C-221.531 538.173 -222.719 537.535 -222.127 536.256L-209.102 508.133ZM-312.285 508.133C-312.285 508.133 -311.693 506.854 -310.505 507.493L-284.382 521.514C-284.382 521.514 -283.195 522.152 -283.786 523.429L-296.811 551.554C-296.811 551.554 -297.403 552.831 -298.59 552.194L-324.714 538.173C-324.714 538.173 -325.901 537.535 -325.309 536.256L-312.285 508.133ZM-245.221 508.133C-245.221 508.133 -245.811 506.854 -246.999 507.493L-273.122 521.514C-273.122 521.514 -274.31 522.152 -273.718 523.429L-260.694 551.554C-260.694 551.554 -260.102 552.831 -258.914 552.194L-232.791 538.173C-232.791 538.173 -231.603 537.535 -232.195 536.256L-245.221 508.133ZM-348.402 508.133C-348.402 508.133 -348.994 506.854 -350.182 507.493L-376.305 521.514C-376.305 521.514 -377.493 522.152 -376.901 523.429L-363.875 551.554C-363.875 551.554 -363.283 552.831 -362.097 552.194L-335.973 538.173C-335.973 538.173 -334.786 537.535 -335.378 536.256L-348.402 508.133ZM-201.978 456.826C-201.978 456.826 -200.883 456.248 -201.978 455.671L-226.067 442.963C-226.067 442.963 -227.162 442.386 -228.257 442.963L-252.345 455.671C-252.345 455.671 -253.439 456.248 -252.345 456.826L-228.257 469.533C-228.257 469.533 -227.162 470.11 -226.067 469.533L-201.978 456.826ZM-260.694 453.22C-260.694 453.22 -260.102 454.498 -258.914 453.86L-232.791 439.839C-232.791 439.839 -231.603 439.202 -232.195 437.923L-245.221 409.8C-245.221 409.8 -245.811 408.521 -246.999 409.158L-273.122 423.179C-273.122 423.179 -274.31 423.817 -273.718 425.096L-260.694 453.22ZM-260.694 458.966C-260.694 458.966 -260.102 457.687 -258.914 458.325L-232.791 472.346C-232.791 472.346 -231.603 472.983 -232.195 474.262L-245.221 502.387C-245.221 502.387 -245.811 503.665 -246.999 503.027L-273.122 489.006C-273.122 489.006 -274.31 488.369 -273.718 487.09L-260.694 458.966ZM-312.285 409.8C-312.285 409.8 -311.693 408.521 -310.505 409.158L-284.382 423.179C-284.382 423.179 -283.195 423.817 -283.786 425.096L-296.811 453.219C-296.811 453.219 -297.403 454.498 -298.59 453.86L-324.714 439.838C-324.714 439.838 -325.901 439.202 -325.309 437.923L-312.285 409.8ZM-312.285 502.387C-312.285 502.387 -311.693 503.665 -310.505 503.027L-284.382 489.006C-284.382 489.006 -283.195 488.369 -283.786 487.09L-296.811 458.966C-296.811 458.966 -297.403 457.687 -298.59 458.325L-324.714 472.348C-324.714 472.348 -325.901 472.985 -325.309 474.262L-312.285 502.387ZM-305.161 456.826C-305.161 456.826 -304.066 456.248 -305.161 455.671L-329.249 442.963C-329.249 442.963 -330.345 442.386 -331.439 442.963L-355.527 455.671C-355.527 455.671 -356.622 456.248 -355.527 456.826L-331.439 469.533C-331.439 469.533 -330.345 470.11 -329.249 469.533L-305.161 456.826ZM-363.875 453.22C-363.875 453.22 -363.283 454.498 -362.097 453.86L-335.973 439.839C-335.973 439.839 -334.786 439.202 -335.378 437.923L-348.402 409.8C-348.402 409.8 -348.994 408.521 -350.182 409.158L-376.305 423.179C-376.305 423.179 -377.493 423.817 -376.901 425.096L-363.875 453.22ZM-363.875 458.966C-363.875 458.966 -363.283 457.687 -362.097 458.325L-335.973 472.346C-335.973 472.346 -334.786 472.983 -335.378 474.262L-348.402 502.387C-348.402 502.387 -348.994 503.665 -350.182 503.027L-376.305 489.006C-376.305 489.006 -377.493 488.369 -376.901 487.09L-363.875 458.966ZM-356.751 407.658C-356.751 407.658 -355.657 407.081 -356.751 406.502L-380.841 393.796C-380.841 393.796 -381.935 393.219 -383.03 393.796L-407.118 406.504C-407.118 406.504 -408.213 407.081 -407.118 407.658L-383.03 420.366C-383.03 420.366 -381.935 420.943 -380.841 420.366L-356.751 407.658ZM-356.751 505.993C-356.751 505.993 -355.657 505.414 -356.751 504.837L-380.841 492.131C-380.841 492.131 -381.935 491.552 -383.03 492.131L-407.118 504.837C-407.118 504.837 -408.213 505.414 -407.118 505.993L-383.03 518.699C-383.03 518.699 -381.935 519.278 -380.841 518.699L-356.751 505.993ZM-150.387 604.327C-150.387 604.327 -149.293 603.749 -150.387 603.171L-174.475 590.464C-174.475 590.464 -175.57 589.887 -176.666 590.464L-200.754 603.172C-200.754 603.172 -201.849 603.749 -200.754 604.327L-176.666 617.033C-176.666 617.033 -175.57 617.612 -174.475 617.033L-150.387 604.327ZM-253.57 604.327C-253.57 604.327 -252.474 603.749 -253.57 603.171L-277.658 590.464C-277.658 590.464 -278.753 589.887 -279.847 590.464L-303.935 603.172C-303.935 603.172 -305.03 603.749 -303.935 604.327L-279.847 617.033C-279.847 617.033 -278.753 617.612 -277.658 617.033L-253.57 604.327ZM-209.102 606.467C-209.102 606.467 -208.51 605.189 -207.323 605.827L-181.199 619.848C-181.199 619.848 -180.013 620.485 -180.605 621.764L-193.629 649.887C-193.629 649.887 -194.221 651.166 -195.409 650.529L-221.531 636.506C-221.531 636.506 -222.719 635.869 -222.127 634.591L-209.102 606.467ZM-201.978 653.495C-201.978 653.495 -200.883 652.916 -201.978 652.339L-226.067 639.631C-226.067 639.631 -227.162 639.054 -228.257 639.631L-252.345 652.339C-252.345 652.339 -253.439 652.916 -252.345 653.493L-228.257 666.201C-228.257 666.201 -227.162 666.778 -226.067 666.201L-201.978 653.495ZM-260.694 649.887C-260.694 649.887 -260.102 651.166 -258.914 650.529L-232.791 636.508C-232.791 636.508 -231.603 635.87 -232.195 634.591L-245.221 606.468C-245.221 606.468 -245.811 605.189 -246.999 605.827L-273.122 619.848C-273.122 619.848 -274.31 620.485 -273.718 621.764L-260.694 649.887ZM-312.285 606.467C-312.285 606.467 -311.693 605.189 -310.505 605.827L-284.382 619.848C-284.382 619.848 -283.195 620.485 -283.786 621.764L-296.811 649.887C-296.811 649.887 -297.403 651.166 -298.59 650.529L-324.714 636.506C-324.714 636.506 -325.901 635.869 -325.309 634.591L-312.285 606.467ZM-305.161 653.495C-305.161 653.495 -304.066 652.916 -305.161 652.339L-329.249 639.631C-329.249 639.631 -330.345 639.054 -331.439 639.631L-355.527 652.339C-355.527 652.339 -356.622 652.916 -355.527 653.493L-331.439 666.201C-331.439 666.201 -330.345 666.778 -329.249 666.201L-305.161 653.495ZM-363.875 649.887C-363.875 649.887 -363.283 651.166 -362.097 650.529L-335.973 636.508C-335.973 636.508 -334.786 635.87 -335.378 634.591L-348.402 606.468C-348.402 606.468 -348.994 605.189 -350.182 605.827L-376.305 619.848C-376.305 619.848 -377.493 620.485 -376.901 621.764L-363.875 649.887ZM-356.751 604.327C-356.751 604.327 -355.657 603.749 -356.751 603.171L-380.841 590.464C-380.841 590.464 -381.935 589.887 -383.03 590.464L-407.118 603.172C-407.118 603.172 -408.213 603.749 -407.118 604.327L-383.03 617.033C-383.03 617.033 -381.935 617.612 -380.841 617.033L-356.751 604.327Z" stroke="#A7A5A6" stroke-width="0.8" stroke-miterlimit="10"/>
</g>
<defs>
<clipPath id="clip0_3465_3364">
<rect width="516.451" height="333.307" fill="white" transform="translate(-408 0.0224609)"/>
</clipPath>
</defs>
</svg>
