<svg width="60" height="60" viewBox="0 0 60 60" fill="none" xmlns="http://www.w3.org/2000/svg">
<path d="M10.0425 44.6025C10.4317 44.9932 10.73 45.465 10.916 45.9842C11.1021 46.5034 11.1713 47.0572 11.1187 47.6062C10.8552 50.1472 10.3555 52.658 9.62625 55.1062C14.8575 53.895 18.0525 52.4925 19.5037 51.7575C20.3269 51.3406 21.2748 51.2418 22.1662 51.48C24.7216 52.1613 27.3554 52.5042 30 52.5C44.985 52.5 56.25 41.9738 56.25 30C56.25 18.03 44.985 7.5 30 7.5C15.015 7.5 3.75 18.03 3.75 30C3.75 35.505 6.06375 40.6125 10.0425 44.6025ZM8.19375 59.2463C7.30526 59.4224 6.41388 59.5837 5.52 59.73C4.77 59.85 4.2 59.07 4.49625 58.3725C4.82922 57.5872 5.13441 56.7905 5.41125 55.9837L5.4225 55.9462C6.3525 53.2463 7.11 50.1413 7.3875 47.25C2.78625 42.6375 0 36.6 0 30C0 15.5025 13.4325 3.75 30 3.75C46.5675 3.75 60 15.5025 60 30C60 44.4975 46.5675 56.25 30 56.25C27.0287 56.254 24.0697 55.8682 21.1987 55.1025C19.2487 56.0888 15.0525 57.885 8.19375 59.2463Z" fill="#787882"/>
<path d="M26.4976 25.3499C25.7671 24.2124 24.6871 23.3426 23.42 22.8714C22.1529 22.4002 20.767 22.353 19.4708 22.7369C18.1745 23.1208 17.0379 23.915 16.2317 25.0002C15.4255 26.0855 14.9933 27.403 15.0001 28.7549C15.0008 29.8744 15.302 30.9732 15.8725 31.9365C16.4429 32.8998 17.2616 33.6922 18.2429 34.2309C19.2243 34.7697 20.3323 35.035 21.4512 34.9992C22.5701 34.9634 23.6589 34.6278 24.6038 34.0274C24.1126 35.4862 23.1976 37.0424 21.6901 38.6024C21.4017 38.9008 21.2436 39.3015 21.2506 39.7164C21.2541 39.9219 21.298 40.1246 21.3798 40.3131C21.4617 40.5016 21.5798 40.6721 21.7276 40.8149C21.8753 40.9577 22.0497 41.0701 22.2409 41.1455C22.432 41.2209 22.6361 41.2579 22.8416 41.2544C23.2565 41.2474 23.6517 41.0758 23.9401 40.7774C29.5126 35.0024 28.7888 28.7249 26.4976 25.3574V25.3499ZM41.4976 25.3499C40.7671 24.2124 39.6871 23.3426 38.42 22.8714C37.1529 22.4002 35.767 22.353 34.4708 22.7369C33.1745 23.1208 32.0379 23.915 31.2317 25.0002C30.4255 26.0855 29.9933 27.403 30.0001 28.7549C30.0008 29.8744 30.302 30.9732 30.8725 31.9365C31.4429 32.8998 32.2616 33.6922 33.2429 34.2309C34.2243 34.7697 35.3323 35.035 36.4512 34.9992C37.5701 34.9634 38.6589 34.6278 39.6038 34.0274C39.1126 35.4862 38.1976 37.0424 36.6901 38.6024C36.5473 38.7502 36.435 38.9246 36.3595 39.1157C36.2841 39.3069 36.2471 39.511 36.2506 39.7164C36.2541 39.9219 36.298 40.1246 36.3798 40.3131C36.4617 40.5016 36.5798 40.6721 36.7276 40.8149C36.8753 40.9577 37.0497 41.0701 37.2409 41.1455C37.432 41.2209 37.6361 41.2579 37.8416 41.2544C38.047 41.2509 38.2498 41.207 38.4383 41.1252C38.6268 41.0433 38.7973 40.9252 38.9401 40.7774C44.5126 35.0024 43.7888 28.7249 41.4976 25.3574V25.3499Z" fill="#787882"/>
</svg>
