<svg width="1440" height="383" viewBox="0 0 1440 383" fill="none" xmlns="http://www.w3.org/2000/svg">
<path fill-rule="evenodd" clip-rule="evenodd" d="M0 170.332L40.0278 163.44C80.0555 156.548 160.111 141.779 240.167 121.103C320.222 99.4422 400.278 70.8895 480.333 42.3368C560.389 14.7686 640.444 -13.7841 720.5 42.3368C800.555 99.4422 880.611 241.221 960.667 283.558C1040.72 325.895 1120.78 269.774 1200.83 205.776C1280.89 141.779 1360.94 70.8895 1400.97 35.4447L1441 0V383H1400.97C1360.94 383 1280.89 383 1200.83 383C1120.78 383 1040.72 383 960.667 383C880.611 383 800.555 383 720.5 383C640.444 383 560.389 383 480.333 383C400.278 383 320.222 383 240.167 383C160.111 383 80.0555 383 40.0278 383H0V170.332Z" fill="#686FAF" fill-opacity="0.05"/>
</svg>
