<svg width="1440" height="180" viewBox="0 0 1440 180" fill="none" xmlns="http://www.w3.org/2000/svg">
<path fill-rule="evenodd" clip-rule="evenodd" d="M-183 27.691L-114.25 19.2294C-45.5 10.7678 92 -6.15546 229.5 2.30615C367 10.7678 504.5 44.6142 642 69.999C779.5 95.3839 917 112.307 1054.5 103.845C1192 95.3839 1329.5 61.5374 1398.25 44.6142L1467 27.691V180H1398.25C1329.5 180 1192 180 1054.5 180C917 180 779.5 180 642 180C504.5 180 367 180 229.5 180C92 180 -45.5 180 -114.25 180H-183V27.691Z" fill="#686FAF" fill-opacity="0.1"/>
</svg>
